<svg width="51" height="57" viewBox="0 0 51 57" fill="none" xmlns="http://www.w3.org/2000/svg">
<path d="M8.68251 39.7682C10.2868 38.7751 11.8528 37.8584 13.3807 36.9035C13.5335 36.7889 13.6099 36.4833 13.6481 36.2542C13.6863 34.1151 13.6099 31.9761 13.7245 29.8753C13.9537 25.2153 17.4678 21.1282 22.0132 20.0969C22.2424 20.0587 22.4333 20.0205 22.7389 19.9441C19.1484 17.4995 17.3532 14.1764 17.7351 9.8602C18.0025 6.99544 19.3012 4.62725 21.5548 2.7938C25.9856 -0.796692 32.3645 -0.223741 36.0696 4.13069C38.1322 6.57528 38.9343 9.44004 38.4378 12.5722C37.9412 15.7425 36.2224 18.1489 33.5486 19.8677C34.4653 20.2115 35.382 20.5171 36.2988 20.8227C36.4515 20.8609 36.6043 20.8227 36.7571 20.7845C38.4378 20.2879 40.0038 20.4407 41.4935 21.4338C41.7609 21.6248 41.9137 21.5484 42.181 21.3956C45.5042 19.2948 49.7822 21.1282 50.5079 24.9861C50.8899 26.9341 50.2788 28.6148 48.9037 29.9899C46.9556 31.9379 45.0076 33.9241 43.0214 35.8722C42.6394 36.2542 42.563 36.6361 42.6776 37.0945C43.0978 37.1327 43.5179 37.1327 43.9381 37.2473C45.3896 37.6292 46.3063 38.5842 46.5737 40.0738C46.8029 41.5635 46.2681 42.7476 45.0458 43.5879C43.6325 44.5428 42.181 45.4596 40.7678 46.3763C38.3232 47.9424 35.8786 49.4702 33.4722 51.0745C31.5624 52.335 29.5379 52.6024 27.3607 51.8766C24.305 50.8071 21.211 49.8522 18.1553 48.8209C17.8115 48.7063 17.5442 48.7445 17.2386 48.9355C16.6274 49.3556 15.9781 49.7376 15.2905 50.1196C15.5961 50.5779 15.8635 50.9981 16.1309 51.4564C16.4364 51.9912 16.3601 52.3732 15.8635 52.7169C13.8773 54.0156 11.8528 55.2761 9.82841 56.5748C9.29366 56.9186 8.91169 56.7658 8.52972 56.1546C6.12333 52.3732 3.71693 48.6299 1.31054 44.8484C1.11955 44.581 0.928569 44.3137 0.775782 44.0081C0.508405 43.5497 0.584798 43.1296 1.00496 42.8622C3.06759 41.5253 5.09201 40.2266 7.15464 38.9279C7.613 38.6605 7.95677 38.7369 8.30054 39.1953C8.41513 39.3481 8.52972 39.5391 8.68251 39.7682ZM34.6945 21.9686C34.6945 21.8922 34.6945 21.854 34.6945 21.7776C33.816 21.663 32.9374 21.4338 32.0589 21.3956C29.4233 21.3574 26.7496 21.3574 24.0758 21.3956C23.7702 21.3956 23.5028 21.4338 23.1973 21.472C18.4609 22.1977 15.2141 25.9792 15.176 30.7538C15.176 32.2817 15.176 33.8478 15.176 35.3756C15.176 35.5284 15.176 35.6812 15.2142 35.8722C17.6205 35.4902 17.8115 35.4902 19.7214 36.1396C23.3501 37.3619 27.0169 38.5841 30.6456 39.7682C32.0589 40.2266 33.3194 40.7996 33.8542 42.3274C34.0833 42.2128 34.2361 42.0982 34.3889 42.0219C36.3751 40.7614 38.3614 39.4627 40.3476 38.2022C41.1497 37.7056 41.2643 36.5979 40.5768 35.9104C38.5906 33.9241 36.6425 31.9761 34.6563 29.9899C33.3576 28.6912 32.7846 27.1251 33.0138 25.2917C33.2048 23.9548 33.7778 22.8853 34.6945 21.9686ZM28.1247 19.7914C33.0138 19.7914 36.9863 15.7807 37.0245 10.8915C37.0245 5.96413 33.0138 1.99167 28.0865 1.99167C23.1973 1.99167 19.2248 6.00233 19.2248 10.8915C19.2248 15.8189 23.2355 19.8295 28.1247 19.7914ZM9.52284 41.1051C11.1653 43.7025 12.7696 46.2235 14.412 48.7445C15.2523 48.2479 16.0545 47.7514 16.8566 47.2548C17.2768 46.9874 17.6205 46.9492 18.0789 47.102C21.3256 48.2097 24.5724 49.241 27.8191 50.3487C29.4997 50.9217 31.0276 50.7307 32.5173 49.7758C34.6563 48.3625 36.7953 47.0256 38.9343 45.6505C40.615 44.5428 42.3338 43.4733 44.0145 42.3656C44.7784 41.8691 45.1604 41.2197 45.0076 40.303C44.7402 38.8515 43.2124 38.2022 41.9137 39.0043C39.3927 40.6086 36.8717 42.251 34.3507 43.8935C34.1597 44.0081 34.007 44.2755 33.9306 44.4664C33.4722 45.6887 32.6701 46.6055 31.3714 46.8346C30.7984 46.9492 30.1873 46.911 29.6525 46.7583C27.7045 46.1853 25.7946 45.4978 23.8466 44.8484C23.4265 44.6956 23.1591 44.4664 23.1973 44.0081C23.2355 43.5879 23.4646 43.3587 23.8466 43.3205C24.0376 43.2823 24.2668 43.3587 24.496 43.4351C26.2912 44.0463 28.0865 44.6574 29.9199 45.2304C31.104 45.6124 32.0589 45.1158 32.4409 43.9699C32.7846 42.9004 32.2881 41.8691 31.1804 41.4871C26.9406 40.0738 22.6625 38.6605 18.4227 37.2473C17.3532 36.9035 16.3219 36.9799 15.3287 37.5528C13.3425 38.7369 11.4709 39.921 9.52284 41.1051ZM41.6845 34.7645C43.8617 32.6255 46.0389 30.601 48.1015 28.462C49.4766 27.0105 49.2856 24.6423 47.8724 23.2291C46.4209 21.7776 44.1673 21.7012 42.6012 22.9999C41.8755 23.611 41.7227 23.611 40.997 22.9999C40.042 22.2359 38.9725 21.9304 37.7502 22.1595C36.2606 22.4651 35.191 23.3436 34.7327 24.8333C34.2743 26.2848 34.5799 27.6217 35.6494 28.7294C36.9863 30.1045 38.3614 31.4414 39.6983 32.8164C40.424 33.4658 41.0733 34.1533 41.6845 34.7645ZM2.41824 43.7407C4.78644 47.484 7.15464 51.1509 9.48464 54.856C11.1271 53.7865 12.7696 52.7551 14.3738 51.7238C12.0056 47.9805 9.67562 44.3137 7.30743 40.6086C5.66497 41.6781 4.0989 42.6712 2.41824 43.7407Z" fill="black" stroke="black" stroke-width="0.5" stroke-miterlimit="10"/>
<path d="M34.6946 21.9688C33.7778 22.8855 33.2049 23.9551 33.0521 25.2537C32.8229 27.0872 33.3959 28.6533 34.6946 29.9519C36.6808 31.9382 38.6288 33.8862 40.6151 35.8724C41.3026 36.56 41.188 37.6677 40.3859 38.1642C38.3997 39.4247 36.4134 40.7234 34.4272 41.9839C34.2744 42.0985 34.1216 42.1749 33.8924 42.2895C33.3577 40.7234 32.0972 40.1887 30.6839 39.7303C27.017 38.5462 23.3883 37.3239 19.7596 36.1016C17.8498 35.4905 17.697 35.4523 15.2524 35.8342C15.2524 35.6814 15.2142 35.5287 15.2142 35.3377C15.2142 33.8098 15.2142 32.2437 15.2142 30.7159C15.2524 25.9413 18.4992 22.1598 23.2355 21.4341C23.5411 21.3959 23.8085 21.3577 24.1141 21.3577C26.7878 21.3577 29.4234 21.3195 32.0972 21.3577C32.9757 21.3577 33.8542 21.5869 34.7328 21.7396C34.6946 21.8542 34.6946 21.9306 34.6946 21.9688Z" fill="white" stroke="black" stroke-width="0.5" stroke-miterlimit="10"/>
<path d="M28.1247 19.7916C23.2355 19.7916 19.2249 15.8192 19.2249 10.93C19.2249 6.04081 23.1973 2.03015 28.0865 2.03015C33.0139 2.03015 37.0245 6.00261 37.0245 10.93C36.9863 15.8192 33.0139 19.7916 28.1247 19.7916Z" fill="white" stroke="black" stroke-width="0.5" stroke-miterlimit="10"/>
<path d="M9.52289 41.1053C11.4709 39.9212 13.3808 38.7371 15.2906 37.6294C16.2455 37.0564 17.315 36.98 18.3845 37.3238C22.6244 38.6989 26.9024 40.1122 31.1422 41.5636C32.2499 41.9456 32.7847 42.9769 32.4027 44.0464C32.0208 45.1923 31.0658 45.6889 29.8817 45.3069C28.0865 44.734 26.2531 44.1228 24.4578 43.5117C24.2668 43.4353 24.0377 43.3589 23.8085 43.3971C23.4265 43.4353 23.1973 43.7026 23.1591 44.0846C23.1209 44.543 23.3883 44.7722 23.8085 44.9249C25.7183 45.5743 27.6663 46.2236 29.6144 46.8348C30.1491 46.9876 30.7985 47.0258 31.3332 46.9112C32.6701 46.682 33.434 45.7653 33.8924 44.543C33.9688 44.3138 34.1216 44.0846 34.3126 43.97C36.8336 42.3276 39.3545 40.7233 41.8755 39.0808C43.1742 38.2405 44.7403 38.8899 44.9695 40.3795C45.1222 41.2581 44.7403 41.9456 43.9763 42.4422C42.2957 43.5499 40.5768 44.6194 38.8962 45.7271C36.7572 47.1022 34.6181 48.439 32.4791 49.8523C30.9895 50.8454 29.4616 50.9982 27.7809 50.4253C24.5342 49.3176 21.2875 48.2863 18.0408 47.1785C17.5824 47.0258 17.2004 47.064 16.8185 47.3313C16.0545 47.8279 15.2142 48.3245 14.3739 48.821C12.7696 46.2236 11.1653 43.7026 9.52289 41.1053Z" fill="white" stroke="black" stroke-width="0.5" stroke-miterlimit="10"/>
<path d="M41.6845 34.7643C41.0733 34.1532 40.424 33.4657 39.7364 32.8163C38.3613 31.4412 36.9862 30.1043 35.6876 28.7292C34.618 27.6215 34.3125 26.2847 34.7708 24.8332C35.2292 23.3817 36.2605 22.465 37.7884 22.1594C38.9725 21.9302 40.0802 22.2358 41.0351 22.9997C41.7608 23.6109 41.9136 23.6109 42.6394 22.9997C44.2054 21.701 46.4972 21.7774 47.9105 23.2289C49.3238 24.6422 49.5148 27.0104 48.1397 28.4619C46.0389 30.6009 43.8617 32.6253 41.6845 34.7643ZM40.9969 26.8194C40.8823 26.8958 40.8823 26.8958 40.8441 26.8958C40.3858 26.8958 39.9274 26.8958 39.469 26.8958C38.9343 26.8958 38.5905 27.2014 38.5523 27.6215C38.5523 28.0799 38.8961 28.4237 39.469 28.4237C39.9656 28.4237 40.4622 28.4237 40.9587 28.4237C40.9587 28.9584 40.9587 29.4168 40.9587 29.8752C40.9587 30.5245 41.2643 30.8683 41.7608 30.8683C42.2574 30.8683 42.5248 30.5245 42.5248 29.8752C42.5248 29.4168 42.5248 28.9584 42.5248 28.4619C43.0977 28.4619 43.5561 28.4619 44.0526 28.4619C44.6256 28.4619 44.9694 28.1181 44.9694 27.6597C44.9694 27.2014 44.6256 26.934 44.0526 26.934C43.5561 26.934 43.0595 26.934 42.563 26.934C42.563 26.3992 42.563 25.9027 42.563 25.4443C42.563 24.8332 42.2574 24.5276 41.7608 24.5276C41.2643 24.5276 40.9969 24.8714 40.9587 25.4443C40.9969 25.9027 40.9969 26.3611 40.9969 26.8194Z" fill="white" stroke="black" stroke-width="0.5" stroke-miterlimit="10"/>
<path d="M2.41821 43.7408C4.06067 42.6713 5.66494 41.6782 7.3074 40.6086C9.67559 44.3137 12.0056 47.9806 14.3738 51.7239C12.7313 52.7552 11.1271 53.7865 9.48461 54.856C7.15461 51.1509 4.82461 47.4841 2.41821 43.7408Z" fill="white" stroke="black" stroke-width="0.5" stroke-miterlimit="10"/>
<path d="M40.997 26.8197C40.997 26.3614 40.997 25.903 40.997 25.4065C40.997 24.7953 41.3025 24.4897 41.7991 24.4897C42.2957 24.4897 42.563 24.7953 42.6012 25.4065C42.6012 25.8648 42.6012 26.3614 42.6012 26.8961C43.136 26.8961 43.6325 26.8961 44.0909 26.8961C44.6257 26.8961 44.9694 27.2017 45.0076 27.6219C45.0458 28.0802 44.6639 28.424 44.0909 28.424C43.6325 28.424 43.136 28.424 42.563 28.424C42.563 28.9206 42.563 29.3789 42.563 29.8373C42.563 30.4866 42.2575 30.8304 41.7991 30.8304C41.3025 30.8304 41.0352 30.4866 40.997 29.8373C40.997 29.3789 40.997 28.9206 40.997 28.3858C40.4622 28.3858 39.9657 28.3858 39.5073 28.3858C38.9343 28.3858 38.5906 28.042 38.5906 27.5837C38.5906 27.1253 38.9343 26.8579 39.5073 26.8579C39.9657 26.8579 40.424 26.8579 40.8824 26.8579C40.8824 26.8961 40.8824 26.8961 40.997 26.8197Z" fill="#3030FC" stroke="#3030FC" stroke-width="0.5" stroke-miterlimit="10"/>
</svg>
