<svg width="57" height="57" viewBox="0 0 57 57" fill="none" xmlns="http://www.w3.org/2000/svg">
<path d="M56.5806 17.0585C56.4632 17.7188 56.3752 18.3938 56.1991 19.0395C55.7295 20.8738 54.7903 22.4439 53.455 23.7793C51.7674 25.4668 50.0946 27.1544 48.4217 28.8566C48.2456 29.0327 48.0989 29.2528 48.0108 29.4876C47.5999 30.5001 46.8956 31.1311 45.8243 31.3806C45.6629 31.4246 45.4135 31.6007 45.3841 31.7474C45.1053 33.1268 44.2689 33.9339 42.9042 34.1834C42.8308 34.198 42.7721 34.2274 42.684 34.2421C42.4639 35.8269 41.5688 36.7514 39.9546 36.9862C39.9106 37.2063 39.8666 37.4411 39.8079 37.6612C39.2062 39.7743 36.5942 40.4346 34.9947 38.8498C32.9843 36.8688 31.018 34.8437 29.0223 32.848C26.0727 29.8838 23.1085 26.9489 20.203 23.9407C17.3415 21.0058 16.4024 17.484 17.5763 13.5807C18.7649 9.64794 21.4944 7.18266 25.5445 6.37557C28.9782 5.70055 32.0012 6.66906 34.5692 9.03162C35.1121 9.53054 35.1708 10.1028 34.7746 10.5137C34.3784 10.9393 33.8208 10.8953 33.2778 10.3963C30.1228 7.49082 25.5885 7.24135 22.3014 9.80935C18.2513 12.979 17.8405 18.834 21.465 22.5466C25.5885 26.7582 29.7707 30.9257 33.9235 35.1225C34.6866 35.8856 35.4496 36.6633 36.2127 37.4264C36.7263 37.94 37.3426 37.984 37.7682 37.5438C38.1937 37.1035 38.1644 36.5166 37.6361 35.9883C33.9528 32.261 30.2549 28.5484 26.5717 24.8212C26.3515 24.601 26.1168 24.2782 26.1168 23.9994C26.1168 23.7059 26.3075 23.295 26.557 23.1483C26.7918 23.0015 27.2027 23.0896 27.5255 23.163C27.7016 23.207 27.8337 23.4124 27.9657 23.5592C31.5756 27.1837 35.1708 30.8083 38.766 34.4475C38.8834 34.5649 38.9861 34.6823 39.1182 34.7997C39.5437 35.1665 40.0867 35.1665 40.4682 34.8144C40.8644 34.4622 40.9085 33.8605 40.5709 33.4203C40.4829 33.3029 40.3802 33.2002 40.2628 33.0975C37.3426 30.1626 34.4371 27.2131 31.5022 24.2782C31.2821 24.0581 30.9446 23.8967 30.6364 23.8233C29.5359 23.5592 28.7435 22.9429 28.3913 21.857C28.0538 20.7857 28.2445 19.7732 29.0516 18.9661C32.4414 15.5323 35.7724 12.0545 39.2503 8.72346C42.1411 5.97936 45.6629 5.23097 49.4489 6.50764C53.2495 7.7843 55.5094 10.5284 56.3605 14.4318C56.4485 14.828 56.5072 15.2242 56.5806 15.6057C56.5806 16.1046 56.5806 16.5742 56.5806 17.0585ZM47.6586 26.6701C49.2581 25.1293 51.0044 23.6179 52.5452 21.945C54.3354 20.008 54.9958 17.6161 54.5409 15.0187C53.9539 11.6583 52.0169 9.31043 48.7445 8.25388C45.4868 7.21201 42.5813 8.00442 40.1747 10.411C36.9757 13.5953 33.8208 16.7943 30.6511 19.9933C30.519 20.1254 30.387 20.2575 30.2843 20.4042C30.0201 20.8151 30.1082 21.3727 30.4604 21.7102C30.8272 22.033 31.3115 22.0477 31.7223 21.7542C31.8691 21.6515 31.9865 21.5048 32.1185 21.3727C34.1876 19.2889 36.242 17.2052 38.3111 15.1361C39.1769 14.2703 39.4704 14.285 40.3508 15.1361C41.4954 16.2514 42.8161 16.9998 44.4743 16.8237C45.5896 16.7063 46.4994 16.1487 47.2771 15.3416C47.8494 14.7546 48.6712 14.8867 48.9206 15.6057C49.082 16.0459 48.8766 16.3834 48.5831 16.6916C46.8515 18.5112 44.0781 19.4944 41.2606 18.0857C40.5856 17.7481 39.9693 17.2786 39.2796 16.853C39.0595 17.0878 38.7954 17.3519 38.4432 17.7335C41.5688 20.7711 44.6651 23.7646 47.6586 26.6701ZM34.4371 21.901C34.0262 22.2825 33.5566 22.7227 32.9843 23.251C34.4664 24.7038 35.9485 26.1125 37.416 27.5506C38.854 28.974 40.2775 30.4414 41.7155 31.8795C42.2732 32.4371 42.9188 32.4518 43.3297 31.9382C43.6672 31.5126 43.6232 30.9697 43.1683 30.5001C42.3612 29.6784 41.5541 28.8419 40.7324 28.0348C38.6339 25.9804 36.5208 23.926 34.4371 21.901ZM35.7578 20.4482C36.6089 21.2847 37.46 22.0771 38.2818 22.9135C40.3215 24.9532 42.3465 27.0223 44.4009 29.0474C44.6504 29.2968 45.1053 29.5023 45.4428 29.4876C45.7216 29.4729 46.0738 29.1207 46.2059 28.8419C46.426 28.4017 46.1765 28.0055 45.8537 27.668C43.0509 24.8505 40.2628 22.033 37.46 19.2156C37.3719 19.1275 37.2692 19.0688 37.2399 19.0395C36.741 19.5237 36.286 19.9493 35.7578 20.4482Z" fill="#3030FC"/>
<path d="M0.23133 32.9801C0.671559 32.261 1.05309 31.5127 1.53734 30.8523C3.06347 28.7979 4.39883 26.6555 5.52875 24.3663C5.77821 23.8527 5.71952 23.5152 5.30864 23.163C5.20592 23.0749 5.13254 22.9869 5.02982 22.8988C3.45968 21.4754 3.19554 20.595 4.076 18.6873C4.88308 16.9411 5.27929 15.0921 5.83691 13.2725C7.12825 9.16371 9.37342 5.77395 13.2915 3.6902C15.2872 2.63365 17.4296 2.04667 19.6307 1.60645C22.9912 0.931428 26.3809 0.359131 29.8147 0.359131C33.3952 0.359131 36.7703 1.28361 39.9106 3.0005C40.3655 3.24997 40.6884 3.58748 40.5563 4.1451C40.4095 4.80544 39.7639 4.99621 39.0595 4.68805C37.7242 4.10108 36.4035 3.45541 35.0094 3.01518C32.5148 2.20809 29.9468 2.07602 27.3348 2.34016C24.0624 2.663 20.834 3.1766 17.6497 3.99836C12.1762 5.40709 8.96254 9.03164 7.48043 14.3291C6.99618 16.0753 6.54128 17.8215 5.76354 19.4651C5.24994 20.5363 5.35266 20.683 6.23312 21.4901C6.59997 21.813 6.95216 22.1798 7.20162 22.5907C7.6712 23.3538 7.68587 24.1608 7.27499 24.9973C6.02768 27.5799 4.5309 30.0012 2.78466 32.2757C1.87485 33.4643 1.75746 33.3323 3.19554 34.1981C3.47435 34.3741 3.78251 34.5062 4.06132 34.6676C5.52875 35.5334 5.98365 36.8981 5.29396 38.4683C5.11787 38.8645 4.89776 39.246 4.67764 39.6862C4.97113 39.921 5.27929 40.1558 5.57277 40.3906C6.27714 40.9482 6.35051 41.3004 5.86626 42.0635C5.79289 42.1809 5.73419 42.3129 5.64615 42.489C7.62717 43.3988 7.90599 44.9543 7.40706 46.862C7.20162 47.625 7.39239 48.4028 7.71522 49.1071C8.0674 49.8555 8.85982 50.2077 9.69625 49.9582C13.086 48.9164 16.4758 47.8598 19.8509 46.7739C21.1862 46.3484 22.5216 45.8494 23.7982 45.2771C24.4146 44.9983 25.0162 44.5728 25.4858 44.0739C25.838 43.707 26.0287 43.1347 26.1461 42.6211C26.2929 42.0195 26.5717 41.6526 27.1293 41.6526C27.6869 41.6673 28.0244 42.0488 28.0244 42.6798C28.0244 43.8097 27.5402 44.7342 26.7478 45.4973C25.6472 46.5685 24.2825 47.1995 22.8591 47.7131C21.8906 48.0653 20.9221 48.3881 19.8949 48.7403C20.0123 48.887 20.0856 49.0191 20.1884 49.1365C21.4797 50.6626 22.4189 52.3942 23.0205 54.3018C23.1086 54.5953 23.1966 54.7567 23.5635 54.7567C30.387 54.7127 37.2106 54.698 44.0341 54.6687C44.1075 54.6687 44.1808 54.654 44.2689 54.6393C44.2689 54.5807 44.2836 54.522 44.2689 54.4779C42.6254 51.8659 41.9503 48.931 41.4661 45.9375C41.1433 43.9565 41.0259 41.9754 41.334 39.9797C41.3487 39.877 41.3634 39.7596 41.3781 39.6569C41.5101 39.0406 41.9063 38.7324 42.4639 38.8058C42.9922 38.8792 43.3151 39.3047 43.227 39.9357C42.7134 43.5016 43.3444 46.95 44.4303 50.3104C44.8265 51.5284 45.5309 52.6436 46.0885 53.8176C46.3086 54.2578 46.5728 54.6834 46.7635 55.1383C47.101 55.9454 46.7048 56.5323 45.839 56.547C44.8999 56.5617 43.9754 56.5617 43.0362 56.5617C42.8308 56.5617 42.64 56.6057 42.4346 56.6204C35.6844 56.6204 28.9342 56.6204 22.1841 56.6204C21.9493 56.2975 21.6411 56.0041 21.4797 55.6372C20.9955 54.522 20.6579 53.3187 20.071 52.2621C19.5721 51.367 18.8383 50.6039 18.178 49.7968C17.9432 49.518 17.6644 49.518 17.2975 49.6207C14.8469 50.3691 12.3963 51.1175 9.93104 51.8072C8.36089 52.2474 6.71737 51.4404 6.02768 49.9876C5.48473 48.8577 5.29396 47.6544 5.54343 46.4071C5.86626 44.8516 5.85159 44.8516 4.51622 44.0005C3.70914 43.5016 3.45967 42.9146 3.76784 42.0488C3.92925 41.6232 3.82653 41.4178 3.48902 41.1537C2.49117 40.3906 2.40313 39.8917 2.9901 38.7618C3.06347 38.615 3.15152 38.4683 3.22489 38.3362C3.97328 36.9715 3.91458 36.7074 2.53519 36.003C1.52267 35.4894 0.598188 34.8877 0.157959 33.7725C0.23133 33.4937 0.23133 33.2442 0.23133 32.9801Z" fill="black"/>
<path d="M18.0312 5.89124C18.5448 5.89124 18.9264 6.21407 18.9851 6.68365C19.0584 7.19725 18.809 7.53476 18.3541 7.71085C17.7231 7.96031 17.0627 8.1364 16.4611 8.42989C13.5409 9.82395 12.0294 12.3186 11.149 15.2828C10.9876 15.8404 10.8849 16.4274 10.7234 16.985C10.562 17.5867 10.1218 17.8801 9.59351 17.7627C9.05056 17.6307 8.78643 17.1904 8.90382 16.5888C9.43209 13.786 10.4593 11.218 12.4257 9.09023C13.8784 7.50541 15.698 6.52223 17.7524 5.96461C17.8551 5.92058 17.9725 5.90591 18.0312 5.89124Z" fill="black"/>
<path d="M9.60827 20.0522C9.60827 20.5658 9.16804 20.9913 8.65444 20.9767C8.17019 20.962 7.75931 20.5364 7.74463 20.0522C7.72996 19.5386 8.15551 19.113 8.68379 19.113C9.21206 19.1277 9.60827 19.5239 9.60827 20.0522Z" fill="black"/>
</svg>
