<svg width="55" height="61" viewBox="0 0 55 61" fill="none" xmlns="http://www.w3.org/2000/svg">
<path d="M8.75432 42.4819C11.1142 41.108 13.4095 39.7664 15.7371 38.4571C16.5615 37.9883 17.4182 37.5681 18.291 37.2286C20.166 36.4851 21.9926 36.7922 23.8353 37.4873C26.6478 38.5541 29.4765 39.5239 32.4345 40.122C34.4873 40.5422 35.7481 42.8052 35.15 44.8095C35.0854 45.0035 35.0207 45.1813 34.8914 45.5531C35.441 45.2944 35.8612 45.1166 36.2653 44.8903C39.4011 43.08 42.5369 41.2373 45.6889 39.4108C46.9173 38.6996 48.1781 38.1015 49.6006 37.8267C51.9767 37.3741 53.9648 38.4571 54.5306 40.5422C55.0155 42.3203 54.3204 44.0821 52.7687 45.0358C47.0143 48.5757 41.26 52.1156 35.5056 55.6555C33.5498 56.8678 31.4646 57.1588 29.234 56.5607C25.5325 55.5585 21.8148 54.6372 18.1456 53.5542C17.0464 53.2309 16.2867 53.538 15.4462 54.1846C15.6563 54.5564 15.8664 54.9605 16.0927 55.3484C16.8686 56.7547 16.513 58.0639 15.1391 58.856C14.2985 59.3409 13.458 59.8258 12.6013 60.2784C11.2921 60.9896 9.96661 60.6178 9.22307 59.3247C6.57219 54.6695 3.9213 49.9981 1.28658 45.3429C0.559204 44.0498 0.930974 42.7082 2.20792 41.9647C3.08078 41.4474 3.95363 40.9463 4.84264 40.4776C6.10343 39.7987 7.42887 40.1866 8.18858 41.4151C8.33405 41.7545 8.52802 42.094 8.75432 42.4819ZM14.4117 52.4712C14.9289 52.1803 15.3815 51.954 15.8018 51.6792C16.3514 51.3074 16.8848 51.2751 17.5152 51.4367C21.5238 52.5359 25.5486 53.5865 29.5411 54.6695C31.3192 55.1544 32.9517 54.9443 34.5358 53.9745C40.2416 50.4346 45.9798 46.927 51.7019 43.4194C52.5747 42.886 52.898 41.9808 52.6071 40.9625C52.3646 40.1382 51.6695 39.6694 50.6351 39.7017C50.2956 39.7017 49.9238 39.7179 49.6167 39.831C48.6146 40.2351 47.5801 40.5907 46.6426 41.1242C43.5391 42.886 40.4518 44.6802 37.3806 46.5067C35.6511 47.5251 33.8084 47.9292 31.8526 47.4927C29.3633 46.927 26.8741 46.2804 24.401 45.6501C23.8029 45.4884 23.5281 44.9873 23.6736 44.4539C23.8191 43.9043 24.3363 43.6457 24.9667 43.8235C26.2437 44.163 27.5206 44.5509 28.8137 44.8742C29.6543 45.1005 30.4948 45.3268 31.3515 45.4399C32.4668 45.5692 33.1942 45.0035 33.3396 44.0498C33.4851 43.0962 32.8871 42.2556 31.8687 41.997C31.4808 41.9 31.0767 41.8515 30.6888 41.7384C27.9086 40.8494 25.1122 39.9765 22.3482 39.0552C21.2329 38.6834 20.1176 38.6511 19.0346 39.0552C18.3719 39.2976 17.7253 39.5886 17.1111 39.9442C14.735 41.2858 12.3912 42.6597 10.0313 44.0175C9.93428 44.0821 9.8373 44.1468 9.72415 44.2438C11.2759 46.9593 12.8276 49.691 14.4117 52.4712ZM6.10343 42.0617C5.8933 42.1425 5.79632 42.1586 5.69933 42.2071C4.85881 42.6759 4.01828 43.1608 3.17776 43.6296C2.83832 43.8235 2.7575 44.0983 2.95147 44.4378C3.21009 44.8903 3.46871 45.3429 3.72733 45.8117C6.05494 49.9335 8.39871 54.0553 10.7263 58.1609C11.0981 58.8075 11.2112 58.8398 11.8578 58.468C12.6013 58.0478 13.3287 57.6275 14.0722 57.2234C14.4925 56.9971 14.5733 56.7062 14.3309 56.2859C13.749 55.2838 13.1832 54.2493 12.6013 53.2309C10.597 49.691 8.59268 46.1511 6.57219 42.6112C6.45904 42.4173 6.24891 42.2395 6.10343 42.0617Z" fill="black"/>
<path d="M24.5142 24.3945C24.1747 24.2491 23.9 24.1198 23.6252 24.0066C22.0088 23.2631 21.1521 21.7437 21.3622 19.9818C21.3784 19.804 21.4107 19.6262 21.443 19.4484C21.7825 18.0098 21.4107 16.7328 20.7157 15.4721C19.5519 13.3384 19.8105 11.8028 21.6532 10.2026C22.8331 9.18429 23.4797 7.97199 23.7545 6.46874C24.1747 4.28661 25.4355 3.26829 27.6661 3.15514C28.1834 3.12281 28.7168 3.13898 29.2341 3.04199C29.7028 2.94501 30.1716 2.79953 30.5757 2.55707C31.1252 2.2338 31.6101 1.79737 32.1436 1.4256C33.5821 0.391108 35.2794 0.374944 36.7018 1.40944C39.4173 3.38143 38.3343 2.92884 41.6641 3.18747C43.1835 3.30062 44.509 4.33511 44.9616 5.80602C45.1555 6.45258 45.2363 7.16379 45.4788 7.79419C45.6889 8.34376 45.996 8.87717 46.3678 9.32976C46.7396 9.79851 47.2407 10.1703 47.6771 10.5905C48.8894 11.8028 49.1965 13.4354 48.453 14.9871C47.079 17.8158 47.1598 17.0238 47.5155 20.0464C47.7256 21.8406 46.9659 23.1822 45.3495 24.0066C45.2687 24.0551 45.1878 24.1036 45.0585 24.1682C45.8991 26.1079 46.7234 28.0314 47.5478 29.9549C47.6609 30.2136 47.8387 30.4722 47.8711 30.7308C47.9196 31.1187 47.9519 31.5713 47.8064 31.9108C47.5963 32.3472 47.0952 32.3149 46.6749 32.2179C45.6243 32.0077 44.5736 31.7976 43.5391 31.5552C43.1189 31.4582 42.8764 31.539 42.6663 31.9269C42.1329 32.8483 41.551 33.7373 40.9852 34.6586C40.7428 35.0627 40.4357 35.3537 39.9184 35.3052C39.4335 35.2567 39.2072 34.9173 39.0294 34.497C38.2859 32.7351 37.51 30.9894 36.7664 29.2276C36.621 28.8719 36.4108 28.6941 36.0391 28.5972C35.2955 28.4194 34.6005 28.0799 33.7923 28.3224C33.4367 28.4355 33.2265 28.581 33.0649 28.9366C31.9981 31.2642 30.9151 33.5756 29.8321 35.9033C29.622 36.3397 29.3957 36.7276 28.8461 36.7599C28.2965 36.7761 28.0218 36.4205 27.7793 36.0002C27.2459 35.0789 26.6963 34.1576 26.1791 33.22C26.0013 32.8968 25.8073 32.8321 25.4517 32.8968C24.3364 33.1069 23.2372 33.3332 22.1058 33.4625C21.7663 33.4948 21.2491 33.3494 21.0713 33.1069C20.8935 32.8483 20.8935 32.3149 21.0228 32.0078C22.0573 29.7125 23.1403 27.4334 24.1909 25.1542C24.2879 24.8795 24.3849 24.6693 24.5142 24.3945ZM34.358 2.46009C33.9539 2.67022 33.4528 2.8157 33.0972 3.12281C31.5617 4.51291 29.7836 5.15947 27.7308 5.06248C27.65 5.06248 27.5692 5.06248 27.4883 5.07865C26.5832 5.1433 25.872 5.59589 25.7426 6.46874C25.4194 8.74786 24.3849 10.5421 22.5745 11.9645C21.8795 12.4979 21.831 13.3061 22.2027 14.1143C22.3967 14.5345 22.5907 14.9548 22.8331 15.3589C23.4959 16.5065 23.6898 17.735 23.4474 19.0281C23.3665 19.416 23.3342 19.8202 23.3019 20.2242C23.2211 21.1941 23.609 21.8568 24.4819 22.2609C24.9668 22.471 25.4355 22.6812 25.9204 22.8751C26.9388 23.2792 27.7146 23.9258 28.2965 24.8471C28.5552 25.2674 28.8461 25.6877 29.1209 26.1079C29.719 26.9969 30.414 27.2556 31.4647 26.9646C31.8849 26.8353 32.3214 26.7221 32.7416 26.5767C33.8731 26.1726 34.9884 26.1887 36.1199 26.5605C36.621 26.7221 37.122 26.8676 37.6231 27.0131C38.4637 27.2394 39.1264 26.9646 39.6436 26.2857C39.7891 26.0918 39.9346 25.8978 40.0477 25.6877C40.8882 24.0874 42.1814 23.0853 43.8786 22.471C45.5273 21.873 45.8021 21.3072 45.5111 19.5939C45.2525 18.0583 45.3495 16.6197 46.1254 15.2134C47.3538 12.9666 47.2892 12.8212 45.3818 11.0755C44.412 10.1864 43.7169 9.16812 43.5068 7.85884C43.4583 7.5194 43.3613 7.19612 43.2805 6.85668C42.9734 5.56357 42.4723 5.07865 41.1469 5.07865C39.1102 5.09481 37.3322 4.52907 35.8451 3.12281C35.7158 2.9935 35.5703 2.88035 35.3925 2.8157C35.0854 2.70255 34.7783 2.60557 34.358 2.46009ZM28.6845 33.6726C29.4119 32.1047 30.1069 30.6177 30.8343 29.0498C28.8946 29.0174 27.8116 27.8698 26.9711 26.3989C26.761 26.0433 26.5185 25.72 26.2276 25.2997C25.2901 27.3202 24.3849 29.2437 23.4635 31.248C24.401 31.0864 25.2092 30.9571 26.0174 30.7955C26.6317 30.6661 27.0681 30.8439 27.3752 31.4097C27.7793 32.1532 28.2157 32.8644 28.6845 33.6726ZM43.2967 24.9441C43.2159 24.9118 43.1512 24.8795 43.0704 24.8471C42.6178 25.4614 42.1167 26.0594 41.7126 26.7221C41.0176 27.8536 40.177 28.7265 38.7708 29.0013C39.2395 30.0842 39.6921 31.1349 40.1609 32.2017C40.2255 32.1209 40.2579 32.0886 40.2902 32.0562C40.6619 31.4582 41.0337 30.8601 41.4055 30.262C41.9712 29.3569 42.149 29.276 43.1835 29.5023C43.9109 29.6478 44.6383 29.7933 45.4626 29.9549C44.7029 28.2092 44.0079 26.5767 43.2967 24.9441Z" fill="#3030FC"/>
<path d="M6.53982 44.9389C6.53982 45.4723 6.11956 45.8926 5.58615 45.8926C5.05274 45.9088 4.61632 45.4885 4.60015 44.9551C4.58399 44.4055 5.03658 43.9368 5.58615 43.9529C6.1034 43.9691 6.53982 44.4217 6.53982 44.9389Z" fill="black"/>
<path d="M43.3289 14.8255C43.3289 19.7231 39.3364 23.7318 34.4388 23.7156C29.5411 23.7156 25.5648 19.707 25.5648 14.8093C25.5809 9.92779 29.5411 5.95147 34.4226 5.95147C39.3364 5.9353 43.3289 9.91163 43.3289 14.8255ZM41.3892 14.7931C41.3731 10.9784 38.2534 7.87497 34.4388 7.87497C30.5917 7.87497 27.4883 11.0269 27.5044 14.874C27.5368 18.6886 30.6726 21.7921 34.4872 21.7598C38.3019 21.7598 41.4054 18.6078 41.3892 14.7931Z" fill="#3030FC"/>
<path d="M32.6445 16.2803C34.374 14.7124 36.0389 13.2092 37.7038 11.7059C37.8493 11.5766 37.9948 11.415 38.1564 11.318C38.609 11.027 39.0454 11.0432 39.4172 11.4473C39.789 11.8352 39.7566 12.2878 39.4495 12.7243C39.3849 12.8212 39.2879 12.9021 39.1909 12.9829C37.2997 14.6963 35.4247 16.3935 33.5335 18.1068C32.8061 18.7696 32.4344 18.7372 31.7232 18.0422C31.0119 17.331 30.2846 16.6198 29.5895 15.9086C29.0884 15.4075 29.0723 14.8256 29.4925 14.4215C29.8966 14.0335 30.4624 14.0659 30.9473 14.5508C31.513 15.0842 32.0626 15.6661 32.6445 16.2803Z" fill="#3030FC"/>
</svg>
