<svg width="53" height="53" viewBox="0 0 53 53" fill="none" xmlns="http://www.w3.org/2000/svg">
<path d="M17.456 21.1023C17.7778 21.3262 18.0576 21.5081 18.3654 21.718C18.4913 21.4941 18.5893 21.3262 18.6872 21.1723C19.4567 19.983 20.5481 19.3534 21.9612 19.3254C22.6608 19.3114 23.2624 19.1016 23.7241 18.5699C23.7101 18.5279 23.7101 18.486 23.6961 18.472C22.1011 17.3107 21.3736 15.7436 21.4575 13.7709C21.4855 13.1133 21.4435 12.4417 21.5554 11.7841C21.9612 9.20969 24.2558 7.4188 26.8582 7.58669C29.4186 7.75459 31.4753 9.90926 31.5313 12.4977C31.5453 13.2952 31.5732 14.1067 31.4893 14.9042C31.3214 16.4292 30.5239 17.6045 29.2507 18.4999C29.6424 19.0176 30.1741 19.2835 30.7757 19.2974C32.4967 19.2974 33.7559 20.039 34.5534 21.564C34.5674 21.592 34.6094 21.606 34.6933 21.676C34.9591 21.4941 35.239 21.3122 35.5608 21.0883C35.3929 20.9484 35.2809 20.8505 35.155 20.7665C33.9098 19.7452 33.2242 18.43 33.2242 16.821C33.2242 15.9675 33.1962 15.1 33.3222 14.2606C33.7139 11.7281 36.0365 9.95123 38.6249 10.1191C41.1433 10.287 43.214 12.3997 43.284 14.9321C43.312 15.7576 43.34 16.5831 43.256 17.3946C43.0881 18.9337 42.2906 20.1369 41.0034 21.0324C41.4371 21.578 41.9828 21.8159 42.6404 21.8299C45.1169 21.9278 46.6559 23.5088 46.6559 25.9713C46.6559 27.3145 46.6559 28.6577 46.6559 30.0008C46.6559 30.7424 46.3621 31.0362 45.5926 31.0362C40.6956 31.0362 35.7986 31.0362 30.9017 31.0362C30.1461 31.0362 29.8663 30.7424 29.8663 29.9868C29.8663 29.2453 29.8663 28.4898 29.8663 27.7202C27.6277 27.7202 25.431 27.7202 23.1505 27.7202C23.1505 28.4338 23.1505 29.1613 23.1505 29.8889C23.1505 30.7843 22.8846 31.0502 22.0032 31.0502C17.1762 31.0502 12.3491 31.0502 7.52212 31.0502C6.62668 31.0502 6.36084 30.7983 6.36084 29.9029C6.36084 28.5457 6.36084 27.1746 6.36084 25.8174C6.37483 23.5368 7.99783 21.8719 10.2644 21.8299C10.95 21.8159 11.5236 21.592 11.9714 21.0883C11.9574 21.0464 11.9574 21.0044 11.9434 20.9904C10.3484 19.8291 9.60683 18.2621 9.70477 16.2893C9.73275 15.6177 9.69078 14.9182 9.80271 14.2606C10.2085 11.7281 12.517 9.93724 15.1054 10.1191C17.6239 10.287 19.6946 12.3997 19.7645 14.9321C19.7925 15.7576 19.8205 16.5831 19.7366 17.3946C19.5967 18.8917 18.981 19.8151 17.456 21.1023ZM33.2102 26.0273C33.2102 25.0059 33.2522 24.0265 33.1962 23.0471C33.1543 22.1797 32.6926 21.5081 31.8671 21.2003C31.1115 20.9204 30.398 20.8225 29.6704 21.4941C27.8655 23.1311 25.1232 23.1031 23.3044 21.4661C22.8846 21.0883 22.4789 20.9764 21.9612 21.0044C20.8839 21.0744 19.9464 21.7739 19.8485 22.8233C19.7506 23.8726 19.8205 24.936 19.8205 26.0133C24.2838 26.0273 28.719 26.0273 33.2102 26.0273ZM21.4435 27.7202C20.674 27.7202 19.9324 27.7202 19.1769 27.7202C18.3934 27.7202 18.1136 27.4264 18.1136 26.6429C18.1136 25.7614 18.1136 24.88 18.1136 23.9006C17.9177 24.0545 17.7918 24.1385 17.6798 24.2364C15.805 25.6215 13.2726 25.5376 11.5516 23.9845C11.1319 23.5928 10.7261 23.5088 10.1945 23.5368C9.13113 23.6068 8.19371 24.2784 8.10976 25.3137C7.99783 26.6569 8.08178 28.0141 8.08178 29.3712C12.559 29.3712 17.0083 29.3712 21.4435 29.3712C21.4435 28.7976 21.4435 28.2939 21.4435 27.7202ZM44.963 29.3712C44.963 28.056 45.0049 26.7688 44.949 25.4816C44.907 24.4742 44.0535 23.6627 43.0462 23.5508C42.4585 23.4809 41.9548 23.5368 41.4371 23.9985C39.7162 25.5656 37.1838 25.6075 35.3089 24.2224C35.197 24.1385 35.0711 24.0545 34.9032 23.9426C34.9032 24.894 34.9032 25.7614 34.9032 26.6289C34.9032 27.4404 34.6234 27.7202 33.7979 27.7202C33.0563 27.7202 32.3148 27.7202 31.5732 27.7202C31.5732 28.3079 31.5732 28.8256 31.5732 29.3712C36.0225 29.3712 40.4577 29.3712 44.963 29.3712ZM18.0996 15.9815C18.0996 15.6877 18.1136 15.3939 18.0996 15.0861C18.0576 13.3651 16.7284 11.952 15.0355 11.7981C13.3425 11.6582 11.7755 12.7775 11.4817 14.4564C11.3278 15.3239 11.3558 16.2333 11.3977 17.1148C11.5097 18.8777 13.0487 20.2209 14.8256 20.1789C16.5605 20.1369 18.0016 18.7098 18.0856 16.9749C18.1136 16.6391 18.0996 16.3033 18.0996 15.9815ZM41.647 16.0095C41.633 16.0095 41.633 16.0095 41.619 16.0095C41.619 15.6737 41.633 15.3519 41.619 15.0161C41.5631 13.3511 40.2479 11.966 38.5969 11.8121C36.9179 11.6442 35.3229 12.7635 35.0151 14.4285C34.8752 15.212 34.9032 16.0235 34.9172 16.821C34.9312 18.5839 36.2464 20.011 37.9673 20.1649C39.6882 20.3188 41.2273 19.1435 41.5631 17.4086C41.633 16.9609 41.619 16.4852 41.647 16.0095ZM29.9083 13.4491C29.8943 13.4491 29.8803 13.4491 29.8663 13.4491C29.8663 13.1552 29.8663 12.8614 29.8663 12.5536C29.8243 10.8607 28.5231 9.46153 26.8442 9.27965C25.1512 9.11175 23.5422 10.245 23.2484 11.938C23.1085 12.7495 23.1365 13.603 23.1644 14.4425C23.2064 16.0934 24.5496 17.4786 26.2006 17.6325C27.8655 17.7864 29.4186 16.6671 29.7684 15.0441C29.8663 14.5404 29.8523 13.9947 29.9083 13.4491ZM28.4951 20.2349C28.2293 19.9411 28.0194 19.5073 27.6976 19.3674C27.3618 19.2135 26.9001 19.3534 26.4944 19.3394C26.2285 19.3254 25.9767 19.2695 25.7109 19.2695C25.557 19.2695 25.3611 19.2975 25.2492 19.3954C24.9693 19.6612 24.7455 19.955 24.4936 20.2489C25.557 21.2143 27.5158 21.2143 28.4951 20.2349ZM36.2603 22.7393C37.2397 23.7187 39.1985 23.7187 40.2619 22.7393C40.052 22.5155 39.8141 22.3056 39.6323 22.0537C39.4504 21.7879 39.2545 21.7459 38.9327 21.7739C38.457 21.8299 37.9673 21.7599 37.4776 21.7739C37.3097 21.7739 37.0998 21.8159 36.9879 21.9278C36.736 22.1797 36.5122 22.4735 36.2603 22.7393ZM12.6989 22.6973C13.8322 23.8027 16.0848 23.6068 16.7424 22.7113C16.7284 22.6834 16.7004 22.6554 16.6865 22.6274C16.1968 21.9418 15.6091 21.7599 14.7277 21.7879C13.9441 21.8159 13.3425 21.8719 12.9088 22.5574C12.8528 22.6274 12.7829 22.6414 12.6989 22.6973Z" fill="#3030FC"/>
<path d="M13.9162 49.5047C13.9162 49.7426 13.9162 49.9385 13.9162 50.1203C13.9022 50.9039 13.6224 51.1837 12.8249 51.1837C11.5377 51.1837 10.2365 51.1837 8.87934 51.1837C8.87934 51.4635 8.89334 51.7154 8.87934 51.9812C8.85136 52.5129 8.55754 52.8626 8.03986 52.8626C5.80125 52.8766 3.56263 52.8766 1.32402 52.8626C0.83432 52.8626 0.526511 52.5268 0.498528 52.0232C0.484537 51.8972 0.498528 51.7853 0.498528 51.6594C0.498528 45.755 0.498528 39.8507 0.498528 33.9603C0.498528 32.9949 0.736381 32.7571 1.71577 32.7571C5.33953 32.7571 8.96329 32.7571 12.5731 32.7571C13.7343 32.7571 13.9162 32.925 13.9302 34.0723C13.9302 34.1702 13.9442 34.2681 13.9442 34.436C14.1541 34.436 14.336 34.436 14.5318 34.436C17.3161 34.436 20.1004 34.45 22.8707 34.422C23.3324 34.422 23.6682 34.562 23.976 34.8838C25.9488 36.8845 27.9356 38.8853 29.9223 40.8721C30.0203 40.97 30.2721 40.984 30.426 40.942C35.9246 39.4589 41.4092 37.9619 46.8938 36.4648C47.8313 36.2129 48.7407 36.115 49.6781 36.4088C51.3571 36.9265 52.4764 38.3956 52.5323 40.1445C52.5883 41.7115 52.5883 41.7115 51.1052 42.2152C42.5565 45.1534 33.9938 48.0776 25.4451 51.0298C24.9974 51.1837 24.6196 51.1837 24.1859 51.0298C23.5563 50.7919 22.8847 50.624 22.2551 50.3722C20.5481 49.6586 18.7852 49.3928 16.9384 49.5047C15.945 49.5607 14.9516 49.5047 13.9162 49.5047ZM13.9302 47.8397C14.3919 47.8397 14.8257 47.8677 15.2454 47.8397C18.3795 47.5739 21.4016 48.0636 24.2978 49.2809C24.5916 49.4068 25.0254 49.3928 25.3472 49.2809C33.686 46.4406 42.0248 43.5584 50.3637 40.7182C50.8534 40.5503 50.8814 40.2984 50.8114 39.9067C50.5316 38.3676 49.1744 37.5841 47.4955 38.0318C41.9829 39.5289 36.4843 41.026 30.9717 42.523C30.6639 42.607 30.524 42.7469 30.496 43.0827C30.384 44.3839 29.6985 45.3073 28.4952 45.783C27.3059 46.2447 26.1447 46.0768 25.2212 45.1954C23.7661 43.8242 22.367 42.3691 20.9539 40.942C20.9399 40.928 20.9399 40.8721 20.9399 40.8721C21.3176 40.4803 21.6674 40.1025 22.1711 39.5849C22.2831 39.7807 22.367 39.9626 22.4929 40.1025C23.6962 41.3198 24.9134 42.523 26.1307 43.7403C26.8582 44.4538 27.7677 44.5098 28.4113 43.8802C29.0689 43.2366 29.0269 42.2992 28.2853 41.5576C26.5504 39.8227 24.8295 38.0878 23.0806 36.3808C22.9127 36.2129 22.6049 36.087 22.367 36.087C19.7226 36.073 17.0783 36.073 14.4479 36.073C14.28 36.073 14.1121 36.087 13.9442 36.101C13.9302 40.0466 13.9302 43.9082 13.9302 47.8397ZM7.1724 51.1557C7.1724 45.5452 7.1724 40.0046 7.1724 34.45C5.49344 34.45 3.84246 34.45 2.20547 34.45C2.20547 40.0326 2.20547 45.6011 2.20547 51.1557C3.87044 51.1557 5.50743 51.1557 7.1724 51.1557ZM12.2093 34.464C11.076 34.464 9.98466 34.464 8.92132 34.464C8.92132 39.5009 8.92132 44.4958 8.92132 49.4767C10.0406 49.4767 11.118 49.4767 12.2093 49.4767C12.2093 44.4678 12.2093 39.4869 12.2093 34.464Z" fill="black"/>
<path d="M27.3899 2.5498C26.8303 2.5498 26.3406 2.5498 25.7949 2.5498C25.7949 2.01813 25.7949 1.50045 25.7949 0.940796C26.2986 0.940796 26.8303 0.940796 27.3899 0.940796C27.3899 1.47247 27.3899 2.00414 27.3899 2.5498Z" fill="black"/>
<path d="M52.4904 28.0281C51.9307 28.0281 51.427 28.0281 50.8813 28.0281C50.8813 27.4824 50.8813 26.9787 50.8813 26.4191C51.413 26.4191 51.9307 26.4191 52.4904 26.4191C52.4904 26.9367 52.4904 27.4684 52.4904 28.0281Z" fill="black"/>
<path d="M51.511 19.6332C51.6509 20.1928 51.7908 20.6965 51.9447 21.2702C51.399 21.3961 50.8814 21.508 50.3077 21.6339C50.1678 21.1163 50.0419 20.6266 49.902 20.0949C50.4336 19.941 50.9373 19.8011 51.511 19.6332Z" fill="black"/>
<path d="M13.6504 6.22949C13.3426 5.7258 13.0627 5.29207 12.7689 4.81636C13.2586 4.53653 13.7203 4.2707 14.238 3.96289C14.5038 4.46658 14.7557 4.92829 15.0355 5.43198C14.5598 5.69782 14.1261 5.94966 13.6504 6.22949Z" fill="black"/>
<path d="M39.5204 6.32746C39.0447 6.04764 38.611 5.79579 38.1353 5.51597C38.4011 5.04026 38.6529 4.56455 38.9328 4.04688C39.4225 4.34069 39.8982 4.60653 40.4158 4.91434C40.108 5.40404 39.8142 5.85176 39.5204 6.32746Z" fill="black"/>
<path d="M5.78723 14.0927C5.5074 14.5824 5.25556 15.0021 4.98972 15.4639C4.50002 15.212 4.03831 14.9602 3.52063 14.6803C3.80046 14.1906 4.08028 13.7149 4.3741 13.1973C4.84981 13.5191 5.29753 13.7989 5.78723 14.0927Z" fill="black"/>
<path d="M34.2037 2.04616C34.0219 2.6198 33.868 3.1095 33.7001 3.64117C33.1824 3.50126 32.7067 3.37534 32.161 3.23542C32.2869 2.70375 32.3989 2.20006 32.5388 1.61243C33.0984 1.75234 33.6301 1.89225 34.2037 2.04616Z" fill="black"/>
<path d="M24.1859 2.67571C23.6403 2.74567 23.1506 2.81563 22.6049 2.88558C22.521 2.35391 22.423 1.82224 22.3251 1.2486C22.8847 1.16465 23.4024 1.09469 24.004 1.01074C24.074 1.5704 24.13 2.08808 24.1859 2.67571Z" fill="black"/>
<path d="M1.11414 21.0883C1.26804 20.5146 1.40795 19.997 1.54787 19.4513C2.07954 19.6052 2.58323 19.7591 3.14288 19.927C3.00297 20.4447 2.87705 20.9484 2.75112 21.48C2.19147 21.3261 1.67379 21.2142 1.11414 21.0883Z" fill="black"/>
<path d="M7.64808 11.4903C7.31229 11.938 7.00448 12.3297 6.66868 12.7635C6.20697 12.4417 5.78723 12.1339 5.31152 11.7981C5.6753 11.3364 6.01109 10.9026 6.36087 10.4409C6.8086 10.7907 7.20035 11.1265 7.64808 11.4903Z" fill="black"/>
<path d="M45.4807 11.6442C45.9144 11.2944 46.3342 10.9586 46.7819 10.5948C47.1317 11.0566 47.4535 11.4763 47.8173 11.952C47.3556 12.2738 46.9358 12.5816 46.4601 12.9174C46.1243 12.4837 45.8165 12.0779 45.4807 11.6442Z" fill="black"/>
<path d="M52.1266 31.4839C51.539 31.372 51.0353 31.288 50.4896 31.1761C50.5596 30.6444 50.6295 30.1547 50.6995 29.5951C51.2452 29.6511 51.7768 29.721 52.3645 29.791C52.2805 30.3786 52.2106 30.8963 52.1266 31.4839Z" fill="black"/>
<path d="M49.3983 18.5699C49.1884 18.0522 49.0065 17.5905 48.8107 17.0868C49.3144 16.863 49.7901 16.6531 50.3357 16.4012C50.5456 16.9329 50.7555 17.4366 50.9653 17.9823C50.4337 18.1921 49.958 18.374 49.3983 18.5699Z" fill="black"/>
<path d="M4.2762 16.9189C4.06633 17.4365 3.88444 17.8843 3.67457 18.3879C3.17089 18.2061 2.68119 18.0242 2.10754 17.8143C2.31741 17.2826 2.52728 16.7929 2.75115 16.2333C3.28282 16.4711 3.75852 16.681 4.2762 16.9189Z" fill="black"/>
<path d="M0.806381 22.7673C1.39402 22.8653 1.9117 22.9492 2.45736 23.0332C2.3874 23.5648 2.33144 24.0545 2.24749 24.6002C1.68784 24.5442 1.15616 24.5023 0.58252 24.4463C0.652476 23.8866 0.722433 23.355 0.806381 22.7673Z" fill="black"/>
<path d="M40.8496 7.22293C41.1854 6.76122 41.4932 6.34148 41.829 5.87976C42.2767 6.22954 42.6965 6.55135 43.1862 6.92911C42.8224 7.36284 42.4726 7.78258 42.1088 8.21631C41.6751 7.88052 41.2833 7.55872 40.8496 7.22293Z" fill="black"/>
<path d="M35.2251 4.17279C35.435 3.64112 35.6169 3.15142 35.8267 2.61975C36.3584 2.84361 36.8481 3.03949 37.4077 3.27734C37.1699 3.79502 36.946 4.28472 36.7082 4.8024C36.2045 4.57854 35.7428 4.38266 35.2251 4.17279Z" fill="black"/>
<path d="M2.27549 29.4271C2.34545 29.9728 2.4154 30.4765 2.49935 31.0081C1.9397 31.1061 1.43601 31.19 0.862365 31.302C0.778417 30.7423 0.70846 30.2106 0.624512 29.623C1.17017 29.553 1.68785 29.4971 2.27549 29.4271Z" fill="black"/>
<path d="M50.1538 32.7571C50.7135 32.897 51.2032 33.0229 51.7628 33.1628C51.6229 33.7085 51.483 34.2122 51.3291 34.7998C50.7834 34.6319 50.2797 34.478 49.7201 34.2961C49.86 33.7784 49.9999 33.2888 50.1538 32.7571Z" fill="black"/>
<path d="M20.6461 1.5564C20.772 2.14403 20.8979 2.64772 21.0098 3.17939C20.4921 3.31931 20.0164 3.44523 19.4708 3.59913C19.3169 3.06746 19.163 2.56377 18.9811 2.00412C19.5547 1.85022 20.0724 1.7103 20.6461 1.5564Z" fill="black"/>
<path d="M43.2981 9.29368C43.7038 8.87394 44.0536 8.49617 44.4174 8.11841C44.8232 8.51017 45.2009 8.88793 45.6347 9.32166C45.2569 9.67145 44.8511 10.0352 44.4734 10.385C44.0676 10.0212 43.7178 9.68544 43.2981 9.29368Z" fill="black"/>
<path d="M50.5875 23.229C51.1612 23.1451 51.6649 23.0611 52.2385 22.9772C52.3085 23.5508 52.3784 24.0825 52.4484 24.6561C51.8747 24.7121 51.3431 24.7541 50.7834 24.81C50.7134 24.2644 50.6575 23.7747 50.5875 23.229Z" fill="black"/>
<path d="M11.3418 5.75378C11.6916 6.22949 11.9854 6.64923 12.3212 7.11094C11.9015 7.43274 11.4957 7.74055 11.062 8.09034C10.6982 7.65661 10.3624 7.25086 9.99866 6.80313C10.4324 6.45335 10.8661 6.13155 11.3418 5.75378Z" fill="black"/>
<path d="M16.4906 4.71854C16.2527 4.21485 16.0429 3.73915 15.791 3.19348C16.3087 2.98361 16.8124 2.77374 17.372 2.53589C17.5679 3.06756 17.7638 3.57125 17.9597 4.10292C17.442 4.31279 16.9803 4.50867 16.4906 4.71854Z" fill="black"/>
<path d="M30.8458 1.24857C30.7478 1.82221 30.6639 2.33989 30.5799 2.89954C30.0483 2.82959 29.5586 2.75963 28.9989 2.68967C29.0549 2.14401 29.0968 1.61234 29.1668 1.0387C29.7404 1.10865 30.2581 1.17861 30.8458 1.24857Z" fill="black"/>
<path d="M8.69744 7.92249C9.10319 8.35622 9.45298 8.73398 9.83074 9.13973C9.43899 9.47552 9.06122 9.81132 8.6135 10.1891C8.30569 9.89526 7.89994 9.5175 7.50818 9.15372C7.91393 8.73398 8.2777 8.34223 8.69744 7.92249Z" fill="black"/>
<path d="M0.526489 26.2231C1.07215 26.2231 1.57584 26.2231 2.1215 26.2231C2.1215 26.7688 2.1215 27.2725 2.1215 27.8182C1.60382 27.8461 1.08614 27.8601 0.526489 27.8881C0.526489 27.3005 0.526489 26.7548 0.526489 26.2231Z" fill="black"/>
<path d="M48.7546 13.3931C49.0345 13.8828 49.3003 14.3445 49.5941 14.8761C49.0904 15.142 48.6287 15.3798 48.111 15.6597C47.8452 15.1979 47.5934 14.7642 47.3275 14.2745C47.8032 13.9667 48.2509 13.7009 48.7546 13.3931Z" fill="black"/>
</svg>
