<svg width="57" height="58" viewBox="0 0 57 58" fill="none" xmlns="http://www.w3.org/2000/svg">
<path d="M18.2466 41.0417C18.6072 41.4473 18.9678 41.4924 19.4185 41.2671C19.9143 40.9966 20.4552 40.7712 20.9961 40.5909C22.8442 39.9148 24.7824 40.7712 25.5486 42.5742C25.774 43.1151 25.6388 43.4306 25.143 43.656C22.9794 44.5124 20.8609 45.4139 18.6523 46.2252C18.3367 46.3604 17.8409 46.2252 17.5254 46.0449C16.9394 45.7745 16.3986 45.6843 15.7675 45.9999C15.3168 46.2252 14.821 46.3604 14.3251 46.5407C13.2884 46.9013 12.2066 47.2169 11.7559 48.3888C11.6658 48.6592 11.3953 48.8846 11.1699 49.0198C10.4037 49.4255 10.1783 50.1016 9.95293 50.8679C9.41204 52.6258 8.82608 54.3386 8.24012 56.0965C8.14997 56.3669 7.87951 56.6825 7.60907 56.7726C7.11325 56.9078 6.79775 56.3669 6.97804 55.6908C7.51893 54.0681 8.01475 52.4905 8.55564 50.9129C8.64579 50.6876 8.69086 50.4622 8.78101 50.1918C6.25685 50.2368 4.58909 49.11 3.77775 46.676C3.19179 47.2169 2.65092 47.7127 2.11003 48.2085C1.74943 48.524 1.38884 48.7494 0.983169 48.3437C0.532426 47.893 0.847946 47.5324 1.20854 47.2169C1.61421 46.8563 1.97479 46.4957 2.38046 46.1351C3.14672 45.459 3.82285 44.8279 4.13837 43.7912C4.45389 42.7996 5.22014 42.0784 6.21177 41.6276C6.52729 41.4474 6.66251 41.2671 6.57236 40.9515C6.48221 40.5909 6.43715 40.1853 6.43715 39.8247C6.347 38.9232 6.61744 38.1119 7.24848 37.4357C8.91623 35.6778 10.584 33.9199 12.2517 32.1621C12.8828 31.4859 13.649 31.2155 14.5505 31.3056C14.9562 31.3507 15.2266 31.2155 15.452 30.8549C16.7141 29.0519 18.0212 27.294 19.3735 25.5361C19.5988 25.2206 20.0496 24.9051 20.4102 24.8149C22.6188 24.2741 24.8275 23.8233 27.0361 23.3275C27.8024 23.1472 28.0728 23.3726 28.1179 24.1388C28.208 26.6179 27.4868 27.7898 25.143 28.6463C24.9176 28.7364 24.6922 28.8716 24.4218 28.9167C22.4385 29.2322 21.6272 30.7197 20.906 32.4325C21.9878 32.117 23.0245 31.8465 24.0612 31.4859C24.7373 31.2606 25.188 31.3507 25.7289 31.8465C27.1713 33.1988 28.6588 34.5059 30.1462 35.8581C30.7772 36.4441 30.8223 36.8948 30.0561 37.3005C29.1997 37.7963 28.2982 38.202 27.3516 38.5175C26.6755 38.7429 25.9543 38.5175 25.3683 38.0668C24.7373 37.571 24.1063 36.8498 23.4302 36.7596C22.754 36.6695 22.0328 37.3456 21.3117 37.5259C19.9594 37.8865 19.0579 38.6978 18.7424 40.0951C18.5621 40.4106 18.3818 40.7262 18.2466 41.0417ZM14.866 44.9181C13.649 43.9264 13.2884 42.8897 13.7842 41.8079C14.0096 41.3572 14.3702 40.9515 14.7308 40.636C15.4069 40.1402 16.2183 40.1853 17.0296 40.4106C17.3902 39.5993 17.7057 38.833 18.0212 38.0668C18.0663 37.8865 18.0663 37.6611 17.9761 37.4808C17.1197 35.9032 16.2183 34.3707 15.3168 32.7931C15.2266 32.6579 15.0463 32.5226 14.866 32.5226C14.0998 32.4325 13.4687 32.6128 12.9279 33.1988C11.5305 34.7313 10.1332 36.2638 8.6458 37.6611C7.56401 38.6527 7.51893 39.7796 7.87953 40.9966C10.8995 41.267 11.8911 42.1685 12.7926 45.5942C13.5138 45.4139 14.1449 45.1885 14.866 44.9181ZM17.9311 34.6411C19.0579 32.7029 20.0947 30.8549 21.1764 29.0519C21.3567 28.7364 21.7173 28.466 22.0779 28.2857C23.1146 27.8349 24.1964 27.5194 25.2331 27.0687C26.3149 26.6179 26.8558 25.7164 26.7206 24.6346C24.7373 25.0854 22.7991 25.4911 20.8158 25.9869C20.6356 26.032 20.5003 26.1672 20.3651 26.3024C19.103 28.0152 17.8409 29.728 16.5789 31.4409C16.4887 31.5761 16.3986 31.8465 16.4887 31.9817C16.9394 32.8832 17.3902 33.6946 17.9311 34.6411ZM8.24012 48.7945C9.99801 48.7945 11.4404 47.3521 11.4404 45.6393C11.4404 43.8814 9.99801 42.4841 8.24012 42.4841C6.48222 42.4841 5.03985 43.9264 5.03985 45.6393C5.03985 47.3972 6.48222 48.7945 8.24012 48.7945ZM28.7489 36.399C27.4868 35.2722 26.2698 34.1453 25.0078 33.0185C24.9176 32.9283 24.8725 32.8382 24.7824 32.7931C24.6021 32.748 24.3767 32.7029 24.1964 32.748C23.2048 33.0185 22.2582 33.3791 21.2666 33.6044C20.1848 33.8298 19.4636 34.3256 19.0579 35.3173C18.6973 36.0835 18.6523 36.1737 19.3284 36.8498C20.0045 36.5793 20.7257 36.399 21.3117 35.9934C22.8893 35.0017 24.1964 35.182 25.5486 36.4892C26.5403 37.4808 27.577 37.3456 28.7489 36.399ZM24.0161 42.6644C23.2498 41.7178 22.3484 41.4474 21.3567 41.853C20.7257 42.1235 20.0496 42.3939 19.4185 42.7094C18.9678 42.9348 18.6072 42.8897 18.1565 42.6644C17.5705 42.3488 16.9845 42.0333 16.3985 41.7629C15.9478 41.5375 15.5872 41.6276 15.2266 41.9432C14.6407 42.4841 14.7759 43.3855 15.5422 43.7461C16.3535 44.1518 17.2099 44.5124 18.0212 44.873C18.1565 44.9181 18.3367 44.9631 18.4269 44.9181C20.32 44.1518 22.123 43.3855 24.0161 42.6644Z" fill="black" stroke="black" stroke-width="0.5" stroke-miterlimit="10"/>
<path d="M50.2494 22.2907C50.6551 20.7581 51.3762 19.4961 51.4213 17.9635C51.5565 15.3041 51.4213 12.7349 50.8804 10.1206C50.7903 9.57971 50.9706 9.26419 51.5115 9.12897C52.6834 8.76838 53.8553 8.40778 55.0272 8.00211C55.478 7.86689 55.8837 7.91197 56.0189 8.36271C56.1992 8.85853 55.8386 9.0839 55.4329 9.21912C54.3962 9.53464 53.3144 9.89523 52.2326 10.2558C52.3228 10.8418 52.3679 11.3827 52.5031 11.9236C52.9989 14.3576 52.7285 16.7916 52.5933 19.1805C52.5933 19.6764 52.2777 20.1722 52.0974 20.7131C51.7819 21.5244 51.4664 22.3357 51.1959 23.1921C51.0156 23.733 50.61 23.8683 50.0691 23.688C49.2577 23.3724 48.5816 22.9217 48.2661 22.1554C47.9055 21.254 47.6351 20.2623 47.4548 19.3158C47.3196 18.6847 47.4548 18.0086 47.4548 17.3325C47.4548 16.1155 46.9139 14.8083 45.9222 13.8618C45.6067 14.8083 45.2461 15.7098 44.9306 16.6564C44.8856 16.8367 44.9306 17.017 44.9757 17.1973C45.2011 18.0086 45.4715 18.7749 45.6518 19.5862C46.1476 21.7498 44.7954 23.0569 43.3079 23.8683C42.9473 24.0486 42.5867 23.8683 42.4064 23.4626C41.5951 21.4793 40.7838 19.4961 39.9725 17.4677C39.8823 17.2423 39.9274 16.8817 40.0175 16.6113C40.288 15.845 40.5584 15.1239 40.7838 14.2674C39.4766 15.1239 38.1695 15.9803 36.8623 16.8817C36.7271 16.9719 36.637 17.1973 36.5017 17.3325C35.6904 18.6396 34.8791 19.9919 34.0226 21.299C32.8056 23.2372 30.1913 23.6429 28.4334 22.1554C28.0728 21.8399 28.0728 21.5244 28.2982 21.1187C28.749 20.3975 29.1997 19.6763 29.6504 18.9552C31.228 16.431 32.8056 13.9068 34.3832 11.4278C34.5635 11.1122 34.834 10.7967 35.1495 10.5713C37.4934 8.7233 39.7471 6.83018 42.1811 5.11736C44.0291 3.81021 46.0575 2.7735 47.9957 1.60157C48.4915 1.28605 48.9873 1.0156 49.4831 0.700082C49.8888 0.47471 50.2945 0.339486 50.61 0.790229C50.9255 1.28605 50.61 1.60157 50.2043 1.82694C49.393 2.32276 48.5816 2.81857 47.7252 3.26931C44.2996 5.11736 41.2345 7.46122 38.1244 9.85016C36.4566 11.1122 35.1044 12.5997 34.0677 14.4027C32.8507 16.5662 31.4534 18.5946 30.1462 20.7131C30.0561 20.8934 29.9209 21.0737 29.8307 21.254C30.9125 21.9301 32.2197 21.6145 32.8958 20.5328C33.7973 19.1355 34.6086 17.7382 35.5101 16.3409C35.6904 16.0253 35.9608 15.7549 36.2313 15.5746C37.5835 14.6731 38.9357 13.7716 40.288 12.9152C40.5584 12.7349 40.919 12.6448 41.2345 12.6448C42.8121 12.5546 44.4348 12.4194 46.0124 12.3743C46.3279 12.3743 46.7336 12.5546 46.9139 12.78C47.4998 13.5913 48.0407 14.4928 48.5816 15.3492C48.7169 15.5746 48.7619 15.8901 48.7619 16.1155C48.7619 17.1522 48.7169 18.1889 48.7619 19.2707C48.9422 20.4426 49.2577 21.4342 50.2494 22.2907ZM44.5249 14.0871C44.2545 14.0871 44.0742 14.0871 43.8488 14.0871C42.5417 14.1322 42.5868 14.1773 42.0459 15.3492C41.505 16.5212 41.4599 17.6029 42.0909 18.7749C42.6769 19.8567 43.0375 21.0286 43.4882 22.1554C44.4348 21.5244 44.7503 20.8032 44.5249 19.8566C44.2996 19.0002 43.9841 18.1438 43.8038 17.2874C43.7136 16.9268 43.7587 16.4761 43.8488 16.1155C43.9841 15.4394 44.2545 14.8083 44.5249 14.0871Z" fill="black" stroke="black" stroke-width="0.5" stroke-miterlimit="10"/>
<path d="M13.8293 23.9134C12.2968 25.4459 10.8544 26.8883 9.41204 28.3757C9.27682 28.511 9.27683 28.8715 9.36698 29.0969C9.81772 30.4942 9.09653 31.9366 7.69922 32.3873C6.347 32.793 4.90463 31.9817 4.49896 30.6745C4.09329 29.2772 4.90462 27.8348 6.347 27.5193C6.79774 27.4292 7.29356 27.4742 7.69922 27.5644C8.05982 27.6545 8.28518 27.6095 8.51056 27.339C10.0431 25.8065 11.5305 24.274 13.0631 22.7865C13.649 22.2006 13.9195 22.2006 14.5055 22.7865C15.2266 23.5077 15.9027 24.1838 16.6239 24.905C16.9845 25.2656 17.1648 25.6262 16.7592 25.9868C16.3986 26.3474 16.038 26.1671 15.6774 25.8516C15.1365 25.1755 14.5055 24.5895 13.8293 23.9134ZM6.93296 28.6913C6.25684 28.6913 5.71596 29.2772 5.76104 29.9533C5.80611 30.6294 6.347 31.1253 7.02311 31.1253C7.65415 31.0802 8.19506 30.5393 8.19506 29.9083C8.19506 29.2321 7.60907 28.6913 6.93296 28.6913Z" fill="#3030FC" stroke="#3030FC" stroke-width="0.5" stroke-miterlimit="10"/>
<path d="M10.4037 15.0789C11.215 15.1239 11.9813 15.5747 12.432 16.5212C12.6123 16.8818 12.7926 16.972 13.1532 16.972C14.3251 16.972 15.4971 16.9269 16.669 16.972C17.0296 16.972 17.5254 17.1523 17.7959 17.4227C18.8776 18.4594 19.9143 19.5412 20.9961 20.5779C21.3567 20.9385 21.6722 21.2991 21.2215 21.7048C20.7707 22.1555 20.3651 21.84 20.0045 21.4794C19.103 20.5328 18.1564 19.6314 17.255 18.7299C16.9394 18.3693 16.5788 18.2791 16.1281 18.2791C15.1815 18.3242 14.1899 18.3242 13.2433 18.2791C12.7926 18.2791 12.5672 18.3693 12.3869 18.82C11.846 19.9469 10.5389 20.4427 9.36696 20.037C8.19503 19.6314 7.47383 18.4144 7.6992 17.1974C7.8795 15.9353 8.91621 15.0789 10.4037 15.0789ZM8.96128 17.6481C8.96128 18.3242 9.50217 18.8651 10.1783 18.82C10.8093 18.82 11.3502 18.2791 11.3502 17.6481C11.3502 16.972 10.8093 16.4311 10.1332 16.4311C9.50219 16.4311 8.96128 16.972 8.96128 17.6481Z" fill="#3030FC" stroke="#3030FC" stroke-width="0.5" stroke-miterlimit="10"/>
<path d="M47.8153 30.3589C48.5816 28.7813 49.7535 28.1954 51.0606 28.601C52.1424 28.9616 52.8636 29.9533 52.8636 31.0801C52.8185 32.207 52.0072 33.2437 50.9254 33.5141C49.7986 33.7846 48.6266 33.2888 48.1308 32.2521C47.9054 31.8013 47.635 31.7112 47.1843 31.7112C46.0123 31.7563 44.8855 31.7563 43.7135 31.7112C43.398 31.7112 42.9923 31.5309 42.767 31.3055C41.6401 30.2237 40.5583 29.0969 39.4315 28.0151C39.0709 27.6996 38.8906 27.2939 39.2963 26.9333C39.7019 26.5727 40.0625 26.7981 40.378 27.1136C41.3246 28.0602 42.2711 29.0518 43.2177 29.9533C43.4431 30.1786 43.8488 30.3589 44.1643 30.3589C45.4264 30.404 46.5983 30.3589 47.8153 30.3589ZM50.2944 32.2521C50.9705 32.2521 51.5114 31.7112 51.5114 31.0351C51.5114 30.3589 50.9705 29.8181 50.2944 29.8181C49.6633 29.8181 49.1224 30.3589 49.0774 30.99C49.0774 31.6661 49.6183 32.2521 50.2944 32.2521Z" fill="#3030FC" stroke="#3030FC" stroke-width="0.5" stroke-miterlimit="10"/>
<path d="M22.9343 1.87195C24.1513 1.87195 25.0979 2.63821 25.4134 3.76507C25.6839 4.84685 25.188 6.06386 24.1513 6.55967C23.7006 6.78504 23.5654 7.05549 23.5654 7.55131C23.6104 8.67816 23.2949 9.98532 23.7006 10.977C24.1063 11.9235 25.1881 12.6447 25.9994 13.411C26.3149 13.7265 26.6755 14.0871 26.991 14.4026C27.2615 14.7181 27.3516 15.0336 27.0361 15.3492C26.7206 15.7098 26.36 15.6196 26.0445 15.3041C24.8725 14.1321 23.7006 13.0053 22.5737 11.8334C22.3934 11.6531 22.3033 11.2925 22.3033 11.022C22.2582 9.80502 22.2582 8.58802 22.3033 7.37101C22.3033 6.96534 22.2132 6.78504 21.8526 6.60475C20.7257 6.06386 20.2299 4.89192 20.5003 3.71999C20.7708 2.63821 21.7624 1.87195 22.9343 1.87195ZM22.9343 5.61311C23.5654 5.61311 24.1513 5.02715 24.1513 4.39611C24.1513 3.71999 23.5654 3.1791 22.9343 3.1791C22.3033 3.1791 21.7624 3.71999 21.7624 4.35103C21.7624 5.02715 22.3033 5.61311 22.9343 5.61311Z" fill="#3030FC" stroke="#3030FC" stroke-width="0.5" stroke-miterlimit="10"/>
<path d="M38.1694 39.464C38.1694 39.8246 38.1694 40.1401 38.1694 40.5007C38.1244 41.267 38.1694 41.853 39.0258 42.3037C40.0175 42.7995 40.2879 44.1067 39.8823 45.1885C39.4766 46.2252 38.4399 46.9013 37.4032 46.8562C36.2312 46.7661 35.2847 45.9547 35.0593 44.8729C34.8339 43.8362 35.2847 42.6643 36.2763 42.1685C36.7721 41.9431 36.9073 41.6727 36.8623 41.1318C36.8172 40.1852 36.8623 39.1936 36.8172 38.247C36.8172 37.9315 36.6369 37.5258 36.4115 37.3005C35.465 36.3088 34.5184 35.3623 33.5268 34.4157C33.2112 34.1002 32.9408 33.7396 33.3465 33.3339C33.7521 32.9282 34.1127 33.1536 34.4282 33.4691C35.51 34.5509 36.6369 35.6778 37.7187 36.8046C37.9441 37.03 38.0793 37.4357 38.0793 37.7512C38.2145 38.2921 38.1694 38.8781 38.1694 39.464ZM37.4933 43.07C36.8623 43.07 36.2763 43.701 36.3214 44.332C36.3664 45.0082 36.9073 45.504 37.5834 45.504C38.2145 45.4589 38.7103 44.9631 38.7103 44.287C38.7103 43.5658 38.1244 43.0249 37.4933 43.07Z" fill="#3030FC" stroke="#3030FC" stroke-width="0.5" stroke-miterlimit="10"/>
<path d="M29.0644 46.2702C29.1095 46.9914 29.2898 47.7126 29.1997 48.3436C28.9743 49.6959 27.5319 50.5072 26.1797 50.1917C24.8275 49.8762 24.0161 48.5239 24.2866 47.2168C24.6021 45.8195 25.9543 44.918 27.3065 45.2786C27.7573 45.4138 27.9376 45.2786 28.208 44.9631C29.6053 43.115 31.0026 41.3121 32.3999 39.464C32.6704 39.0584 33.031 38.833 33.4817 39.1485C33.9325 39.5091 33.7522 39.9148 33.4367 40.2754C33.3916 40.3204 33.3916 40.3204 33.3465 40.3655C31.9943 42.1685 30.642 43.9264 29.2898 45.7293C29.1546 45.9096 29.0194 46.0899 28.8841 46.3153C28.9292 46.2702 28.9743 46.2702 29.0644 46.2702ZM27.9376 47.7577C27.9376 47.0816 27.4418 46.5407 26.7656 46.5407C26.0895 46.5407 25.5487 47.0816 25.5487 47.7577C25.5487 48.3887 26.0895 48.9296 26.7206 48.9296C27.3967 48.9747 27.9376 48.4789 27.9376 47.7577Z" fill="#3030FC" stroke="#3030FC" stroke-width="0.5" stroke-miterlimit="10"/>
<path d="M29.2447 9.76006C29.6053 10.0756 29.9659 10.301 30.2364 10.6165C30.5519 10.932 30.642 11.2926 30.2814 11.6081C29.9659 11.9236 29.6053 11.8335 29.2898 11.518C28.8841 11.1123 28.4785 10.7066 28.0728 10.301C27.6221 9.80513 27.6221 9.53469 28.0728 9.03887C29.2447 7.86694 30.4167 6.69501 31.5886 5.52308C31.859 5.25263 31.9041 5.07234 31.814 4.71174C31.4083 3.58488 31.9041 2.36788 32.8958 1.78191C33.9325 1.15087 35.2396 1.33117 36.051 2.23266C36.8623 3.08907 36.9524 4.39622 36.3214 5.34278C35.6903 6.33441 34.4283 6.78516 33.3465 6.33441C32.9408 6.15412 32.7155 6.24427 32.445 6.51471C31.4534 7.59649 30.4166 8.58813 29.2447 9.76006ZM35.465 3.94548C35.465 3.26936 34.9241 2.72847 34.248 2.72847C33.6169 2.72847 33.076 3.22429 33.076 3.9004C33.076 4.57652 33.5719 5.11741 34.248 5.11741C34.879 5.16248 35.465 4.62159 35.465 3.94548Z" fill="#3030FC" stroke="#3030FC" stroke-width="0.5" stroke-miterlimit="10"/>
<path d="M16.4437 8.09238C16.3986 8.36282 16.4437 8.63327 16.3535 8.81356C15.993 9.39953 16.2634 9.76012 16.7141 10.1658C17.3903 10.7518 17.9762 11.4279 18.6073 12.0589C18.9679 12.3744 19.1481 12.7801 18.7425 13.1407C18.3819 13.5013 18.0213 13.321 17.7058 13.0055C16.9846 12.2843 16.2634 11.6082 15.5873 10.887C15.2718 10.5715 15.0464 10.4813 14.5956 10.6165C13.2434 11.0222 11.8912 10.2109 11.4855 8.85864C11.1249 7.55148 11.8461 6.15418 13.1533 5.74851C14.5055 5.34284 15.9028 6.01896 16.3085 7.37119C16.3986 7.59656 16.3986 7.867 16.4437 8.09238ZM15.1365 8.18252C15.1365 7.50641 14.5957 6.96552 13.9646 6.92045C13.3336 6.92045 12.7927 7.46134 12.7476 8.09238C12.7025 8.76849 13.2434 9.30938 13.9195 9.35445C14.5506 9.35445 15.0915 8.85864 15.1365 8.18252Z" fill="#3030FC" stroke="#3030FC" stroke-width="0.5" stroke-miterlimit="10"/>
<path d="M49.0774 40.7711C49.0323 41.6275 48.5365 42.4389 47.5449 42.8445C46.5983 43.2502 45.6518 43.115 44.8404 42.3938C44.0291 41.6726 43.7586 40.7261 44.1192 39.7344C44.2995 39.2386 44.2094 38.9682 43.8488 38.6526C43.1276 37.9765 42.4966 37.3004 41.8205 36.6243C41.5049 36.3088 41.3246 35.9482 41.6852 35.5876C42.0909 35.1819 42.4515 35.3622 42.767 35.7228C43.4882 36.444 44.2094 37.1652 44.9306 37.8864C45.201 38.1568 45.3813 38.247 45.787 38.1117C47.4547 37.5709 49.0774 38.7879 49.0774 40.7711ZM47.7703 40.5007C47.7703 39.8246 47.1843 39.2837 46.5082 39.3288C45.8321 39.3288 45.2912 39.9147 45.3362 40.5908C45.3813 41.2219 45.9222 41.7628 46.5533 41.7628C47.2294 41.7177 47.7703 41.1317 47.7703 40.5007Z" fill="#3030FC" stroke="#3030FC" stroke-width="0.5" stroke-miterlimit="10"/>
<path d="M36.2763 29.3673C36.5467 29.5476 36.727 29.5927 36.8622 29.7279C37.9891 30.8548 39.1159 31.9816 40.2428 33.1085C40.5583 33.424 40.6935 33.8297 40.333 34.1452C39.9724 34.4607 39.6118 34.3706 39.3413 34.055C38.2145 32.9282 37.0425 31.7562 35.9157 30.5843C35.7354 30.404 35.6903 30.0434 35.7354 29.8181C35.7804 29.6828 36.0509 29.5476 36.2763 29.3673Z" fill="#3030FC" stroke="#3030FC" stroke-width="0.5" stroke-miterlimit="10"/>
<path d="M24.9176 18.5945C24.7373 18.8199 24.6021 19.0903 24.4218 19.1354C24.1964 19.1805 23.8358 19.1354 23.6555 19.0002C22.9794 18.4142 22.3934 17.7381 21.7624 17.1071C21.2215 16.5662 20.7257 16.0704 20.1848 15.5295C19.8693 15.2139 19.7791 14.8534 20.0946 14.5378C20.4102 14.1772 20.7708 14.2674 21.0863 14.5829C22.2131 15.7098 23.3851 16.8817 24.5119 18.0086C24.6922 18.1438 24.7824 18.3241 24.9176 18.5945Z" fill="#3030FC" stroke="#3030FC" stroke-width="0.5" stroke-miterlimit="10"/>
<path d="M14.8661 44.9181C14.1449 45.1886 13.5139 45.414 12.8828 45.6844C11.9813 42.2588 10.9897 41.3573 7.96975 41.0868C7.56408 39.8247 7.6542 38.743 8.73599 37.7513C10.2234 36.354 11.6207 34.7764 13.018 33.289C13.5589 32.703 14.19 32.4776 14.9563 32.6129C15.0915 32.6129 15.3169 32.7481 15.407 32.8833C16.3085 34.4158 17.1649 35.9934 18.0664 37.571C18.1565 37.7063 18.1565 37.9767 18.1115 38.157C17.7959 38.9233 17.4804 39.6895 17.1198 40.5009C16.3085 40.2755 15.4971 40.1853 14.821 40.7262C14.4153 41.0417 14.0548 41.4474 13.8745 41.8982C13.2885 42.8898 13.6491 43.9265 14.8661 44.9181Z" fill="white" stroke="black" stroke-width="0.5" stroke-miterlimit="10"/>
<path d="M17.9227 34.7987C17.3818 33.8521 16.886 33.0408 16.4803 32.1844C16.3902 32.0492 16.4803 31.7787 16.5705 31.6435C17.8326 29.9307 19.0947 28.2178 20.3567 26.505C20.4469 26.3698 20.6272 26.2346 20.8075 26.1895C22.7907 25.7388 24.7289 25.288 26.7122 24.8373C26.8925 25.874 26.3065 26.8206 25.2248 27.2713C24.188 27.677 23.1063 28.0376 22.0696 28.4883C21.709 28.6235 21.3934 28.939 21.1681 29.2546C20.0863 31.0125 19.0496 32.8605 17.9227 34.7987Z" fill="white" stroke="black" stroke-width="0.5" stroke-miterlimit="10"/>
<path d="M8.24012 48.7943C6.48222 48.7943 5.03986 47.397 5.03986 45.6391C5.03986 43.8812 6.48222 42.4839 8.24012 42.4839C9.99802 42.4839 11.4404 43.8812 11.4404 45.6391C11.3953 47.397 9.99802 48.7943 8.24012 48.7943ZM8.46549 44.8277C8.37534 44.8277 8.28519 44.8278 8.14996 44.7827C7.87952 45.0531 7.51894 45.3236 7.42879 45.6391C7.33864 46.0448 7.65414 46.3152 8.05981 46.3152C8.51055 46.3152 8.96131 46.18 8.91623 45.594C8.96131 45.3236 8.64579 45.0982 8.46549 44.8277Z" fill="white" stroke="black" stroke-width="0.5" stroke-miterlimit="10"/>
<path d="M28.7489 36.3991C27.5319 37.3456 26.5403 37.4358 25.5036 36.4892C24.1514 35.2271 22.8442 35.0018 21.2666 35.9934C20.6807 36.354 19.9595 36.5794 19.2833 36.8498C18.6072 36.1737 18.6523 36.1286 19.0129 35.3173C19.4637 34.3256 20.1848 33.7847 21.2215 33.6044C22.2132 33.4242 23.1597 33.0185 24.1514 32.748C24.3317 32.703 24.557 32.748 24.7373 32.7931C24.8275 32.7931 24.9176 32.9283 24.9627 33.0185C26.2698 34.1453 27.5319 35.2722 28.7489 36.3991Z" fill="white" stroke="black" stroke-width="0.5" stroke-miterlimit="10"/>
<path d="M24.0161 42.6643C22.123 43.4305 20.32 44.1517 18.472 44.8729C18.3367 44.918 18.1564 44.8729 18.0663 44.8278C17.2099 44.4673 16.3985 44.1067 15.5872 43.701C14.8209 43.3404 14.7308 42.4389 15.2717 41.898C15.6323 41.5825 15.9929 41.4924 16.4436 41.7177C17.0296 42.0332 17.6155 42.3037 18.2015 42.6192C18.6072 42.8897 19.0129 42.8897 19.4636 42.6643C20.0946 42.3488 20.7257 42.0783 21.4018 41.8079C22.3484 41.4473 23.2949 41.7177 24.0161 42.6643Z" fill="white" stroke="black" stroke-width="0.5" stroke-miterlimit="10"/>
<path d="M44.3821 14.1057C44.1117 14.8269 43.8863 15.4579 43.706 16.1341C43.6158 16.4946 43.5708 16.9454 43.6609 17.306C43.8412 18.1624 44.1567 19.0188 44.3821 19.8752C44.6075 20.8669 44.292 21.588 43.3454 22.174C42.8947 21.0472 42.489 19.8752 41.9481 18.7934C41.317 17.6215 41.3621 16.5397 41.903 15.3678C42.489 14.1508 42.3988 14.1508 43.706 14.1057C43.8863 14.1057 44.1117 14.1057 44.3821 14.1057Z" fill="white" stroke="black" stroke-width="0.5" stroke-miterlimit="10"/>
<path d="M6.93297 28.6913C7.56401 28.6913 8.14999 29.2322 8.19507 29.9083C8.19507 30.5393 7.69924 31.0802 7.02312 31.1253C6.34701 31.1704 5.80612 30.6295 5.76105 29.9534C5.76105 29.2772 6.25685 28.7364 6.93297 28.6913Z" fill="white" stroke="#3030FC" stroke-width="0.5" stroke-miterlimit="10"/>
<path d="M8.9613 17.6482C8.9613 16.972 9.50221 16.4312 10.1333 16.4312C10.8094 16.4312 11.3503 17.0171 11.3503 17.6482C11.3503 18.2792 10.8094 18.8201 10.1783 18.8201C9.5022 18.8201 8.9613 18.3243 8.9613 17.6482Z" fill="white" stroke="#3030FC" stroke-width="0.5" stroke-miterlimit="10"/>
<path d="M50.2944 32.252C49.6183 32.252 49.0774 31.666 49.1225 30.9899C49.1676 30.3589 49.7085 29.818 50.3395 29.818C51.0156 29.818 51.5565 30.3589 51.5565 31.035C51.5114 31.7111 50.9705 32.252 50.2944 32.252Z" fill="white" stroke="#3030FC" stroke-width="0.5" stroke-miterlimit="10"/>
<path d="M22.9343 5.61318C22.2582 5.61318 21.7173 5.02721 21.7624 4.39617C21.7624 3.76513 22.3033 3.22424 22.9343 3.22424C23.6104 3.22424 24.1513 3.76514 24.1513 4.44125C24.1964 5.02722 23.6104 5.61318 22.9343 5.61318Z" fill="white" stroke="#3030FC" stroke-width="0.5" stroke-miterlimit="10"/>
<path d="M37.4934 43.0699C38.1695 43.0699 38.7103 43.6108 38.7103 44.287C38.7103 44.9631 38.2145 45.4589 37.5835 45.504C36.9074 45.549 36.3214 45.0081 36.3214 44.332C36.2763 43.6559 36.8172 43.0699 37.4934 43.0699Z" fill="white" stroke="#3030FC" stroke-width="0.5" stroke-miterlimit="10"/>
<path d="M27.9376 47.7575C27.9376 48.4336 27.3967 48.9295 26.7206 48.9295C26.0896 48.9295 25.5487 48.3886 25.5487 47.7575C25.5487 47.0814 26.0896 46.5405 26.7657 46.5405C27.4418 46.5405 27.9827 47.0814 27.9376 47.7575Z" fill="white" stroke="#3030FC" stroke-width="0.5" stroke-miterlimit="10"/>
<path d="M35.465 3.9454C35.465 4.62151 34.879 5.16241 34.248 5.11733C33.5719 5.11733 33.031 4.57644 33.0761 3.90032C33.0761 3.26928 33.617 2.72839 34.248 2.72839C34.9241 2.72839 35.465 3.31436 35.465 3.9454Z" fill="white" stroke="#3030FC" stroke-width="0.5" stroke-miterlimit="10"/>
<path d="M15.1365 8.18249C15.1365 8.8586 14.5506 9.35442 13.8744 9.35442C13.1983 9.35442 12.6574 8.76845 12.7025 8.09234C12.7476 7.4613 13.2885 6.92041 13.9195 6.92041C14.5956 6.96548 15.1365 7.50637 15.1365 8.18249Z" fill="white" stroke="#3030FC" stroke-width="0.5" stroke-miterlimit="10"/>
<path d="M47.7703 40.5008C47.7703 41.1319 47.2294 41.7178 46.5533 41.7178C45.9222 41.7178 45.3813 41.1769 45.3362 40.5459C45.2912 39.8698 45.8321 39.2838 46.5082 39.2838C47.1843 39.2838 47.7703 39.8247 47.7703 40.5008Z" fill="white" stroke="#3030FC" stroke-width="0.5" stroke-miterlimit="10"/>
<path d="M8.46551 44.8279C8.64581 45.0984 8.91624 45.3237 8.96132 45.5942C9.00639 46.1351 8.55566 46.2703 8.10492 46.3154C7.69925 46.3154 7.33865 46.0449 7.47387 45.6392C7.56402 45.3237 7.92463 45.0533 8.19507 44.7828C8.28522 44.8279 8.37536 44.8279 8.46551 44.8279Z" fill="black" stroke="black" stroke-width="0.5" stroke-miterlimit="10"/>
</svg>
