<svg width="57" height="57" viewBox="0 0 57 57" fill="none" xmlns="http://www.w3.org/2000/svg">
<path d="M7.73603 33.7098C6.7219 30.8017 5.72268 27.983 4.73837 25.1792C4.60415 24.7765 4.46992 24.3589 4.26113 24.001C3.70933 23.0465 2.72502 22.5991 1.77054 22.8228C0.875719 23.0316 0.115122 23.9264 0.159863 24.9853C0.204605 26.2231 0.338829 27.4759 0.622189 28.6839C1.24857 31.2938 1.96442 33.9037 2.71011 36.4838C3.44088 39.0191 4.90242 41.107 6.87103 42.8519C8.19835 44.0301 9.54059 45.1636 10.853 46.3567C12.1356 47.505 13.3287 48.7279 14.0744 50.3983C13.0006 51.0097 12.9558 52.0388 12.9857 53.1126C13.0155 54.0074 12.9857 54.9022 13.0006 55.797C13.0006 56.5129 13.269 56.7813 13.97 56.7813C17.7133 56.7813 21.4566 56.7813 25.2 56.7813C25.9009 56.7813 26.1694 56.5129 26.1843 55.797C26.1992 54.6636 26.1843 53.5302 26.1843 52.3967C26.1843 51.6212 25.9308 50.9501 25.2596 50.5325C24.9315 50.3237 24.8868 50.1 24.9166 49.757C25.0658 47.8182 25.0807 45.8943 24.6929 43.9854C24.2306 41.6588 22.948 40.0034 20.7855 39.0191C19.4582 38.4226 18.1309 37.8708 16.8036 37.2593C14.999 36.4241 13.3883 35.2907 11.9566 33.9186C10.5398 32.5167 9.46602 32.4571 7.73603 33.7098ZM23.3209 50.1C20.8004 50.1 18.3397 50.1 15.8938 50.0851C15.7894 50.0851 15.6254 49.9509 15.5806 49.8465C14.7007 47.848 13.2392 46.3417 11.6285 44.9249C10.3758 43.8213 9.09318 42.7326 7.85534 41.6141C6.31923 40.242 5.11122 38.6314 4.42519 36.6627C3.23209 33.2475 2.32235 29.7726 1.75563 26.2082C1.68106 25.7608 1.68106 25.2687 1.77054 24.8213C1.87494 24.2545 2.39692 24.1352 2.75485 24.5826C2.96364 24.8362 3.09786 25.1643 3.18735 25.4775C4.24622 28.9225 5.5288 32.2781 6.99034 35.589C8.37732 38.7656 10.8679 40.7938 13.8506 42.33C14.0296 42.4194 14.2235 42.494 14.4323 42.5387C14.835 42.6133 15.1332 42.4493 15.2973 42.0913C15.4762 41.7185 15.3569 41.4053 15.0437 41.1518C14.9394 41.0772 14.8051 41.0474 14.7007 40.9877C12.7172 40.0482 11.0021 38.7507 9.63007 37.0505C9.28706 36.6329 9.06335 36.096 8.86947 35.589C8.70542 35.1863 8.88439 34.7538 9.27214 34.6047C9.60024 34.4853 10.0029 34.545 10.3758 34.5897C10.4951 34.6047 10.5995 34.7687 10.7039 34.8731C12.5233 36.6777 14.6262 38.0497 16.9825 39.0639C18.1458 39.5709 19.3091 40.0631 20.4425 40.6C21.9041 41.3009 22.7541 42.494 23.1121 44.045C23.5446 45.9987 23.47 47.9972 23.3209 50.1ZM24.6184 55.1557C21.2329 55.1557 17.9221 55.1557 14.5665 55.1557C14.5665 54.1565 14.5665 53.1871 14.5665 52.2327C14.5665 51.8449 14.835 51.6809 15.1929 51.6659C15.6552 51.651 16.1175 51.6659 16.5948 51.6659C18.9959 51.6659 21.397 51.6659 23.7981 51.6659C24.2455 51.6659 24.5885 51.7703 24.6034 52.2923C24.6333 53.2319 24.6184 54.1714 24.6184 55.1557Z" fill="black"/>
<path d="M48.9873 33.6054C48.361 33.3071 47.9136 33.0088 47.4363 32.8895C46.5713 32.6807 45.7511 32.8895 45.1247 33.5308C43.0069 35.6933 40.4567 37.125 37.6678 38.2137C37.0862 38.4374 36.5046 38.7208 35.9378 38.9743C33.5964 40.0332 32.2542 41.8676 31.9708 44.3731C31.7769 46.1329 31.8366 47.9225 31.8067 49.7122C31.8067 50.0403 31.7918 50.2789 31.4637 50.4877C30.8075 50.8904 30.5391 51.5466 30.5391 52.2923C30.5242 53.4704 30.5242 54.6337 30.5391 55.8119C30.554 56.483 30.8374 56.7515 31.5234 56.7515C35.2667 56.7515 39.0101 56.7515 42.7534 56.7515C43.4544 56.7515 43.7079 56.483 43.7228 55.7672C43.7228 54.7381 43.693 53.724 43.7377 52.6949C43.7675 51.7404 43.5438 50.9202 42.5894 50.3236C43.0368 49.6525 43.3798 48.9218 43.9167 48.3849C45.3484 46.9531 46.8398 45.5811 48.3311 44.209C48.9128 43.6572 49.5242 43.1502 50.1208 42.6133C52.0446 40.8684 53.3421 38.7357 54.1177 36.2749C55.1318 33.0536 56.0415 29.7875 56.5188 26.4319C56.6232 25.7459 56.5933 25.0151 56.4442 24.344C56.2801 23.5386 55.7283 22.9719 54.8633 22.8079C53.9834 22.6438 53.2527 22.957 52.7456 23.643C52.4175 24.0904 52.1938 24.6422 52.0148 25.1791C50.9559 27.9829 49.9716 30.8016 48.9873 33.6054ZM33.3727 50.0701C33.2235 48.2208 33.1937 46.4163 33.4771 44.6266C33.7903 42.6133 34.8044 41.1517 36.6984 40.3315C37.3994 40.0332 38.1003 39.72 38.8013 39.4366C41.5156 38.333 44.0062 36.8715 46.0792 34.7686C46.1388 34.709 46.2134 34.6344 46.288 34.5748C46.6608 34.3212 47.0635 34.2914 47.4363 34.5449C47.8092 34.7985 48.003 35.1713 47.8241 35.6038C47.6451 36.0512 47.4661 36.5136 47.1679 36.8864C45.7958 38.676 44.036 40.0034 42.0077 40.9578C41.4112 41.2412 41.1875 41.614 41.3813 42.0614C41.5752 42.5089 42.0375 42.6729 42.6192 42.3896C45.4677 41.0175 47.9136 39.1831 49.3304 36.2749C51.0305 32.8 52.3429 29.1611 53.4764 25.4625C53.5658 25.1791 53.6553 24.8809 53.8343 24.6572C53.9834 24.4782 54.2817 24.2992 54.4756 24.344C54.6545 24.3887 54.8932 24.687 54.923 24.8958C54.9826 25.373 54.9677 25.8652 54.8932 26.3424C54.3861 29.5638 53.536 32.6956 52.5666 35.7977C51.8359 38.1093 50.5831 40.063 48.7636 41.6588C47.6898 42.5983 46.6011 43.5379 45.5274 44.4924C43.7675 46.0285 42.0972 47.6392 41.1129 49.8166C41.0532 49.9657 40.7401 50.0701 40.5313 50.0701C38.3091 50.085 36.1019 50.085 33.8798 50.085C33.7306 50.0999 33.5815 50.085 33.3727 50.0701ZM42.1121 55.1557C38.7267 55.1557 35.4159 55.1557 32.1199 55.1557C32.105 55.0662 32.0752 55.0215 32.0752 54.9618C32.0752 54.1416 32.0603 53.3213 32.0752 52.501C32.0752 51.815 32.2542 51.651 32.9402 51.651C34.3719 51.651 35.8036 51.651 37.2502 51.651C38.6074 51.651 39.9645 51.651 41.3366 51.651C41.7393 51.651 42.1121 51.7255 42.127 52.2326C42.127 53.1871 42.1121 54.1565 42.1121 55.1557Z" fill="black"/>
<path d="M28.3318 6.05976C27.437 5.20968 26.5422 4.28503 25.5579 3.47969C23.4252 1.73479 20.9943 0.571517 18.1905 0.496949C14.1042 0.377639 10.8828 2.12254 8.55626 5.40356C5.60335 9.56448 5.23051 14.1579 6.82628 18.9154C7.393 20.6006 8.34747 22.1666 9.15281 23.7773C9.42126 24.3141 9.8985 24.4335 10.3161 24.1799C10.7337 23.9264 10.8082 23.4939 10.4801 22.9719C9.18264 20.884 8.15359 18.6917 7.73601 16.2607C7.09472 12.5174 7.73601 9.01268 10.0924 5.97028C13.4181 1.66022 18.8915 0.839964 23.4849 3.91219C25.0359 4.94123 26.3483 6.22381 27.5116 7.67044C28.138 8.46087 28.5555 8.46087 29.1968 7.67044C30.6435 5.86588 32.2989 4.29994 34.3868 3.24107C39.1741 0.82505 44.4536 2.30151 47.2573 6.89493C49.6734 10.862 49.7479 15.0229 48.1074 19.2584C47.6451 20.4664 46.9591 21.5849 46.3625 22.7482C46.2879 22.8824 46.1985 23.0017 46.1239 23.121C45.8704 23.5834 45.9449 24.0159 46.3178 24.2545C46.7055 24.508 47.1977 24.4185 47.4512 23.9264C48.2118 22.5096 49.0619 21.1077 49.6286 19.6014C51.3586 15.0527 51.2691 10.5339 48.704 6.29838C46.4222 2.49539 43.0368 0.407466 38.4881 0.511862C35.744 0.571517 33.3578 1.69005 31.2549 3.39021C30.211 4.22538 29.2714 5.17985 28.3318 6.05976Z" fill="black"/>
<path d="M39.6743 16.895C41.1359 15.2097 40.6139 13.3902 39.7041 12.4954C38.6154 11.4216 36.8854 11.3023 35.6625 12.227C34.2457 13.3157 34.1413 14.807 35.3046 16.8502C34.7379 17.1485 34.1712 17.4319 33.5448 17.745C32.8886 16.6414 31.8894 15.9554 30.562 15.7168C32.0981 13.778 32.1429 11.9138 30.7112 10.5715C29.4137 9.34862 27.4152 9.3188 26.0879 10.497C24.5816 11.8243 24.5965 13.6438 26.1028 15.687C24.343 16.2835 24.1939 16.3879 23.135 17.7301C22.5683 17.4319 21.9867 17.1485 21.3603 16.8204C22.106 15.9852 22.4341 14.9711 22.106 13.8078C21.9121 13.092 21.4945 12.5402 20.883 12.1226C19.6899 11.3023 18.0643 11.4515 17.0353 12.4507C15.8422 13.6139 15.8273 15.1053 16.9756 16.8651C16.7967 16.9248 16.6326 16.9994 16.4686 17.059C15.0816 17.581 14.1719 18.8188 14.1271 20.2804C14.1122 20.8769 14.1122 21.4735 14.1271 22.07C14.142 22.5622 14.3956 22.8455 14.8877 22.8604C15.3799 22.8754 15.6483 22.5622 15.6781 22.0998C15.708 21.548 15.6782 20.9813 15.6931 20.4295C15.7229 19.2215 16.5431 18.4162 17.7512 18.4012C18.6758 18.3863 19.6154 18.3863 20.54 18.4012C21.7182 18.4162 22.5534 19.1917 22.6279 20.3549C22.6727 21.0261 22.9411 21.3392 23.4482 21.3094C23.9254 21.2796 24.179 20.9515 24.1939 20.3251C24.1939 19.9672 24.179 19.6093 24.2237 19.2662C24.4027 18.1328 25.3571 17.2976 26.5055 17.2678C27.6986 17.238 28.8917 17.238 30.0848 17.2678C31.3972 17.2976 32.3815 18.2968 32.4561 19.6242C32.471 19.9374 32.4561 20.2505 32.471 20.5786C32.5008 21.0261 32.7394 21.3094 33.2018 21.3392C33.6492 21.3691 33.9624 21.0857 34.022 20.6085C34.0518 20.3997 34.022 20.1909 34.0668 19.997C34.2457 19.0873 35.0361 18.4311 35.9757 18.4162C37.0048 18.4012 38.0189 18.3863 39.0479 18.4162C40.1068 18.446 40.942 19.2812 40.9718 20.3549C40.9867 20.8918 40.9718 21.4287 40.9867 21.9805C41.0016 22.5323 41.2999 22.8754 41.7622 22.8903C42.2246 22.8903 42.5377 22.5473 42.5527 21.9955C42.5676 21.4436 42.5676 20.8769 42.5527 20.3251C42.5228 18.8785 41.5982 17.5959 40.2261 17.0739C40.077 17.0292 39.898 16.9695 39.6743 16.895ZM28.3846 14.8965C27.3556 14.9114 26.5353 14.121 26.5055 13.092C26.4757 12.0778 27.3407 11.1979 28.3697 11.1979C29.3839 11.1979 30.2041 12.0182 30.219 13.0323C30.2041 14.0763 29.4137 14.8816 28.3846 14.8965ZM36.0503 14.6579C36.0652 13.8227 36.7065 13.1814 37.5566 13.1964C38.3917 13.2113 39.033 13.8526 39.0181 14.7026C39.0032 15.5229 38.3321 16.194 37.5118 16.1791C36.6916 16.1493 36.0503 15.4782 36.0503 14.6579ZM17.6766 14.6579C17.6915 13.8376 18.3626 13.1814 19.1829 13.1964C20.018 13.1964 20.6593 13.8526 20.6593 14.6877C20.6593 15.508 19.9733 16.1791 19.153 16.1642C18.3477 16.1493 17.6766 15.4632 17.6766 14.6579Z" fill="#3030FC"/>
<path d="M28.2872 22.6886C22.6498 22.5544 17.1615 23.4492 11.8224 25.2388C10.8679 25.552 10.7188 26.0591 11.375 26.8495C14.3279 30.399 17.8326 33.337 21.6207 35.9469C23.6043 37.304 25.6623 38.527 27.6906 39.8245C28.0933 40.078 28.4661 40.1376 28.8837 39.899C34.014 36.8864 38.9206 33.5309 43.1114 29.2655C43.9018 28.4602 44.6475 27.5952 45.3932 26.7451C45.9301 26.1337 45.766 25.552 44.9756 25.2985C40.755 23.8817 36.43 22.9869 31.9708 22.7333C30.7479 22.6289 29.525 22.6886 28.2872 22.6886ZM43.5737 26.4469C43.3202 26.7302 43.1412 26.939 42.9622 27.1329C38.8013 31.6368 33.85 35.1117 28.6003 38.1989C28.4512 38.2883 28.138 38.2436 27.9591 38.1541C26.9449 37.5576 25.9457 36.961 24.9614 36.3197C20.7856 33.6203 16.8483 30.6376 13.5077 26.939C13.3734 26.8048 13.2691 26.6407 13.105 26.4469C23.2911 23.3448 33.3727 23.3597 43.5737 26.4469Z" fill="#3030FC"/>
</svg>
