<svg width="26" height="26" viewBox="0 0 26 26" fill="none" xmlns="http://www.w3.org/2000/svg">
<path d="M25.0775 0.52686L24.4898 4.81762C22.9615 4.70006 21.8448 5.01354 21.1394 5.75806C20.4341 6.50257 20.0031 7.50179 19.8463 8.75571C19.6896 10.0096 19.6504 11.3615 19.7288 12.8114H25.0775V25.2134H15.0266V10.4603C15.0266 6.85524 15.9278 4.15147 17.7304 2.34896C19.572 0.546454 22.0211 -0.0609138 25.0775 0.52686ZM10.1481 0.52686L9.56028 4.81762C8.03207 4.70006 6.91529 5.01354 6.20996 5.75806C5.50463 6.50257 5.0736 7.50179 4.91686 8.75571C4.76012 10.0096 4.72093 11.3615 4.7993 12.8114H10.1481V25.2134H0.0971069V10.4603C0.0971069 6.85524 0.998362 4.15147 2.80087 2.34896C4.64257 0.546454 7.09163 -0.0609138 10.1481 0.52686Z" fill="#3030FC"/>
</svg>
