<svg width="50" height="50" viewBox="0 0 50 50" fill="none" xmlns="http://www.w3.org/2000/svg">
<path d="M19.3477 24.3172C18.4992 24.0275 17.6506 23.7998 16.8228 23.4687C8.60633 20.1573 3.53573 14.1139 1.4868 5.52495C1.23844 4.44874 1.11426 3.35184 1.13496 2.23423C1.15565 1.13733 1.4661 0.806183 2.5837 0.82688C6.30904 0.888969 9.78603 1.94449 13.0561 3.70368C17.8783 6.31142 21.4795 10.0988 23.7561 15.1281C24.3769 16.494 24.0251 17.177 22.4522 17.3633C19.4926 17.7151 16.6158 17.4667 13.9046 16.0387C10.8415 14.4244 8.75121 11.9615 7.19898 8.93985C6.90923 8.36035 6.82645 7.78086 7.50943 7.42902C8.19241 7.07718 8.60634 7.49111 8.93748 8.04991C9.99299 9.91258 11.0899 11.7546 12.8698 13.0584C15.1878 14.7555 17.7334 15.7283 20.6723 15.5627C21.5622 15.5213 21.6657 15.2522 21.2725 14.5072C18.6027 9.56074 14.5876 6.16654 9.35141 4.17969C7.63361 3.51741 5.87442 3.10348 4.03244 2.89651C3.32877 2.81373 3.08041 2.95861 3.20459 3.70368C4.57055 11.8994 8.95817 17.7979 16.5744 21.2335C18.6441 22.1648 20.8172 22.6615 23.0524 22.9306C23.7975 23.0134 24.0665 22.8064 24.17 22.0199C25.5566 11.3406 33.7731 2.81373 44.3282 1.11663C45.6114 0.90967 46.9153 0.764791 48.2398 0.82688C49.4195 0.888969 49.7507 1.24081 49.6886 2.4412C49.5437 5.44217 48.7572 8.27756 47.4741 10.9888C44.3696 17.5288 39.299 21.7923 32.4485 24.0275C32.1174 24.131 31.8069 24.2551 31.4137 24.4C31.6621 24.7933 32.0346 24.7726 32.3243 24.876C41.8861 28.1254 47.681 34.6447 49.5023 44.6203C49.6058 45.1998 49.6058 45.7793 49.6679 46.3795C49.7714 47.7455 49.4402 48.118 48.0536 48.0973C42.6932 48.0766 37.9124 46.3588 33.6282 43.1923C30.1305 40.6053 27.6263 37.2525 25.8671 33.2994C25.7636 33.0718 25.6601 32.8441 25.6187 32.6165C25.5152 32.0991 25.6187 31.623 26.1568 31.4161C26.6949 31.2091 27.1089 31.4782 27.3572 31.9335C27.7712 32.72 28.123 33.5685 28.5576 34.3343C32.6141 41.5159 38.7609 45.4482 46.9774 46.0898C47.4948 46.1312 47.6603 45.9863 47.5776 45.4689C46.7704 39.6946 44.2454 34.8517 39.775 31.0849C36.0497 27.9598 31.7241 26.242 26.8605 25.8281C25.8671 25.7453 25.7636 26.2627 25.6808 26.9664C25.0599 31.5196 23.28 35.576 20.3826 39.1358C16.3882 44.0202 11.2348 46.8763 5.00517 47.8697C4.19802 47.9939 3.37016 48.0766 2.5423 48.0973C1.4454 48.118 1.11426 47.7869 1.11426 46.69C1.11426 43.9995 1.75585 41.4124 2.83206 38.9702C5.62606 32.5751 10.2 27.9598 16.7607 25.4555C17.5885 25.1451 18.4371 24.876 19.2857 24.607C19.327 24.4828 19.327 24.4 19.3477 24.3172ZM27.0054 22.9927C27.1503 22.9927 27.1917 22.972 27.2123 22.972C37.7468 22.2062 46.2323 13.9691 47.5982 3.62089C47.7017 2.85512 47.3292 2.68955 46.7083 2.79303C45.6114 2.9586 44.5352 3.06209 43.4383 3.28975C34.4561 5.19381 27.3572 12.7687 26.074 21.813C25.9913 22.6822 26.1982 23.1168 27.0054 22.9927ZM23.694 26.8629C23.7975 26.0971 23.4249 25.8281 22.7419 25.9522C21.6657 26.1385 20.5481 26.2627 19.5133 26.5938C10.3862 29.4085 5.00517 35.5553 3.22529 44.9308C3.03902 45.9449 3.28738 46.1105 4.23941 45.9863C10.5725 45.1171 15.6638 42.1575 19.534 37.0869C21.8313 34.0445 23.1766 30.6296 23.694 26.8629Z" fill="#2D21DB"/>
<path d="M47.7429 25.4762C47.805 22.2062 47.2255 19.3501 46.1699 16.5975C45.9216 15.9352 45.6939 15.2936 46.5218 14.9211C47.3496 14.5693 47.7015 15.1695 47.9705 15.811C50.2885 21.5646 50.4541 27.3803 48.3845 33.2581C48.3224 33.4236 48.2603 33.5892 48.1775 33.7341C47.9084 34.2515 47.4738 34.5205 46.8943 34.3136C46.2734 34.1066 46.2113 33.5892 46.3769 33.0304C46.7081 31.9335 47.0806 30.878 47.3082 29.7604C47.598 28.2702 47.8257 26.7387 47.7429 25.4762Z" fill="#2D21DB"/>
<path d="M0.927734 25.0416C0.969127 21.9785 1.50723 19.0189 2.64553 16.1835C2.76971 15.8938 2.87319 15.604 3.03876 15.3557C3.32851 14.8797 3.74244 14.6934 4.25985 14.9417C4.77726 15.1901 4.92213 15.6247 4.73586 16.1421C4.28054 17.3632 3.84592 18.605 3.55617 19.8882C2.60414 24.1102 2.74901 28.2702 4.09427 32.4095C4.32193 33.0924 4.83935 33.9824 3.76314 34.3342C2.70762 34.6654 2.43857 33.734 2.19021 32.989C1.34166 30.4019 0.948431 27.7528 0.927734 25.0416Z" fill="#2D21DB"/>
<path d="M25.3907 49.0908C22.2448 49.0701 19.6164 48.6355 17.0501 47.7869C16.8224 47.7041 16.5947 47.642 16.3671 47.5385C15.8083 47.2902 15.3737 46.9177 15.6013 46.2761C15.8497 45.5931 16.3878 45.4896 17.0501 45.7173C18.4367 46.214 19.8648 46.6279 21.3342 46.8142C25.3907 47.3316 29.3644 47.0832 33.1932 45.531C33.3795 45.4482 33.5657 45.3861 33.7727 45.3033C34.2901 45.1171 34.7454 45.1999 35.0145 45.7173C35.3042 46.2761 35.0559 46.7314 34.5385 47.0211C33.0483 47.849 31.4133 48.2836 29.7576 48.5941C28.1847 48.8838 26.5704 49.1736 25.3907 49.0908Z" fill="#2D21DB"/>
<path d="M24.4597 0.226685C27.8953 0.247381 30.7721 0.847574 33.5868 1.86169C33.9179 1.98587 34.2284 2.13075 34.5181 2.29632C35.0355 2.58607 35.2839 3.02069 35.0355 3.57949C34.7665 4.15899 34.2905 4.22108 33.7317 4.01412C32.3243 3.47601 30.8963 2.9793 29.4061 2.66886C25.4324 1.82031 21.5415 2.13075 17.7127 3.37253C16.4502 3.78646 15.6844 3.66228 15.581 2.9793C15.4361 1.8824 16.3674 1.75822 17.0918 1.50986C19.6374 0.66131 22.2452 0.288774 24.4597 0.226685Z" fill="#2D21DB"/>
</svg>
