<svg width="53" height="49" viewBox="0 0 53 49" fill="none" xmlns="http://www.w3.org/2000/svg">
<path d="M36.7982 48.7745C33.1007 48.8405 30.1295 48.0702 27.3784 46.5956C26.6521 46.2214 26.1019 46.1994 25.3536 46.5956C18.0687 50.4031 9.06707 49.1926 3.08068 43.5804C2.33238 42.8761 1.67212 42.0838 1.03386 41.2915C0.35159 40.4331 0.461634 39.7949 1.40801 39.2006C3.873 37.572 6.6241 36.7136 9.55127 36.4495C15.7357 35.8773 21.0179 37.8581 25.4196 42.1718C26.0799 42.8101 26.388 43.0082 27.2023 42.2158C30.5917 38.8925 34.6413 36.8237 39.4612 36.4055C43.6209 36.0314 47.4504 36.9777 51.0378 39.0466C52.3804 39.8169 52.4904 40.3671 51.522 41.5556C47.7805 46.1334 42.2123 48.7745 36.7982 48.7745ZM11.488 38.4083C9.00105 38.4083 6.60209 38.9145 4.33518 39.8829C3.1247 40.4111 3.08068 40.6972 4.00505 41.6436C9.00105 46.7497 17.1883 48.2022 23.7029 45.121C24.7153 44.6368 24.7593 44.4387 23.989 43.6464C20.5557 40.169 16.352 38.4964 11.488 38.4083ZM36.0499 46.7497C41.1119 46.6396 45.2936 45.011 48.7269 41.5776C49.5412 40.7633 49.5192 40.5212 48.4848 40.015C46.6801 39.1126 44.7653 38.6944 42.7845 38.5184C37.3484 38.0122 32.7045 39.7949 28.7429 43.4924C27.7525 44.4167 27.8626 44.7028 29.0951 45.2311C31.406 46.2215 33.805 46.6616 36.0499 46.7497Z" fill="#2D21DB"/>
<path d="M29.6893 9.99494C29.6013 13.6704 28.941 16.9277 27.5325 19.9869C27.0263 21.0874 27.2463 21.7917 28.0827 22.584C31.1859 25.5332 34.7734 27.668 38.6689 29.3847C41.8602 30.7933 45.2055 31.7837 48.5509 32.752C49.2551 32.9501 49.9814 33.2142 49.7173 34.1386C49.4752 34.9529 48.793 34.9309 48.0887 34.7548C41.7501 33.0382 35.6537 30.8153 30.2395 26.9857C26.6961 24.4767 23.769 21.4395 22.3824 17.2358C20.4676 11.4695 21.6561 6.09938 24.8034 1.08137C25.4196 0.0909765 26.1679 0.0689691 26.9162 0.993339C27.9066 2.20382 28.5229 3.6344 28.941 5.10899C29.4032 6.78166 29.6233 8.52035 29.6893 9.99494ZM23.5048 12.1518C23.4608 14.0886 24.0331 16.3335 25.1115 18.4463C25.2215 18.6664 25.2656 18.9965 25.5957 18.9305C25.8378 18.8865 25.8598 18.6004 25.9478 18.4023C26.6961 16.5536 27.1803 14.6608 27.4004 12.68C27.7305 9.88489 27.4884 7.1338 26.5421 4.47073C26.41 4.09658 26.344 3.54636 25.9258 3.50234C25.4416 3.43631 25.3976 4.03056 25.2435 4.36069C24.2531 6.71563 23.4828 9.11458 23.5048 12.1518Z" fill="#2D21DB"/>
<path d="M3.49885 34.887C2.92662 34.887 2.31037 34.7329 2.26635 33.9846C2.22234 33.2143 2.81657 32.9502 3.49885 32.8842C6.84418 32.532 10.1895 32.0698 13.4028 30.9474C17.1663 29.6489 20.4236 27.6681 22.8886 24.4768C23.3288 23.9266 23.835 23.5744 24.4732 24.1027C25.0895 24.6089 24.8474 25.2251 24.4512 25.7753C22.5585 28.4384 19.9834 30.2651 17.0563 31.6517C12.7866 33.6985 8.20873 34.4908 3.49885 34.887Z" fill="#2D21DB"/>
</svg>
