<svg width="49" height="47" viewBox="0 0 49 47" fill="none" xmlns="http://www.w3.org/2000/svg">
<path d="M20.8363 36.0956C20.8757 32.5473 21.6643 29.1173 23.0244 25.8647C23.5961 24.4848 23.4975 23.5386 22.5119 22.4347C19.7324 19.2806 16.3024 17.1122 12.4584 15.5549C9.20577 14.2342 5.83488 13.2485 2.36543 12.6177C2.10916 12.5783 1.8529 12.5192 1.59663 12.4206C1.06439 12.2235 0.610992 11.9278 0.768695 11.2772C0.906684 10.6267 1.45864 10.5282 2.0106 10.5873C2.50342 10.6267 2.97653 10.7647 3.44963 10.8633C9.14663 12.1446 14.6662 13.899 19.5156 17.2896C24.0495 20.4437 27.1247 24.6031 28.0512 30.1227C28.8003 34.6172 28.2089 39.0131 26.5727 43.2711C26.2376 44.1188 25.8828 44.9861 25.4688 45.7943C24.976 46.7603 24.3255 46.8194 23.6552 45.952C22.1571 44.0399 21.4671 41.7926 21.0729 39.4271C20.9152 38.3232 20.7772 37.2193 20.8363 36.0956ZM26.3756 33.9272C26.5333 31.6603 26.1982 29.3933 25.2914 27.2446C25.2126 27.0475 25.1928 26.7124 24.9169 26.7124C24.5817 26.6926 24.5817 27.0672 24.4832 27.284C23.675 29.3736 23.0639 31.5223 22.9062 33.7695C22.6696 36.7659 22.6696 39.7425 23.9115 42.5812C24.0101 42.8177 24.0692 43.1725 24.3452 43.1923C24.7197 43.2317 24.7394 42.798 24.8183 42.5417C25.8039 39.7622 26.5727 36.963 26.3756 33.9272Z" fill="#2D21DB"/>
<path d="M24.4043 13.8794C20.8166 13.8794 17.8794 10.9422 17.8794 7.39389C17.8794 3.82588 20.8363 0.849243 24.3846 0.849243C27.8935 0.849243 30.9293 3.88502 30.9293 7.39389C30.9293 10.9422 27.9921 13.8794 24.4043 13.8794ZM28.958 7.39389C28.9777 4.77209 27.0656 2.84023 24.4635 2.82052C21.9599 2.82052 19.831 4.85094 19.7718 7.29533C19.7127 9.75943 21.9402 12.0264 24.3649 12.0264C26.9473 12.0264 28.9383 10.0157 28.958 7.39389Z" fill="#2D21DB"/>
<path d="M46.936 10.5282C47.3303 10.5282 48.0005 10.6268 48.0203 11.4547C48.04 12.2629 47.3894 12.4206 46.7192 12.4798C43.0329 12.7952 39.4452 13.4654 35.9757 14.8059C33.1962 15.8901 30.811 17.4868 28.7609 19.6355C28.544 19.8721 28.3075 20.1086 28.0709 20.3452C27.6569 20.7591 27.1838 20.7788 26.7502 20.3846C26.3362 20.01 26.3756 19.5961 26.6713 19.1427C27.5978 17.8416 28.8003 16.8166 30.0619 15.8901C33.1568 13.6034 36.6854 12.3023 40.3914 11.4547C42.5007 11.0013 44.5902 10.745 46.936 10.5282Z" fill="#2D21DB"/>
</svg>
