<svg width="55" height="84" viewBox="0 0 55 84" fill="none" xmlns="http://www.w3.org/2000/svg">
<path d="M0.74623 9.71459C1.072 8.40861 1.32695 7.10264 1.85101 5.84838C2.65835 3.9476 3.79146 2.22785 5.1087 0.572754C5.1087 0.934807 5.1087 0.934806 4.89624 1.37444C3.66398 3.92174 3.28156 6.54663 4.17389 9.24909C4.76877 11.0594 5.91604 12.5851 7.3041 13.9558C9.89609 16.4901 13.0263 18.3521 16.2698 20.0977C20.2215 22.2183 24.3149 24.0803 28.3658 26.0328C33.139 28.3474 37.8556 30.7395 42.1755 33.7394C45.9148 36.3255 49.215 39.2607 51.5803 43.0105C52.6568 44.7174 53.4783 46.5276 54.0165 48.4284C54.0873 48.6741 54.1865 48.9197 54.2715 49.1654C54.2715 49.2559 54.2715 49.3335 54.2715 49.424C53.5066 48.6482 52.7276 47.8595 51.9486 47.0836C48.5634 43.6829 44.6117 41.0322 39.8243 39.4805C38.0539 38.9116 36.2267 38.6012 34.3854 38.3685C34.2438 38.3556 34.0596 38.3168 33.9747 38.3814C33.8047 38.5107 34.003 38.653 34.0596 38.7693C36.0284 42.2218 36.7225 45.9328 36.5383 49.7732C36.425 52.217 35.9718 54.6092 35.2636 56.9625C35.2211 57.1177 35.1928 57.2987 34.9945 57.4151C34.952 57.3763 34.867 57.3504 34.8528 57.3116C33.6631 54.3247 31.7509 51.7645 29.4564 49.4111C29.1306 49.0749 29.074 48.7775 29.2014 48.3637C30.2071 45.2734 29.3006 42.5062 27.431 39.9072C25.8304 37.6961 23.5359 36.1057 21.3688 34.4247C16.9355 30.9723 12.219 27.8302 8.08311 24.0674C6.02935 22.2054 4.17389 20.2141 2.74334 17.8996C1.80852 16.3867 1.15698 14.7704 0.859539 13.0506C0.817047 12.8438 0.746231 12.6369 0.689575 12.43C0.746231 11.5249 0.74623 10.6197 0.74623 9.71459Z" fill="white"/>
<path d="M30.3913 78.3367C30.5187 77.3152 30.6745 76.3066 30.7737 75.2851C31.1278 71.8973 30.7595 68.5742 29.3856 65.3933C29.0882 64.708 29.0599 64.1908 29.5414 63.5055C30.8587 61.6564 30.5329 59.7298 29.4423 57.8678C28.2667 55.8636 26.4395 54.3378 24.6691 52.7991C20.859 49.4889 16.7515 46.4631 13.1255 42.9848C10.6327 40.6056 8.4231 38.0325 7.0917 34.9292C5.74613 31.8 5.70364 28.632 6.83675 25.4511C6.99255 24.9986 7.20501 24.921 7.54495 25.3218C9.42874 27.52 11.5958 29.4596 13.862 31.3216C14.117 31.5284 14.3294 31.7224 14.1736 32.0974C13.0264 34.8128 13.8904 37.2437 15.505 39.5583C16.7515 41.3427 18.4086 42.765 20.1366 44.1486C23.0685 46.489 25.9863 48.8423 28.6349 51.4414C31.3686 54.118 33.7906 56.9885 35.1645 60.4927C36.7367 64.514 36.3259 68.4578 34.513 72.324C33.4932 74.4834 32.1334 76.5006 30.3913 78.3367Z" fill="white"/>
<path d="M27.1902 83.8578C27.7001 81.595 27.8842 79.3192 27.7851 77.0305C27.6434 73.6686 26.5812 70.5524 24.8248 67.6171C22.8419 64.294 20.1508 61.4752 17.3605 58.7081C14.8393 56.2125 12.1482 53.8333 10.1086 50.9627C9.01796 49.4369 8.25311 47.8077 8.12563 45.9716C8.04065 44.6656 8.33809 43.3984 8.91881 42.1959C9.07461 41.8597 9.2729 41.8209 9.52785 42.1183C11.1 43.9544 12.8139 45.6612 14.6552 47.2775C14.8535 47.4586 14.9526 47.6655 14.8535 47.9111C14.4427 48.9585 14.8251 49.9154 15.335 50.8205C16.2699 52.4627 17.6296 53.8204 19.0885 55.0875C21.9921 57.609 24.5699 60.3632 26.5103 63.5958C28.4508 66.8284 29.3573 70.2938 29.3148 73.9531C29.2723 77.2891 28.5358 80.5347 27.2893 83.6768C27.2752 83.7544 27.2327 83.8061 27.1902 83.8578Z" fill="white"/>
<path d="M23.3801 6.3396C25.4197 6.35253 26.8361 7.30938 27.8559 8.83518C29.8671 11.8221 29.2298 16.2443 26.4395 18.6494C24.1449 20.6148 20.7456 20.3304 18.8901 18.0158C16.2981 14.7832 16.9355 9.89548 20.3065 7.32232C21.0855 6.72751 22.2611 6.35253 23.3801 6.3396Z" fill="white"/>
</svg>
