<svg width="33" height="33" viewBox="0 0 33 33" fill="none" xmlns="http://www.w3.org/2000/svg">
<path fill-rule="evenodd" clip-rule="evenodd" d="M0.173889 16.5601C0.173889 7.7235 7.33733 0.560059 16.1739 0.560059C25.0104 0.560059 32.1739 7.7235 32.1739 16.5601C32.1739 25.3966 25.0104 32.5601 16.1739 32.5601C7.33733 32.5601 0.173889 25.3966 0.173889 16.5601ZM16.1739 8.56006C20.5739 8.56006 24.1739 12.1601 24.1739 16.5601C24.1739 20.5601 21.2739 23.9601 17.2739 24.5601V18.8601H19.1739L19.5739 16.5601H17.3739V15.0601C17.3739 14.4601 17.6739 13.8601 18.6739 13.8601H19.6739V11.8601C19.6739 11.8601 18.7739 11.6601 17.8739 11.6601C16.0739 11.6601 14.8739 12.7601 14.8739 14.7601V16.5601H12.8739V18.8601H14.8739V24.4601C11.0739 23.8601 8.17389 20.5601 8.17389 16.5601C8.17389 12.1601 11.7739 8.56006 16.1739 8.56006Z" fill="white"/>
</svg>
