<svg width="33" height="33" viewBox="0 0 33 33" fill="none" xmlns="http://www.w3.org/2000/svg">
<path fill-rule="evenodd" clip-rule="evenodd" d="M0.173828 16.5601C0.173828 7.7235 7.33727 0.560059 16.1738 0.560059C25.0104 0.560059 32.1738 7.7235 32.1738 16.5601C32.1738 25.3966 25.0104 32.5601 16.1738 32.5601C7.33727 32.5601 0.173828 25.3966 0.173828 16.5601ZM8.37383 13.8601V24.5601H11.7738V13.8601H8.37383ZM8.17383 10.4601C8.17383 11.5601 8.97383 12.3601 10.0738 12.3601C11.1738 12.3601 11.9738 11.5601 11.9738 10.4601C11.9738 9.36006 11.1738 8.56006 10.0738 8.56006C9.07383 8.56006 8.17383 9.36006 8.17383 10.4601ZM20.7738 24.5601H23.9738V17.9601C23.9738 14.6601 21.9738 13.5601 20.0738 13.5601C18.3738 13.5601 17.1738 14.6601 16.8738 15.3601V13.8601H13.6738V24.5601H17.0738V18.8601C17.0738 17.3601 18.0738 16.5601 19.0738 16.5601C20.0738 16.5601 20.7738 17.0601 20.7738 18.7601V24.5601Z" fill="white"/>
</svg>
