<svg width="33" height="33" viewBox="0 0 33 33" fill="none" xmlns="http://www.w3.org/2000/svg">
<path fill-rule="evenodd" clip-rule="evenodd" d="M0.173889 16.5601C0.173889 7.7235 7.33733 0.560059 16.1739 0.560059C25.0104 0.560059 32.1739 7.7235 32.1739 16.5601C32.1739 25.3966 25.0104 32.5601 16.1739 32.5601C7.33733 32.5601 0.173889 25.3966 0.173889 16.5601ZM22.2739 12.0601C22.9739 11.9601 23.5739 11.8601 24.1739 11.5601C23.7739 12.2601 23.1739 12.8601 22.4739 13.2601C22.6739 17.9601 19.2739 23.0601 13.1739 23.0601C11.3739 23.0601 9.67389 22.4601 8.17389 21.5601C9.87389 21.7601 11.6739 21.2601 12.8739 20.3601C11.3739 20.3601 10.1739 19.3601 9.77389 18.0601C10.2739 18.1601 10.7739 18.0601 11.2739 17.9601C9.77389 17.5601 8.67389 16.1601 8.67389 14.6601C9.17389 14.8601 9.67389 15.0601 10.1739 15.0601C8.77389 14.0601 8.27389 12.1601 9.17389 10.6601C10.8739 12.6601 13.2739 13.9601 15.9739 14.0601C15.4739 12.0601 17.0739 10.0601 19.1739 10.0601C20.0739 10.0601 20.9739 10.4601 21.5739 11.0601C22.3739 10.8601 23.0739 10.6601 23.6739 10.2601C23.4739 11.0601 22.9739 11.6601 22.2739 12.0601Z" fill="white"/>
</svg>
