<svg width="110" height="96" viewBox="0 0 110 96" fill="none" xmlns="http://www.w3.org/2000/svg">
<path d="M0.668274 85.205C1.2177 84.5182 1.90451 84.2435 2.79734 84.3122C4.44562 84.3809 6.09388 84.3122 7.87953 84.3122C7.87953 83.8315 7.94823 83.4881 7.94823 83.1447C7.94823 80.6036 7.94823 78.0625 7.94823 75.5214C8.01691 70.8512 10.0772 67.2799 14.2666 65.1509C17.2198 63.64 20.3104 62.1977 23.4009 60.8928C24.7745 60.2747 24.7745 59.1072 25.2552 58.077C25.3239 57.9396 25.0492 57.5962 24.8431 57.4589C21.3405 54.7117 19.1428 51.1405 18.0439 46.8824C17.9066 46.4703 17.5632 46.0582 17.2198 45.7835C14.4727 44.1352 13.5799 40.6326 15.2281 37.8168C15.5715 37.2674 15.7089 36.5806 15.7776 35.9625C15.9149 34.1082 15.8463 32.2538 16.1897 30.4682C16.9451 26.4848 19.0742 23.257 22.3707 20.9219C28.4144 16.5264 35.0763 14.8095 42.4935 16.0457C42.7683 16.1144 43.043 16.1831 43.3177 16.2517C46.1335 17.1446 48.2626 18.5868 48.3312 21.8834C48.8807 22.0207 49.4301 22.0894 49.9108 22.2268C52.3146 22.9136 54.0315 25.0426 54.0315 27.515C54.1002 30.3308 54.0315 33.1467 54.1002 36.0312C54.1002 36.5806 54.3063 37.13 54.581 37.5421C56.504 40.3579 55.6798 44.0666 52.7266 45.8522C52.3832 46.0582 52.0399 46.4703 51.9712 46.8824C50.8723 51.1405 48.6059 54.7117 45.172 57.4589C44.966 57.6649 44.7599 58.1457 44.8286 58.4891C45.1033 59.794 45.7901 60.6181 47.1637 61.1675C50.0482 62.3351 52.7953 63.7773 55.6111 65.1509C57.3281 65.975 58.839 67.2113 59.9379 68.7909C60.556 69.6837 60.556 70.5078 59.8692 71.0572C59.1824 71.6067 58.2209 71.4693 57.6028 70.5765C55.8172 68.1041 53.0014 67.2112 50.2542 65.769C50.2542 67.2112 50.2542 68.4475 50.2542 69.6837C50.2542 69.9584 50.5976 70.2331 50.8723 70.3705C52.864 71.1946 53.9629 72.7055 54.1689 74.7659C54.3063 76.0021 54.2376 77.2383 54.2376 78.4745C54.2376 79.3674 53.6882 79.9168 52.7953 79.9855C51.9712 80.0541 51.3531 79.3674 51.3531 78.4059C51.3531 77.4444 51.3531 76.4142 51.3531 75.4527C51.2844 73.8731 50.3916 72.9802 48.8806 72.9802C47.3697 72.9802 46.4769 73.8044 46.4769 75.4527C46.4082 76.4142 46.4769 77.3757 46.4769 78.3372C46.4082 79.3674 45.8588 80.0541 44.966 80.0541C44.1418 80.0541 43.5237 79.3674 43.5237 78.3372C43.5237 77.5817 43.5237 76.7576 43.5237 76.0021C43.4551 73.1863 44.6226 71.1946 47.4384 70.2331C47.4384 68.5161 47.4384 66.7992 47.4384 65.0822C47.4384 64.8075 47.1637 64.5328 46.889 64.3268C46.5456 64.1207 46.2022 64.052 45.8588 63.846C45.2407 63.5026 44.8286 63.5713 44.2792 64.1207C41.8067 66.7305 39.2656 69.2716 36.7245 71.8814C35.557 73.1176 34.8702 73.1176 33.7027 71.8814C31.1616 69.2716 28.6205 66.7305 26.1481 64.1207C25.6673 63.64 25.2552 63.4339 24.6371 63.7773C22.9888 64.5328 22.9888 64.4641 22.9888 66.2497C22.9888 67.692 22.9888 69.0656 22.9888 70.5078C22.9888 71.1259 23.1262 71.4693 23.6756 71.744C25.4612 72.8429 26.2167 74.8346 25.5986 76.7576C24.9805 78.6806 23.2635 79.9168 21.2719 79.8481C19.2802 79.7794 17.6319 78.3372 17.1511 76.3455C16.8077 74.5599 17.5632 72.7055 19.2802 71.744C19.8296 71.4006 20.0357 71.1259 19.967 70.5078C19.8983 69.0656 19.967 67.692 19.967 66.2497C19.967 66.1811 19.8983 66.1124 19.8296 65.975C16.3957 67.6233 12.6183 68.9282 11.5195 73.255C11.3821 73.667 11.3135 74.1478 11.2448 74.6285C11.2448 77.8564 11.2448 81.153 11.2448 84.5182C11.7255 84.5182 12.1376 84.5182 12.6184 84.5182C25.5299 84.5182 38.5102 84.5182 51.4218 84.5182C53.0014 84.5182 53.7568 84.999 53.7568 86.0292C53.7568 87.0594 53.0014 87.4714 51.3531 87.4714C36.0377 87.4714 20.7224 87.4714 5.40711 87.4714C4.92636 87.4714 4.51427 87.4714 3.96484 87.4714C3.96484 88.9824 3.96484 90.4246 3.96484 92.0042C4.44559 92.0042 4.92634 92.0042 5.33841 92.0042C20.5164 92.0042 35.6944 92.0042 50.8723 92.0042C51.3531 92.0042 51.9025 91.9355 52.2459 92.1416C52.7267 92.485 53.2074 93.0344 53.2761 93.5838C53.3448 94.2706 52.864 94.82 52.1086 94.9574C51.7652 95.0261 51.4904 95.0261 51.147 95.0261C35.1449 95.0261 19.1428 95.0261 3.20939 95.0261C2.31657 95.0261 1.5611 94.8887 1.01167 94.1333C0.668274 91.0427 0.668274 88.0895 0.668274 85.205ZM34.8702 57.871C35.4883 57.8023 36.1751 57.8023 36.7932 57.7336C42.9743 56.7034 47.7131 52.0333 49.018 45.6462C49.2927 44.41 49.6361 43.5171 51.0097 43.1737C52.3146 42.8303 52.864 41.0447 52.2459 39.6711C51.6278 38.2976 50.3916 37.8855 49.018 38.641C47.7818 39.2591 46.889 38.9157 46.5456 37.5421C46.1335 35.9625 45.7901 34.3142 45.3781 32.7346C44.8286 30.5369 44.0045 29.9188 41.7381 30.2622C36.9306 31.0863 32.1231 31.4984 27.3156 31.5671C25.1865 31.5671 23.6069 33.2153 23.4009 35.2757C23.3322 35.9625 23.4009 36.6493 23.3322 37.2674C23.2635 38.7783 22.2334 39.3277 20.9285 38.641C19.4862 37.8855 18.25 38.2289 17.6319 39.6025C16.9451 40.976 17.4945 42.7617 18.8681 43.1737C20.173 43.5171 20.6537 44.2726 20.7911 45.5088C20.8598 45.9896 20.9971 46.4016 21.1345 46.8137C22.9888 53.4069 28.5518 57.871 34.8702 57.871ZM51.0097 35.2757C51.0097 32.9406 51.0097 30.8116 51.0097 28.6139C51.0097 28.2018 51.0097 27.8584 51.0097 27.4463C50.8723 26.0728 49.8422 25.0426 48.4686 24.9052C48.0565 24.9052 47.6444 24.9052 47.1637 24.9052C45.7214 24.9052 45.2407 24.4245 45.2407 22.9822C45.2407 22.6388 45.2407 22.2955 45.2407 21.9521C45.3094 20.9219 44.8286 20.1664 43.9358 19.7543C43.3177 19.4796 42.6996 19.2049 42.0815 19.0676C39.3343 18.3808 36.5185 18.5181 33.7714 19.0676C29.2386 19.9604 25.1179 21.746 21.9586 25.2486C19.4175 28.1331 18.456 31.4984 18.7307 35.2757C19.2802 35.2757 19.7609 35.2757 20.2417 35.2757C20.3104 35.001 20.3104 34.795 20.379 34.5889C20.8598 31.2923 23.6069 28.6826 26.9722 28.6139C31.917 28.5452 36.7246 28.0644 41.6007 27.309C45.1033 26.7596 47.3697 28.4765 48.1939 31.9104C48.4686 33.078 48.7433 34.1768 49.018 35.3444C49.7735 35.2757 50.3229 35.2757 51.0097 35.2757ZM41.8068 59.3132C37.2053 61.3049 32.6038 61.3049 27.7277 59.1759C27.659 60.0687 27.3156 61.0989 27.659 61.3736C30.0627 63.846 32.6725 66.1124 34.9389 68.3101C36.9306 66.4558 39.1283 64.3954 41.3947 62.2664C42.6309 61.0989 42.6309 61.0989 41.8068 59.3132ZM21.4779 73.9418C20.5851 73.8731 19.8296 74.4225 19.8296 75.178C19.8296 76.0021 20.2417 76.4829 21.0658 76.6202C21.8213 76.7576 22.5768 76.1395 22.5768 75.3153C22.5768 74.5599 22.1647 74.0791 21.4779 73.9418Z" fill="black"/>
<path d="M97.0243 41.4569C101.076 42.4871 102.931 44.2728 102.931 47.2946C102.931 50.3165 101.145 52.1708 97.1617 53.201C97.0243 54.2312 96.9556 55.33 96.7496 56.2915C96.1315 59.1073 94.6206 61.4424 92.2855 63.1594C91.5987 63.6401 91.324 64.1896 91.324 65.0824C91.3927 67.2801 91.3927 67.2801 93.3843 68.1729C96.6122 69.6152 99.8401 71.0574 102.931 72.7057C107.257 74.9034 109.386 78.4747 109.318 83.3509C109.318 86.5788 109.318 89.8067 109.318 93.0346C109.318 94.4768 108.837 94.9576 107.395 94.9576C90.7059 94.9576 74.017 94.9576 57.3281 94.9576C55.8172 94.9576 55.4051 94.5455 55.4051 92.9659C55.4051 89.6693 55.4051 86.3727 55.4051 83.0762C55.4051 78.406 57.4654 74.9721 61.5862 72.8431C65.1574 70.9887 68.7974 69.4091 72.4374 67.7608C73.1242 67.4175 73.3989 67.0741 73.4676 66.3186C73.6049 64.739 73.1242 63.6401 71.8193 62.61C69.2095 60.5496 67.8359 57.5964 67.7672 54.2312C67.7672 53.4757 67.5612 53.1323 66.7371 53.0636C63.9899 52.7889 61.8609 50.3165 61.8609 47.5007C61.8609 44.6848 63.8525 42.2124 66.5997 41.8003C67.5612 41.663 67.8359 41.3196 67.7672 40.4268C67.5612 36.7868 68.3853 33.4902 70.9264 30.7431C73.1928 28.3393 76.0774 26.9658 79.3739 26.9658C82.3271 26.9658 85.2803 26.8284 88.0961 27.3778C93.3157 28.408 96.9556 33.2842 97.0243 38.5724C97.093 39.4653 97.0243 40.4268 97.0243 41.4569ZM73.8109 70.0959C69.8963 72.0189 65.9816 73.8046 62.2729 75.7962C59.7318 77.1698 58.4956 79.6422 58.427 82.5954C58.3583 85.4112 58.427 88.2271 58.427 91.1116C58.427 91.3176 58.4956 91.5923 58.4956 91.7984C61.3801 91.7984 64.1959 91.7984 67.0805 91.7984C67.0805 91.3863 67.0805 90.9742 67.0805 90.6308C67.0805 87.7463 67.0805 84.8618 67.0805 81.9086C67.0805 80.8098 67.6299 80.1917 68.5227 80.1917C69.4155 80.1917 70.0336 80.8785 70.0336 81.9773C70.0336 84.0377 70.0336 86.098 70.0336 88.1584C70.0336 89.3946 70.0336 90.6308 70.0336 91.867C78.2751 91.867 86.4478 91.867 94.6893 91.867C94.6893 91.3863 94.6893 91.0429 94.6893 90.6308C94.6893 87.7463 94.6893 84.9305 94.6893 82.046C94.6893 80.8785 95.2387 80.1917 96.1315 80.1917C97.0243 80.1917 97.6424 80.8785 97.6424 81.9773C97.6424 84.4497 97.6424 86.9222 97.6424 89.3946C97.6424 90.2188 97.6424 90.9742 97.6424 91.7984C100.596 91.7984 103.48 91.7984 106.296 91.7984C106.296 88.5018 106.433 85.2739 106.227 82.1147C106.09 79.5736 104.922 77.3072 102.656 76.071C98.8099 73.9419 94.8266 72.1563 90.8432 70.1646C89.6757 72.7744 87.684 73.1178 85.3489 73.0491C83.1512 72.9804 80.8849 72.9117 78.6871 73.0491C76.5581 73.0491 74.9098 72.3623 73.8109 70.0959ZM70.6517 46.1958C70.6517 48.8742 70.583 51.484 70.7204 54.1625C70.9264 58.764 74.6351 62.4039 79.2366 62.5413C81.3656 62.61 83.5633 62.61 85.6923 62.5413C90.2938 62.4039 94.0712 58.5579 94.1398 53.9564C94.2085 48.8056 94.2085 43.7233 94.1398 38.5724C94.0712 34.3144 91.0493 30.6744 86.8599 30.0563C84.6622 29.7129 82.3958 29.8503 80.198 29.8503C74.5664 29.8503 70.7891 33.6276 70.7891 39.1906C70.6518 41.5256 70.6517 43.8607 70.6517 46.1958ZM76.4207 65.3571C76.4207 66.3186 76.352 67.3488 76.4207 68.4476C76.4894 69.5465 77.1075 69.9586 78.2064 69.9586C80.9535 69.9586 83.7007 69.9586 86.4478 69.9586C87.6154 69.9586 88.1648 69.4778 88.3022 68.379C88.3708 67.3488 88.3022 66.2499 88.3022 65.3571C84.3188 65.3571 80.4728 65.3571 76.4207 65.3571ZM67.5612 44.6848C66.2563 44.6848 65.3635 45.2343 64.9514 46.2644C64.5394 47.3633 64.6767 48.3248 65.5009 49.2176C66.0503 49.7671 66.7371 50.2478 67.5612 49.9044C67.5612 48.0501 67.5612 46.4018 67.5612 44.6848ZM97.093 44.6848C97.093 46.4018 97.093 48.1875 97.093 49.9044C98.6726 50.0418 99.9088 48.8742 99.9775 47.3633C100.046 45.7837 98.7413 44.6162 97.093 44.6848Z" fill="black"/>
<path d="M72.3 19.6172C72.3 21.2655 72.3 22.7764 72.3 24.2874C72.3 25.1115 72.2314 25.867 71.3386 26.2104C70.4457 26.5538 69.8963 26.073 69.2782 25.5236C67.5612 23.7379 65.7756 22.021 63.9899 20.304C63.6466 19.9606 63.0285 19.6859 62.5477 19.6859C61.1055 19.6172 59.7319 19.6859 58.2896 19.6172C55.6798 19.5485 54.0316 17.9002 53.9629 15.2905C53.9629 11.6505 53.9629 8.07921 53.9629 4.43924C53.9629 1.6921 55.6112 0.112488 58.3583 0.112488C69.5529 0.112488 80.6788 0.112488 91.8734 0.112488C94.6893 0.112488 96.2689 1.76078 96.3375 4.50792C96.3375 8.01053 96.3375 11.5818 96.3375 15.0844C96.3375 17.9002 94.6893 19.5485 91.8734 19.6172C85.761 19.6172 79.7173 19.6172 73.6049 19.6172C73.2616 19.6172 72.8495 19.6172 72.3 19.6172ZM69.0722 21.0595C69.1409 20.9908 69.2095 20.9908 69.3469 20.9221C69.3469 20.2353 69.3469 19.6172 69.3469 18.9304C69.3469 16.9387 69.6903 16.5954 71.6133 16.5954C78.3438 16.5954 85.0743 16.5954 91.8048 16.5954C93.1097 16.5954 93.4531 16.252 93.4531 15.0157C93.4531 11.5818 93.4531 8.0792 93.4531 4.64527C93.4531 3.40906 93.1783 3.06567 91.8734 3.06567C80.8162 3.06567 69.759 3.06567 58.633 3.06567C57.3281 3.06567 57.0534 3.34038 57.0534 4.5766C57.0534 8.0792 57.0534 11.5818 57.0534 15.0844C57.0534 16.252 57.4655 16.5954 58.5643 16.5954C60.0753 16.5954 61.5175 16.664 63.0284 16.5954C64.196 16.5267 65.0201 16.8701 65.8443 17.7629C66.8745 18.8617 68.042 19.9606 69.0722 21.0595Z" fill="#3030FC"/>
<path d="M34.8702 57.871C28.5517 57.8023 22.9888 53.3382 21.0658 46.8138C20.9284 46.4017 20.7911 45.921 20.7224 45.5089C20.585 44.2727 20.1043 43.5859 18.7994 43.1738C17.4258 42.7617 16.8764 40.9761 17.5632 39.6025C18.1813 38.2976 19.4175 37.8856 20.8598 38.641C22.1646 39.3278 23.1948 38.7097 23.2635 37.2675C23.2635 36.5807 23.2635 35.8939 23.3322 35.2758C23.5382 33.1467 25.1865 31.5671 27.2469 31.5671C32.123 31.5671 36.9305 31.0864 41.6694 30.2622C43.9358 29.8502 44.7599 30.537 45.3093 32.7347C45.7214 34.3143 46.0648 35.9626 46.4769 37.5422C46.8203 38.9157 47.7131 39.2591 48.9493 38.641C50.3228 37.8856 51.5591 38.2976 52.1772 39.6712C52.7953 40.9761 52.2459 42.8304 50.941 43.1738C49.5674 43.5172 49.224 44.41 48.9493 45.6462C47.6444 52.0333 42.9056 56.7035 36.7245 57.7337C36.1751 57.8024 35.5569 57.871 34.8702 57.871ZM35.0075 53.613C37.0679 53.5443 38.6475 52.5141 39.8837 51.0032C40.3645 50.3851 40.2958 49.6296 39.7464 49.0802C39.1283 48.4621 38.4415 48.5307 37.7547 49.0115C37.5486 49.1489 37.4113 49.3549 37.2052 49.5609C35.763 51.0032 34.2521 51.0032 32.7411 49.5609C32.5351 49.3549 32.3977 49.1488 32.123 48.9428C31.4362 48.4621 30.7495 48.4621 30.2 49.0115C29.5819 49.5609 29.5132 50.3164 30.0627 50.9345C31.2989 52.5828 32.8785 53.5443 35.0075 53.613ZM28.0023 38.5037C25.9419 38.5037 24.1563 40.152 24.0877 42.1436C24.019 43.0365 24.431 43.6546 25.3239 43.7919C26.2167 43.9293 26.8348 43.4485 26.9721 42.5557C27.1095 41.9376 27.3155 41.3195 28.0023 41.4569C28.3457 41.5255 28.7578 42.075 28.8952 42.487C29.1699 43.3112 29.6506 43.8606 30.5434 43.7919C31.3676 43.7232 31.8483 43.0365 31.8483 42.075C31.7796 40.0833 30.0627 38.5037 28.0023 38.5037ZM41.8754 38.5037C39.815 38.5037 38.0981 40.152 38.0294 42.075C37.9607 42.9678 38.3041 43.5859 39.1969 43.7919C40.0211 43.998 40.6392 43.4485 40.9826 42.487C41.1199 42.075 41.532 41.5255 41.8754 41.4569C42.5622 41.3195 42.7682 41.9376 42.9056 42.5557C43.0429 43.4485 43.661 43.8606 44.5539 43.7919C45.378 43.7232 45.8588 42.9678 45.7901 42.0063C45.584 40.0146 43.9357 38.5037 41.8754 38.5037Z" fill="white"/>
<path d="M51.0096 35.2758C50.3228 35.2758 49.7734 35.2758 49.0866 35.2758C48.8119 34.177 48.5372 33.0094 48.2625 31.8419C47.4383 28.408 45.1719 26.691 41.6693 27.2404C36.7932 27.9959 31.917 28.4766 27.0408 28.5453C23.6756 28.614 20.9971 31.1551 20.4476 34.5204C20.4476 34.7264 20.379 34.9324 20.3103 35.2071C19.8296 35.2071 19.3488 35.2071 18.7994 35.2071C18.456 31.4298 19.4175 27.9959 22.0273 25.1801C25.1865 21.6775 29.3072 19.8918 33.84 18.999C36.5871 18.4496 39.4029 18.3122 42.1501 18.999C42.7682 19.1364 43.455 19.4111 44.0044 19.6858C44.8972 20.1665 45.378 20.8533 45.3093 21.8835C45.3093 22.2269 45.3093 22.5703 45.3093 22.9137C45.3093 24.2873 45.79 24.768 47.2323 24.8367C47.6444 24.8367 48.0564 24.8367 48.5372 24.8367C49.9108 24.9054 51.0096 25.9355 51.0783 27.3778C51.0783 27.7899 51.0783 28.1333 51.0783 28.5453C51.0096 30.8117 51.0096 33.0094 51.0096 35.2758Z" fill="white"/>
<path d="M41.8067 59.3133C42.6309 61.0303 42.6308 61.099 41.3946 62.2665C39.1969 64.3955 36.9305 66.4559 34.9389 68.3102C32.6038 66.1812 30.0627 63.8461 27.6589 61.3737C27.3155 61.0303 27.6589 60.0001 27.7276 59.176C32.6038 61.305 37.2053 61.3737 41.8067 59.3133Z" fill="white"/>
<path d="M21.4779 73.942C22.1646 74.0794 22.5767 74.5601 22.5767 75.3842C22.5767 76.1397 21.8213 76.8265 21.0658 76.6891C20.2417 76.5518 19.8296 76.071 19.8296 75.2469C19.8296 74.4227 20.585 73.8733 21.4779 73.942Z" fill="white"/>
<path d="M73.8109 70.0958C74.9785 72.3622 76.5581 73.049 78.7558 72.9116C80.9535 72.7743 83.2199 72.8429 85.4176 72.9116C87.7527 73.049 89.7444 72.6369 90.9119 70.0271C94.9639 72.0188 98.8786 73.8731 102.725 75.9335C104.991 77.1697 106.159 79.4361 106.296 81.9772C106.433 85.2051 106.365 88.433 106.365 91.6609C103.48 91.6609 100.664 91.6609 97.7111 91.6609C97.7111 90.8367 97.7111 90.0812 97.7111 89.2571C97.7111 86.7847 97.7111 84.3123 97.7111 81.8398C97.7111 80.741 97.093 80.0542 96.2002 80.0542C95.3074 80.0542 94.7579 80.741 94.7579 81.9085C94.7579 84.793 94.7579 87.6088 94.7579 90.4933C94.7579 90.9054 94.7579 91.2488 94.7579 91.7295C86.5165 91.7295 78.4124 91.7295 70.1023 91.7295C70.1023 90.4933 70.1023 89.2571 70.1023 88.0209C70.1023 85.9605 70.1023 83.9002 70.1023 81.8398C70.1023 80.741 69.4842 80.0542 68.5914 80.0542C67.6985 80.0542 67.1491 80.741 67.1491 81.7711C67.1491 84.6556 67.1491 87.5401 67.1491 90.4933C67.1491 90.9054 67.1491 91.2488 67.1491 91.6609C64.1959 91.6609 61.3801 91.6609 58.5643 91.6609C58.5643 91.4548 58.4956 91.1801 58.4956 90.9741C58.4956 88.1582 58.4956 85.3424 58.4956 82.4579C58.5643 79.5047 59.8005 77.101 62.3416 75.6588C65.9816 73.8044 69.8276 72.0188 73.8109 70.0958Z" fill="white"/>
<path d="M70.6518 46.1958C70.6518 43.8607 70.6518 41.5257 70.6518 39.1906C70.7205 33.6276 74.4978 29.8503 80.0607 29.8503C82.2585 29.8503 84.5248 29.713 86.7225 30.0564C90.9119 30.6745 94.0025 34.3144 94.0025 38.5725C94.0712 43.7234 94.0712 48.8056 94.0025 53.9565C93.9338 58.558 90.1565 62.404 85.555 62.5413C83.426 62.61 81.2283 62.61 79.0992 62.5413C74.4978 62.404 70.7891 58.764 70.5831 54.1625C70.5831 51.4841 70.6518 48.8056 70.6518 46.1958Z" fill="white"/>
<path d="M76.4207 65.3571C80.4728 65.3571 84.3188 65.3571 88.3022 65.3571C88.3022 66.2499 88.3708 67.3488 88.3022 68.379C88.2335 69.4778 87.6154 69.9586 86.4478 69.9586C83.7007 69.9586 80.9535 69.9586 78.2064 69.9586C77.1075 69.9586 76.5581 69.5465 76.4207 68.4477C76.352 67.4175 76.4207 66.3186 76.4207 65.3571Z" fill="white"/>
<path d="M67.5612 44.6849C67.5612 46.4019 67.5612 48.1189 67.5612 49.9045C66.7371 50.2479 66.0503 49.7672 65.5009 49.2177C64.6767 48.3936 64.4707 47.3634 64.9515 46.2645C65.4322 45.1657 66.2564 44.6849 67.5612 44.6849Z" fill="white"/>
<path d="M97.093 44.6848C98.7413 44.6161 99.9775 45.7837 99.9775 47.3633C99.9088 48.9429 98.6726 50.0418 97.093 49.9044C97.093 48.1874 97.093 46.4018 97.093 44.6848Z" fill="white"/>
<path d="M69.0722 21.0595C67.9733 19.9607 66.8744 18.9305 65.8443 17.763C65.0888 16.8701 64.1959 16.5954 63.0284 16.5954C61.5175 16.6641 60.0752 16.5954 58.5643 16.5954C57.3968 16.5954 57.0534 16.252 57.0534 15.0845C57.0534 11.5819 57.0534 8.07927 57.0534 4.57666C57.0534 3.34045 57.3281 3.06573 58.633 3.06573C69.6903 3.06573 80.7475 3.06573 91.8734 3.06573C93.1783 3.06573 93.4531 3.34045 93.4531 4.64534C93.4531 8.07927 93.4531 11.5819 93.4531 15.0158C93.4531 16.3207 93.1096 16.5954 91.8048 16.5954C85.0743 16.5954 78.3437 16.5954 71.6132 16.5954C69.6902 16.5954 69.3468 16.9388 69.3468 18.9305C69.3468 19.6173 69.3468 20.2354 69.3468 20.9222C69.2782 20.9908 69.2095 20.9908 69.0722 21.0595ZM65.8443 8.35398C65.4322 8.35398 65.0888 8.28531 64.6767 8.35398C63.8526 8.42266 63.3718 8.97209 63.3718 9.72756C63.3031 10.483 63.7152 11.1011 64.4707 11.1698C65.4322 11.3072 66.3937 11.3072 67.2865 11.1698C68.042 11.1011 68.3854 10.483 68.3854 9.65888C68.3167 8.90341 67.9046 8.42266 67.1491 8.35398C66.7371 8.35398 66.325 8.35398 65.8443 8.35398ZM75.3219 8.35398C74.9098 8.35398 74.4978 8.28531 74.0857 8.35398C73.3302 8.42266 72.8495 8.90341 72.7808 9.65888C72.7121 10.483 73.1242 11.1011 73.9483 11.1698C74.8411 11.3072 75.8026 11.3072 76.6955 11.1698C77.5196 11.0324 77.863 10.483 77.7943 9.65888C77.7256 8.90341 77.2449 8.42266 76.4894 8.35398C76.0774 8.35398 75.6653 8.35398 75.3219 8.35398ZM84.6622 8.35398C84.2501 8.35398 83.838 8.28531 83.426 8.35398C82.6705 8.42266 82.1898 8.90341 82.1211 9.65888C82.0524 10.483 82.4645 11.1011 83.2199 11.1698C84.1814 11.3072 85.1429 11.3072 86.0357 11.1698C86.7912 11.1011 87.1346 10.4143 87.0659 9.65888C86.9972 8.90341 86.5852 8.42266 85.8297 8.35398C85.4176 8.35398 85.0742 8.35398 84.6622 8.35398Z" fill="white"/>
<path d="M35.0076 53.6131C32.8785 53.5444 31.2989 52.5829 30.0627 51.0033C29.582 50.3852 29.6506 49.6298 30.2001 49.0803C30.8182 48.5309 31.505 48.5309 32.1231 49.0117C32.3291 49.149 32.5351 49.4237 32.7412 49.6298C34.1834 51.072 35.6944 51.072 37.2053 49.6298C37.4113 49.4237 37.5487 49.2177 37.7547 49.0803C38.4415 48.5996 39.1283 48.5309 39.7464 49.149C40.3645 49.6984 40.3645 50.4539 39.8838 51.072C38.5789 52.5143 36.9992 53.5444 35.0076 53.6131Z" fill="black"/>
<path d="M28.0023 38.5038C30.0627 38.5038 31.7797 40.1521 31.8484 42.0751C31.917 43.0366 31.3676 43.7234 30.5434 43.7921C29.5819 43.8608 29.1699 43.3113 28.8952 42.4872C28.7578 42.0751 28.3457 41.5257 28.0023 41.457C27.3155 41.3197 27.1095 41.9378 26.9721 42.5559C26.8348 43.4487 26.2167 43.9294 25.3239 43.7921C24.4311 43.6547 24.019 42.968 24.0877 42.1438C24.1564 40.0835 25.942 38.4352 28.0023 38.5038Z" fill="black"/>
<path d="M41.8754 38.5038C43.9358 38.5038 45.5841 40.0147 45.7901 42.0751C45.8588 43.0366 45.3781 43.792 44.5539 43.8607C43.6611 43.9294 43.043 43.5173 42.9056 42.6245C42.7682 42.0064 42.6309 41.3883 41.8754 41.5256C41.532 41.5943 41.12 42.1437 40.9826 42.5558C40.6392 43.5173 40.0211 43.9981 39.197 43.8607C38.3042 43.6547 37.9608 43.0366 38.0294 42.1438C38.0981 40.0834 39.8151 38.5038 41.8754 38.5038Z" fill="black"/>
<path d="M65.9827 8.35377C66.3948 8.35377 66.8069 8.28509 67.2189 8.35377C67.9744 8.42244 68.4551 8.9032 68.4551 9.65866C68.5238 10.4141 68.1118 11.0322 67.3563 11.1696C66.3948 11.3069 65.4333 11.3069 64.5405 11.1696C63.785 11.1009 63.3729 10.4828 63.4416 9.72734C63.5103 8.97187 63.9224 8.42244 64.7465 8.35377C65.2273 8.35377 65.6393 8.35377 65.9827 8.35377Z" fill="#3030FC"/>
<path d="M75.3219 8.35377C75.7339 8.35377 76.0773 8.28509 76.4894 8.35377C77.2449 8.42244 77.7256 8.9032 77.7943 9.65866C77.863 10.4828 77.4509 11.1009 76.6954 11.1696C75.8026 11.3069 74.8411 11.3069 73.9483 11.1696C73.1242 11.1009 72.7121 10.4141 72.7808 9.65866C72.8494 8.9032 73.2615 8.42244 74.0857 8.35377C74.4291 8.35377 74.8411 8.35377 75.3219 8.35377Z" fill="black"/>
<path d="M84.6622 8.35377C85.0742 8.35377 85.4176 8.28509 85.8297 8.35377C86.5852 8.42244 87.0659 8.9032 87.0659 9.65866C87.1346 10.4141 86.7912 11.0322 86.0357 11.1696C85.0742 11.3069 84.1128 11.3069 83.2199 11.1696C82.3958 11.1009 82.0524 10.4141 82.1211 9.65866C82.1898 8.9032 82.6705 8.42244 83.426 8.35377C83.838 8.35377 84.2501 8.35377 84.6622 8.35377Z" fill="#3030FC"/>
</svg>
