<svg width="95" height="97" viewBox="0 0 95 97" fill="none" xmlns="http://www.w3.org/2000/svg">
<path d="M30.1656 69.6951C30.78 70.3863 31.3943 70.4631 32.1623 70.0791C33.007 69.6183 33.9286 69.2343 34.8502 68.9272C37.9988 67.7752 41.3011 69.2343 42.6066 72.3062C42.9906 73.2277 42.7602 73.7653 41.9154 74.1493C38.2292 75.6084 34.6198 77.1444 30.8567 78.5267C30.3192 78.7571 29.4744 78.5267 28.9368 78.2195C27.9385 77.7587 27.017 77.6051 25.9418 78.1427C25.1738 78.5267 24.3291 78.7571 23.4843 79.0643C21.718 79.6786 19.8749 80.2162 19.1069 82.2129C18.9533 82.6737 18.4926 83.0577 18.1086 83.2881C16.803 83.9792 16.419 85.1312 16.0351 86.4367C15.1135 89.4318 14.1152 92.35 13.1168 95.3451C12.9632 95.8059 12.5024 96.3434 12.0416 96.497C11.1969 96.7274 10.6593 95.8059 10.9665 94.6539C11.8881 91.8893 12.7328 89.2014 13.6544 86.5135C13.808 86.1295 13.8848 85.7456 14.0384 85.2848C9.73779 85.3616 6.89629 83.4417 5.51396 79.2947C4.51561 80.2162 3.59409 81.061 2.67254 81.9057C2.05817 82.4433 1.4438 82.8273 0.752629 82.1361C-0.0153342 81.3682 0.52224 80.7538 1.13661 80.2162C1.82778 79.6018 2.44213 78.9875 3.1333 78.3731C4.43883 77.2212 5.5908 76.146 6.12837 74.3797C6.66594 72.6902 7.97146 71.4614 9.66098 70.6935C10.1986 70.3863 10.4289 70.0791 10.2753 69.5415C10.1217 68.9272 10.045 68.236 10.045 67.6216C9.89137 66.0857 10.3521 64.7034 11.4273 63.5514C14.2687 60.5564 17.1102 57.5613 19.9517 54.5663C21.0268 53.4143 22.3324 52.9535 23.8683 53.1071C24.5595 53.1839 25.0202 52.9535 25.4042 52.3392C27.5545 49.2673 29.7816 46.2723 32.0855 43.2772C32.4695 42.7396 33.2374 42.2021 33.8518 42.0485C37.6148 41.1269 41.3779 40.3589 45.1409 39.5142C46.4464 39.207 46.9072 39.591 46.984 40.8965C47.1376 45.1203 45.9088 47.117 41.9154 48.5761C41.5314 48.7297 41.1475 48.9601 40.6867 49.0369C37.3077 49.5745 35.9253 52.1088 34.6966 55.027C36.5397 54.4895 38.306 54.0287 40.0723 53.4143C41.2242 53.0303 41.9922 53.1839 42.9138 54.0287C45.3712 56.3326 47.9055 58.5597 50.4398 60.8636C51.5149 61.8619 51.5918 62.6299 50.2862 63.321C48.8271 64.1658 47.2912 64.857 45.6785 65.3945C44.5265 65.7785 43.2978 65.3945 42.2994 64.6266C41.2243 63.7818 40.1491 62.5531 38.9972 62.3995C37.8452 62.2459 36.6165 63.3978 35.3877 63.705C33.0839 64.3194 31.5479 65.7017 31.0103 68.0824C30.7032 68.62 30.396 69.1576 30.1656 69.6951ZM24.4059 76.2996C22.3324 74.6101 21.718 72.8438 22.5627 71.0007C22.9467 70.2327 23.5611 69.5415 24.1755 69.004C25.3274 68.1592 26.7098 68.236 28.0921 68.62C28.7065 67.2376 29.244 65.9321 29.7816 64.6266C29.8584 64.3194 29.8584 63.9354 29.7048 63.6282C28.2457 60.9404 26.7098 58.3293 25.1738 55.6414C25.0202 55.411 24.7131 55.1806 24.4059 55.1806C23.1003 55.027 22.0252 55.3342 21.1036 56.3326C18.723 58.9436 16.3423 61.5547 13.808 63.9354C11.9649 65.6249 11.8881 67.5448 12.5025 69.6183C17.6478 70.0791 19.3373 71.615 20.8732 77.4516C22.102 77.1444 23.1771 76.7604 24.4059 76.2996ZM29.628 58.7901C31.5479 55.4878 33.3142 52.3392 35.1574 49.2673C35.4645 48.7297 36.0789 48.269 36.6933 47.9618C38.4596 47.1938 40.3027 46.6562 42.069 45.8883C43.9121 45.1203 44.8337 43.5844 44.6033 41.7413C41.2243 42.5092 37.922 43.2004 34.543 44.0452C34.2358 44.122 34.0054 44.3524 33.775 44.5827C31.6247 47.501 29.4744 50.4193 27.3241 53.3375C27.1705 53.5679 27.0169 54.0287 27.1705 54.2591C27.9385 55.795 28.7065 57.1773 29.628 58.7901ZM13.1168 82.9041C16.1119 82.9041 18.5693 80.4466 18.5693 77.5283C18.5693 74.5333 16.1119 72.1526 13.1168 72.1526C10.1218 72.1526 7.6643 74.6101 7.6643 77.5283C7.6643 80.5234 10.1218 82.9041 13.1168 82.9041ZM48.0591 61.7851C45.9088 59.8652 43.8353 57.9453 41.685 56.0254C41.5315 55.8718 41.4547 55.7182 41.3011 55.6414C40.9939 55.5646 40.6099 55.4878 40.3027 55.5646C38.6132 56.0254 37.0005 56.6398 35.311 57.0237C33.4678 57.4077 32.2391 58.2525 31.5479 59.942C30.9336 61.2475 30.8567 61.4011 32.0087 62.5531C33.1606 62.0923 34.3894 61.7851 35.3877 61.0939C38.0756 59.4044 40.3027 59.7116 42.6066 61.9387C44.2961 63.6282 46.0624 63.3978 48.0591 61.7851ZM39.9955 72.4598C38.69 70.8471 37.154 70.3863 35.4645 71.0775C34.3894 71.5382 33.2374 71.999 32.1623 72.5366C31.3943 72.9206 30.78 72.8438 30.012 72.4598C29.0136 71.9222 28.0153 71.3846 27.0169 70.9239C26.249 70.5399 25.6346 70.6935 25.0202 71.2311C24.0219 72.1526 24.2523 73.6885 25.5578 74.3029C26.9402 74.9941 28.3993 75.6084 29.7816 76.2228C30.012 76.2996 30.3192 76.3764 30.4728 76.2996C33.6982 74.9941 36.7701 73.6885 39.9955 72.4598Z" fill="black" stroke="black" stroke-width="0.5" stroke-miterlimit="10"/>
<path d="M84.691 37.7477C85.3822 35.1366 86.6109 32.9863 86.6877 30.3753C86.9181 25.8443 86.6877 21.4669 85.7661 17.0127C85.6125 16.0912 85.9197 15.5536 86.8413 15.3232C88.838 14.7088 90.8347 14.0945 92.8314 13.4033C93.5993 13.1729 94.2905 13.2497 94.5209 14.0177C94.8281 14.8624 94.2137 15.2464 93.5226 15.4768C91.7563 16.0144 89.9131 16.6287 88.07 17.2431C88.2236 18.2415 88.3004 19.163 88.5308 20.0846C89.3756 24.2316 88.9148 28.3786 88.6844 32.4488C88.6844 33.2935 88.1468 34.1383 87.8396 35.0598C87.3021 36.4422 86.7645 37.8245 86.3037 39.2836C85.9965 40.2052 85.3053 40.4356 84.3838 40.1284C83.0015 39.5908 81.8495 38.8229 81.3119 37.5173C80.6976 35.9814 80.2368 34.2919 79.9296 32.6792C79.6992 31.604 79.9296 30.4521 79.9296 29.3001C79.9296 27.2266 79.008 24.9995 77.3185 23.3868C76.7809 24.9995 76.1666 26.5355 75.629 28.1482C75.5522 28.4554 75.629 28.7626 75.7058 29.0697C76.0898 30.4521 76.5506 31.7576 76.8578 33.1399C77.7025 36.8262 75.3986 39.0532 72.8643 40.4356C72.25 40.7428 71.6356 40.4356 71.3284 39.7444C69.9461 36.3654 68.5638 32.9863 67.1814 29.5305C67.0279 29.1465 67.1046 28.5322 67.2582 28.0714C67.719 26.7658 68.1798 25.5371 68.5638 24.078C66.3367 25.5371 64.1096 26.9962 61.8825 28.5322C61.6521 28.6857 61.4985 29.0697 61.2681 29.3001C59.8858 31.5272 58.5035 33.8311 57.0443 36.0582C54.9708 39.3604 50.5166 40.0516 47.5216 37.5173C46.9072 36.9798 46.9072 36.4422 47.2912 35.751C48.0592 34.5223 48.8271 33.2935 49.5951 32.0648C52.2829 27.7642 54.9708 23.4636 57.6587 19.2398C57.9659 18.7022 58.4267 18.1647 58.9642 17.7807C62.9576 14.632 66.7974 11.4066 70.9444 8.48833C74.0931 6.26124 77.5489 4.49492 80.8512 2.49821C81.6959 1.96064 82.5407 1.49986 83.3854 0.962289C84.0766 0.578307 84.7678 0.347916 85.3054 1.11588C85.8429 1.96064 85.3053 2.49821 84.6142 2.8822C83.2318 3.72696 81.8495 4.57171 80.3904 5.33967C74.5539 8.48832 69.3317 12.4817 64.0328 16.5519C61.1913 18.7022 58.8874 21.2365 57.1211 24.3084C55.0476 27.9946 52.6669 31.4504 50.4398 35.0598C50.2862 35.367 50.0559 35.6742 49.9023 35.9814C51.7454 37.1334 53.9725 36.5958 55.1244 34.7527C56.6603 32.372 58.0427 29.9913 59.5786 27.6106C59.8858 27.073 60.3465 26.6123 60.8073 26.3051C63.1112 24.7691 65.4151 23.2332 67.719 21.7741C68.1798 21.4669 68.7942 21.3133 69.3317 21.3133C72.0196 21.1597 74.7843 20.9293 77.4721 20.8525C78.0097 20.8525 78.7009 21.1597 79.0081 21.5437C80.0064 22.926 80.928 24.462 81.8495 25.9211C82.0799 26.3051 82.1567 26.8426 82.1567 27.2266C82.1567 28.9929 82.0799 30.7592 82.1567 32.6024C82.4639 34.5991 83.0015 36.2886 84.691 37.7477ZM74.9379 23.7708C74.4771 23.7708 74.1699 23.7708 73.7859 23.7708C71.5588 23.8476 71.6356 23.9244 70.7141 25.9211C69.7925 27.9178 69.7157 29.7609 70.7908 31.7576C71.7892 33.6007 72.4036 35.5974 73.1716 37.5173C74.7843 36.4422 75.3218 35.2134 74.9379 33.6007C74.5539 32.1416 74.0163 30.6825 73.7091 29.2233C73.5555 28.609 73.6323 27.841 73.7859 27.2266C74.0163 26.0747 74.4771 24.9995 74.9379 23.7708Z" fill="black" stroke="black" stroke-width="0.5" stroke-miterlimit="10"/>
<path d="M22.6396 40.5125C20.0285 43.1236 17.571 45.5811 15.1135 48.1154C14.8831 48.3458 14.8831 48.9601 15.0367 49.3441C15.8047 51.7248 14.5759 54.1823 12.1953 54.9502C9.89137 55.6414 7.4339 54.2591 6.74274 52.032C6.05157 49.6513 7.43388 47.1938 9.89137 46.6562C10.6593 46.5027 11.5041 46.5795 12.1953 46.733C12.8096 46.8866 13.1936 46.8098 13.5776 46.3491C16.1887 43.738 18.723 41.1269 21.334 38.5926C22.3324 37.5943 22.7932 37.5943 23.7915 38.5926C25.0203 39.8214 26.1722 40.9733 27.4009 42.2021C28.0153 42.8164 28.3225 43.4308 27.6313 44.0452C27.017 44.6595 26.4026 44.3524 25.7882 43.8148C24.8667 42.6628 23.7915 41.6645 22.6396 40.5125ZM10.8897 48.653C9.73776 48.653 8.81623 49.6513 8.89302 50.8032C8.96982 51.9552 9.89137 52.8 11.0433 52.8C12.1185 52.7232 13.04 51.8016 13.04 50.7265C13.04 49.5745 12.0417 48.653 10.8897 48.653Z" fill="#3030FC" stroke="#3030FC" stroke-width="0.5" stroke-miterlimit="10"/>
<path d="M16.803 25.4604C18.1853 25.5372 19.4909 26.3052 20.2588 27.9179C20.566 28.5322 20.8732 28.6858 21.4876 28.6858C23.4843 28.6858 25.481 28.609 27.4777 28.6858C28.0921 28.6858 28.9368 28.993 29.3976 29.4538C31.2407 31.2201 33.007 33.0632 34.8501 34.8295C35.4645 35.4439 36.0021 36.0583 35.2341 36.7495C34.4662 37.5174 33.775 36.9798 33.1606 36.3655C31.6247 34.7527 30.012 33.2168 28.4761 31.6809C27.9385 31.0665 27.3241 30.9129 26.5561 30.9129C24.9434 30.9897 23.2539 30.9897 21.6412 30.9129C20.8732 30.9129 20.4893 31.0665 20.1821 31.8345C19.2605 33.7544 17.0334 34.5991 15.0367 33.908C13.04 33.2168 11.8113 31.1433 12.1952 29.0698C12.5024 26.9195 14.2687 25.4604 16.803 25.4604ZM14.3455 29.8378C14.3455 30.9897 15.2671 31.9113 16.419 31.8345C17.4942 31.8345 18.4158 30.9129 18.4158 29.8378C18.4158 28.6858 17.4942 27.7643 16.3423 27.7643C15.2671 27.7643 14.3455 28.6858 14.3455 29.8378Z" fill="#3030FC" stroke="#3030FC" stroke-width="0.5" stroke-miterlimit="10"/>
<path d="M80.544 51.4944C81.8495 48.8065 83.8462 47.8082 86.0733 48.4993C87.9164 49.1137 89.1452 50.8032 89.1452 52.7231C89.0684 54.643 87.6861 56.4094 85.8429 56.8701C83.923 57.3309 81.9263 56.4862 81.0816 54.7198C80.6976 53.9519 80.2368 53.7983 79.4689 53.7983C77.4722 53.8751 75.5522 53.8751 73.5555 53.7983C73.018 53.7983 72.3268 53.4911 71.9428 53.1071C70.0229 51.264 68.1798 49.3441 66.2599 47.501C65.6455 46.9634 65.3383 46.2722 66.0295 45.6579C66.7207 45.0435 67.335 45.4275 67.8726 45.9651C69.4853 47.5778 71.098 49.2673 72.7108 50.8032C73.0947 51.1872 73.7859 51.4944 74.3235 51.4944C76.4738 51.5712 78.4705 51.4944 80.544 51.4944ZM84.7678 54.7198C85.9197 54.7198 86.8413 53.7983 86.8413 52.6463C86.8413 51.4944 85.9197 50.5728 84.7678 50.5728C83.6926 50.5728 82.7711 51.4944 82.6943 52.5695C82.6943 53.7215 83.6158 54.7198 84.7678 54.7198Z" fill="#3030FC" stroke="#3030FC" stroke-width="0.5" stroke-miterlimit="10"/>
<path d="M38.1524 2.95898C40.2259 2.95898 41.8386 4.26452 42.3762 6.18443C42.837 8.02754 41.9922 10.101 40.2259 10.9458C39.458 11.3298 39.2276 11.7906 39.2276 12.6353C39.3044 14.5552 38.7668 16.7823 39.458 18.4718C40.1491 20.0846 41.9923 21.3133 43.3746 22.6188C43.9122 23.1564 44.5265 23.7708 45.0641 24.3083C45.5249 24.8459 45.6785 25.3835 45.1409 25.9211C44.6033 26.5354 43.9889 26.3819 43.4514 25.8443C41.4547 23.8476 39.458 21.9277 37.538 19.931C37.2309 19.6238 37.0773 19.0094 37.0773 18.5486C37.0005 16.4751 37.0005 14.4016 37.0773 12.3281C37.0773 11.637 36.9237 11.3298 36.3093 11.0226C34.3894 10.101 33.5447 8.10433 34.0054 6.10763C34.4662 4.26452 36.1557 2.95898 38.1524 2.95898ZM38.1524 9.33308C39.2276 9.33308 40.2259 8.33472 40.2259 7.25958C40.2259 6.10763 39.2276 5.18608 38.1524 5.18608C37.0773 5.18608 36.1557 6.10763 36.1557 7.18278C36.1557 8.33472 37.0773 9.33308 38.1524 9.33308Z" fill="#3030FC" stroke="#3030FC" stroke-width="0.5" stroke-miterlimit="10"/>
<path d="M64.1096 67.0072C64.1096 67.6215 64.1096 68.1591 64.1096 68.7735C64.0328 70.079 64.1096 71.0774 65.5687 71.8453C67.2582 72.6901 67.719 74.9172 67.0279 76.7603C66.3367 78.5266 64.5704 79.6785 62.8041 79.6017C60.8074 79.4482 59.1946 78.0658 58.8106 76.2227C58.4267 74.4564 59.1946 72.4597 60.8842 71.6149C61.7289 71.231 61.9593 70.7702 61.8825 69.8486C61.8057 68.2359 61.8825 66.5464 61.8057 64.9337C61.8057 64.3961 61.4985 63.7049 61.1145 63.3209C59.5018 61.6314 57.8891 60.0187 56.1996 58.406C55.662 57.8684 55.2012 57.254 55.8924 56.5629C56.5836 55.8717 57.1979 56.2557 57.7355 56.7932C59.5786 58.6364 61.4985 60.5563 63.3416 62.4762C63.7256 62.8602 63.956 63.5513 63.956 64.0889C64.1864 65.0105 64.1096 66.0088 64.1096 67.0072ZM62.9577 73.1509C61.8825 73.1509 60.8841 74.226 60.9609 75.3012C61.0377 76.4531 61.9593 77.2979 63.1112 77.2979C64.1864 77.2211 65.0311 76.3763 65.0311 75.2244C65.0311 73.9956 64.0328 73.0741 62.9577 73.1509Z" fill="#3030FC" stroke="#3030FC" stroke-width="0.5" stroke-miterlimit="10"/>
<path d="M48.5967 78.6034C48.6735 79.8321 48.9807 81.0609 48.8271 82.136C48.4431 84.4399 45.9856 85.8223 43.6817 85.2847C41.3778 84.7471 39.9955 82.4432 40.4563 80.2161C40.9939 77.8354 43.2978 76.2995 45.6016 76.9139C46.3696 77.1443 46.6768 76.9139 47.1376 76.3763C49.5183 73.2277 51.8989 70.1558 54.2796 67.0072C54.7404 66.316 55.3548 65.932 56.1227 66.4696C56.8907 67.084 56.5835 67.7751 56.046 68.3895C55.9692 68.4663 55.9692 68.4663 55.8924 68.5431C53.5885 71.6149 51.2846 74.61 48.9807 77.6818C48.7503 77.989 48.5199 78.2962 48.2895 78.6802C48.3663 78.6034 48.4431 78.6034 48.5967 78.6034ZM46.6768 81.1377C46.6768 79.9857 45.832 79.0642 44.6801 79.0642C43.5281 79.0642 42.6066 79.9857 42.6066 81.1377C42.6066 82.2128 43.5282 83.1344 44.6033 83.1344C45.7552 83.2112 46.6768 82.3664 46.6768 81.1377Z" fill="#3030FC" stroke="#3030FC" stroke-width="0.5" stroke-miterlimit="10"/>
<path d="M48.9039 16.3984C49.5183 16.936 50.1326 17.32 50.5934 17.8575C51.131 18.3951 51.2846 19.0095 50.6702 19.547C50.1327 20.0846 49.5183 19.931 48.9807 19.3935C48.2896 18.7023 47.5984 18.0111 46.9072 17.32C46.1392 16.4752 46.1392 16.0144 46.9072 15.1697C48.9039 13.173 50.9006 11.1762 52.8973 9.17954C53.3581 8.71876 53.4349 8.41158 53.2813 7.79721C52.5901 5.87731 53.4349 3.80381 55.1244 2.80545C56.8907 1.73031 59.1178 2.03749 60.5002 3.57342C61.8825 5.03255 62.0361 7.25964 60.9609 8.87236C59.8858 10.5619 57.7355 11.3298 55.8924 10.5619C55.2012 10.2547 54.8172 10.4083 54.3565 10.8691C52.6669 12.7122 50.9006 14.4017 48.9039 16.3984ZM59.5018 6.49167C59.5018 5.33973 58.5803 4.41818 57.4283 4.41818C56.3532 4.41818 55.4316 5.26293 55.4316 6.41488C55.4316 7.56682 56.2764 8.48838 57.4283 8.48838C58.5035 8.56518 59.5018 7.64362 59.5018 6.49167Z" fill="#3030FC" stroke="#3030FC" stroke-width="0.5" stroke-miterlimit="10"/>
<path d="M27.0938 13.557C27.017 14.0178 27.0938 14.4785 26.9402 14.7857C26.3258 15.7841 26.7866 16.3985 27.5545 17.0896C28.7065 18.088 29.7049 19.2399 30.78 20.3151C31.3944 20.8526 31.7015 21.5438 31.0104 22.1582C30.396 22.7726 29.7816 22.4654 29.2441 21.9278C28.0153 20.6991 26.7866 19.5471 25.6346 18.3184C25.0971 17.7808 24.7131 17.6272 23.9451 17.8576C21.6412 18.5488 19.3374 17.1664 18.6462 14.8625C18.0318 12.6354 19.2606 10.2548 21.4877 9.56358C23.7916 8.87242 26.1722 10.0244 26.8634 12.3283C27.017 12.7122 27.017 13.173 27.0938 13.557ZM24.8667 13.7106C24.8667 12.5586 23.9451 11.6371 22.87 11.5603C21.7948 11.5603 20.8733 12.4818 20.7965 13.557C20.7197 14.7089 21.6412 15.6305 22.7932 15.7073C23.8683 15.7073 24.7899 14.8625 24.8667 13.7106Z" fill="#3030FC" stroke="#3030FC" stroke-width="0.5" stroke-miterlimit="10"/>
<path d="M82.6942 69.2343C82.6174 70.6934 81.7727 72.0758 80.0832 72.7669C78.4705 73.4581 76.8578 73.2277 75.4754 71.999C74.0931 70.7702 73.6323 69.1575 74.2467 67.468C74.5538 66.6232 74.4003 66.1625 73.7859 65.6249C72.5572 64.4729 71.482 63.321 70.3301 62.1691C69.7925 61.6315 69.4853 61.0171 70.0997 60.4027C70.7908 59.7116 71.4052 60.0188 71.9428 60.6331C73.1715 61.8619 74.4003 63.0906 75.629 64.3194C76.0898 64.7801 76.397 64.9337 77.0881 64.7033C79.9296 63.7818 82.6942 65.8553 82.6942 69.2343ZM80.4672 68.7735C80.4672 67.6216 79.4688 66.7 78.3169 66.7768C77.1649 66.7768 76.2434 67.7752 76.3202 68.9271C76.397 70.0023 77.3185 70.9238 78.3937 70.9238C79.5456 70.847 80.4672 69.8487 80.4672 68.7735Z" fill="#3030FC" stroke="#3030FC" stroke-width="0.5" stroke-miterlimit="10"/>
<path d="M60.8841 49.8047C61.3449 50.1119 61.6521 50.1887 61.8824 50.4191C63.8024 52.339 65.7223 54.2589 67.6422 56.1788C68.1797 56.7164 68.4101 57.4076 67.7958 57.9451C67.1814 58.4827 66.567 58.3291 66.1062 57.7916C64.1863 55.8717 62.1897 53.8749 60.2697 51.8782C59.9626 51.5711 59.8857 50.9567 59.9625 50.5727C60.0393 50.3423 60.5001 50.1119 60.8841 49.8047Z" fill="#3030FC" stroke="#3030FC" stroke-width="0.5" stroke-miterlimit="10"/>
<path d="M41.5314 31.4504C41.2243 31.8344 40.9939 32.2951 40.6867 32.3719C40.3027 32.4487 39.6883 32.372 39.3812 32.1416C38.2292 31.1432 37.2309 29.9913 36.1557 28.9161C35.2342 27.9946 34.3894 27.1498 33.4678 26.2282C32.9303 25.6907 32.7767 25.0763 33.3142 24.5387C33.8518 23.9244 34.4662 24.0779 35.0038 24.6155C36.9237 26.5354 38.9204 28.5321 40.8403 30.452C41.1474 30.6824 41.3011 30.9896 41.5314 31.4504Z" fill="#3030FC" stroke="#3030FC" stroke-width="0.5" stroke-miterlimit="10"/>
<path d="M24.4059 76.2997C23.1772 76.7605 22.102 77.1445 21.0269 77.6053C19.4909 71.7687 17.8015 70.2328 12.6561 69.772C11.9649 67.6217 12.1185 65.7786 13.9616 64.0891C16.4959 61.7084 18.8766 59.0206 21.2572 56.4863C22.1788 55.4879 23.254 55.1039 24.5595 55.3343C24.7899 55.3343 25.1739 55.5647 25.3275 55.7951C26.8634 58.4062 28.3225 61.0941 29.8584 63.7819C30.012 64.0123 30.0121 64.4731 29.9353 64.7803C29.3977 66.0858 28.8601 67.3913 28.2457 68.7737C26.8634 68.3897 25.481 68.2361 24.3291 69.1577C23.6379 69.6952 23.0236 70.3864 22.7164 71.1544C21.718 72.8439 22.3324 74.6102 24.4059 76.2997Z" fill="white" stroke="black" stroke-width="0.5" stroke-miterlimit="10"/>
<path d="M29.628 58.79C28.7065 57.1773 27.8617 55.795 27.1705 54.3359C27.0169 54.1055 27.1705 53.6447 27.3241 53.4143C29.4744 50.496 31.6247 47.5778 33.775 44.6595C33.9286 44.4291 34.2358 44.1987 34.543 44.1219C37.922 43.354 41.2243 42.586 44.6033 41.8181C44.9105 43.5844 43.9121 45.1971 42.069 45.9651C40.3027 46.6562 38.4596 47.2706 36.6933 48.0386C36.0789 48.2689 35.5414 48.8065 35.1574 49.3441C33.3143 52.3391 31.5479 55.4878 29.628 58.79Z" fill="white" stroke="black" stroke-width="0.5" stroke-miterlimit="10"/>
<path d="M13.1168 82.9039C10.1218 82.9039 7.66431 80.5233 7.66431 77.5282C7.66431 74.5332 10.1218 72.1525 13.1168 72.1525C16.1119 72.1525 18.5693 74.5332 18.5693 77.5282C18.4925 80.5233 16.1119 82.9039 13.1168 82.9039ZM13.5008 76.1459C13.3472 76.1459 13.1936 76.1459 12.9632 76.0691C12.5024 76.5299 11.8881 76.9906 11.7345 77.5282C11.5809 78.2194 12.1185 78.6802 12.8096 78.6802C13.5776 78.6802 14.3456 78.4498 14.2688 77.4514C14.3456 76.9906 13.808 76.6066 13.5008 76.1459Z" fill="white" stroke="black" stroke-width="0.5" stroke-miterlimit="10"/>
<path d="M48.0591 61.7851C45.9856 63.3978 44.2961 63.5514 42.5298 61.9387C40.2259 59.7884 37.9988 59.4044 35.3109 61.0939C34.3126 61.7083 33.0838 62.0923 31.9319 62.553C30.7799 61.4011 30.8567 61.3243 31.4711 59.942C32.2391 58.2525 33.4678 57.3309 35.2341 57.0237C36.9236 56.7165 38.5363 56.0254 40.2259 55.5646C40.5331 55.4878 40.917 55.5646 41.2242 55.6414C41.3778 55.6414 41.5314 55.8718 41.6082 56.0254C43.8353 57.9453 45.9856 59.8652 48.0591 61.7851Z" fill="white" stroke="black" stroke-width="0.5" stroke-miterlimit="10"/>
<path d="M39.9955 72.4598C36.7701 73.7654 33.6983 74.9941 30.5496 76.2228C30.3192 76.2996 30.012 76.2228 29.8584 76.146C28.3993 75.5317 27.017 74.9173 25.6346 74.2261C24.3291 73.6118 24.1755 72.0758 25.097 71.1543C25.7114 70.6167 26.3258 70.4631 27.0938 70.8471C28.0921 71.3847 29.0905 71.8454 30.0888 72.383C30.78 72.8438 31.4712 72.8438 32.2391 72.4598C33.3143 71.9222 34.3894 71.4615 35.5414 71.0007C37.1541 70.3863 38.7668 70.8471 39.9955 72.4598Z" fill="white" stroke="black" stroke-width="0.5" stroke-miterlimit="10"/>
<path d="M74.6945 23.8024C74.2338 25.0311 73.8498 26.1063 73.5426 27.2582C73.389 27.8726 73.3122 28.6405 73.4658 29.2549C73.773 30.714 74.3106 32.1732 74.6945 33.6323C75.0785 35.3218 74.541 36.5506 72.9282 37.5489C72.1603 35.629 71.4691 33.6323 70.5475 31.7892C69.4724 29.7925 69.5492 27.9494 70.4707 25.9527C71.4691 23.8792 71.3155 23.8792 73.5426 23.8024C73.8498 23.8024 74.2338 23.8024 74.6945 23.8024Z" fill="white" stroke="black" stroke-width="0.5" stroke-miterlimit="10"/>
<path d="M10.8897 48.653C11.9649 48.653 12.9632 49.5745 13.04 50.7265C13.04 51.8016 12.1953 52.7232 11.0433 52.7999C9.89136 52.8767 8.96982 51.9552 8.89302 50.8032C8.89302 49.6513 9.73776 48.7298 10.8897 48.653Z" fill="white" stroke="#3030FC" stroke-width="0.5" stroke-miterlimit="10"/>
<path d="M14.3456 29.8379C14.3456 28.6859 15.2671 27.7643 16.3423 27.7643C17.4942 27.7643 18.4158 28.7627 18.4158 29.8379C18.4158 30.913 17.4942 31.8345 16.4191 31.8345C15.2671 31.8345 14.3456 30.9898 14.3456 29.8379Z" fill="white" stroke="#3030FC" stroke-width="0.5" stroke-miterlimit="10"/>
<path d="M84.7678 54.7197C83.6159 54.7197 82.6943 53.7213 82.7711 52.5694C82.8479 51.4942 83.7695 50.5727 84.8446 50.5727C85.9966 50.5727 86.9181 51.4942 86.9181 52.6462C86.8413 53.7981 85.9197 54.7197 84.7678 54.7197Z" fill="white" stroke="#3030FC" stroke-width="0.5" stroke-miterlimit="10"/>
<path d="M38.1524 9.33315C37.0005 9.33315 36.079 8.33479 36.1558 7.25964C36.1558 6.18449 37.0773 5.26294 38.1524 5.26294C39.3044 5.26294 40.2259 6.1845 40.2259 7.33644C40.3027 8.33479 39.3044 9.33315 38.1524 9.33315Z" fill="white" stroke="#3030FC" stroke-width="0.5" stroke-miterlimit="10"/>
<path d="M62.9576 73.151C64.1096 73.151 65.0311 74.0726 65.0311 75.2245C65.0311 76.3764 64.1863 77.2212 63.1112 77.298C61.9592 77.3748 60.9609 76.4532 60.9609 75.3013C60.8841 74.1494 61.8057 73.151 62.9576 73.151Z" fill="white" stroke="#3030FC" stroke-width="0.5" stroke-miterlimit="10"/>
<path d="M46.6768 81.1376C46.6768 82.2896 45.7553 83.1344 44.6033 83.1344C43.5282 83.1344 42.6066 82.2128 42.6066 81.1376C42.6066 79.9857 43.5282 79.0641 44.6801 79.0641C45.8321 79.0641 46.7536 79.9857 46.6768 81.1376Z" fill="white" stroke="#3030FC" stroke-width="0.5" stroke-miterlimit="10"/>
<path d="M59.5018 6.49159C59.5018 7.64353 58.5034 8.56509 57.4283 8.4883C56.2764 8.4883 55.3548 7.56674 55.4316 6.41479C55.4316 5.33965 56.3532 4.41809 57.4283 4.41809C58.5802 4.41809 59.5018 5.41644 59.5018 6.49159Z" fill="white" stroke="#3030FC" stroke-width="0.5" stroke-miterlimit="10"/>
<path d="M24.8667 13.7107C24.8667 14.8626 23.8683 15.7074 22.7164 15.7074C21.5644 15.7074 20.6429 14.709 20.7197 13.5571C20.7965 12.4819 21.718 11.5604 22.7931 11.5604C23.9451 11.6372 24.8667 12.5587 24.8667 13.7107Z" fill="white" stroke="#3030FC" stroke-width="0.5" stroke-miterlimit="10"/>
<path d="M80.4672 68.7736C80.4672 69.8488 79.5457 70.8471 78.3937 70.8471C77.3186 70.8471 76.397 69.9256 76.3202 68.8504C76.2434 67.6985 77.165 66.7001 78.3169 66.7001C79.4689 66.7001 80.4672 67.6217 80.4672 68.7736Z" fill="white" stroke="#3030FC" stroke-width="0.5" stroke-miterlimit="10"/>
<path d="M13.5008 76.146C13.808 76.6068 14.2687 76.9908 14.3455 77.4515C14.4223 78.3731 13.6544 78.6035 12.8864 78.6803C12.1953 78.6803 11.5809 78.2195 11.8113 77.5283C11.9649 76.9908 12.5793 76.53 13.04 76.0692C13.1936 76.146 13.3472 76.146 13.5008 76.146Z" fill="black" stroke="black" stroke-width="0.5" stroke-miterlimit="10"/>
</svg>
