<svg width="92" height="91" viewBox="0 0 92 91" fill="none" xmlns="http://www.w3.org/2000/svg">
<path d="M47.2891 0.151855C48.6196 0.551 50.0831 0.817098 51.2806 1.41581C55.5381 3.54459 57.933 7.00384 58.3987 11.7271C58.4652 12.5253 58.7978 13.1241 59.3965 13.6563C64.3858 17.9138 66.8472 23.3688 66.9803 29.9547C66.9803 30.6864 66.9803 31.4182 66.9803 32.15C66.9803 33.3474 67.1133 34.3453 67.7786 35.4762C69.5082 38.3367 67.4459 42.1286 64.1197 42.5277C63.6541 42.5942 63.1884 42.5942 62.9888 42.5942C62.3236 44.6565 61.8579 46.6522 61.0596 48.5149C59.7957 51.442 57.6669 53.7703 55.0059 55.4999C54.4072 55.8991 54.2076 56.2982 54.2742 56.8969C54.3407 58.0944 54.3407 59.2918 54.2742 60.5558C54.2076 62.3519 54.9394 63.4828 56.6025 64.1481C60.6605 65.8112 64.6519 67.5408 68.7099 69.3369C72.3022 70.867 74.0984 73.661 74.0984 77.5859C74.0984 81.3778 74.0984 85.2362 74.0984 89.0281C74.0984 89.8264 73.8988 90.4916 73.2335 90.8908C72.9674 90.8908 72.6348 90.8908 72.3687 90.8908C71.637 90.4916 71.4374 89.8929 71.4374 89.0281C71.4374 85.1697 71.4374 81.3113 71.4374 77.4529C71.4374 74.7919 70.24 72.8627 67.7786 71.7983C65.3837 70.7339 63.0553 69.7361 60.6605 68.7382C60.4609 68.6717 60.2613 68.6052 59.9287 68.5387C59.9287 68.9378 59.9287 69.2039 59.9287 69.5365C59.9287 72.6632 59.9287 75.7898 59.9287 78.9164C59.9287 79.5817 60.0618 79.9143 60.727 80.1804C62.8558 80.9787 64.1862 83.174 64.1862 85.3693C64.1197 87.6976 62.6562 89.7599 60.4609 90.5581C60.1948 90.6247 59.9287 90.7577 59.6626 90.8908C58.9974 90.8908 58.3987 90.8908 57.7334 90.8908C57.4008 90.7577 57.0682 90.6912 56.7355 90.5581C53.4759 89.3607 52.0789 85.5688 53.8085 82.5087C54.6068 81.1117 55.8042 80.3134 57.2677 79.8478C57.2677 76.3885 57.2677 72.9293 57.2677 69.4035C56.9351 69.603 56.669 69.7361 56.4695 69.9357C53.875 71.6653 51.3471 73.3949 48.7527 75.058C46.6239 76.455 45.1603 76.455 43.0316 75.058C40.4371 73.3284 37.9092 71.5988 35.3148 69.9357C35.0487 69.8026 34.7826 69.603 34.45 69.4035C34.45 71.9979 34.45 74.3928 34.45 76.8542C35.847 76.8542 37.1775 76.8542 38.5079 76.8542C41.1024 76.8542 42.832 78.5173 42.8985 81.1782C42.8985 82.9744 42.8985 84.8371 42.8985 86.6332C42.8985 88.4294 42.0337 89.7599 40.3706 90.5581C40.1045 90.6912 39.9049 90.7577 39.7054 90.8908C39.2397 90.8908 38.774 90.8908 38.3084 90.8908C37.7762 90.4251 37.3105 89.9594 37.5766 89.1611C37.7762 88.4959 38.3749 88.2963 39.0401 88.2298C39.9049 88.0968 40.3041 87.5646 40.3706 86.6332C40.3706 84.8371 40.3706 83.0409 40.3706 81.2448C40.3706 80.1139 39.8384 79.5817 38.7075 79.5817C35.0487 79.5817 31.3233 79.5817 27.6645 79.5817C26.6666 79.5817 26.0014 80.1139 26.0014 81.1117C25.9349 82.9744 26.0014 84.8371 26.0014 86.6997C26.0014 87.5646 26.4671 88.0968 27.3319 88.2298C28.0636 88.2963 28.5958 88.4959 28.7954 89.2942C28.995 90.0925 28.5293 90.5581 27.9306 90.9573C27.5314 90.9573 27.1323 90.9573 26.6666 90.9573C24.1387 90.0925 23.1409 88.2963 23.3404 85.7019C23.407 84.3049 23.3404 82.8413 23.3404 81.4443C23.3404 78.6503 25.0701 76.9207 27.8641 76.9207C29.128 76.9207 30.4585 76.9207 31.789 76.9207C31.789 74.1267 31.789 71.3992 31.789 68.5387C31.4564 68.6717 31.2568 68.7382 30.9907 68.8713C28.7289 69.8691 26.4671 70.8005 24.1387 71.7983C21.5443 72.8627 20.2803 74.8584 20.2803 77.6525C20.2803 81.4443 20.2803 85.3027 20.2803 89.0946C20.2803 89.8929 20.0808 90.5581 19.349 90.9573C19.0829 90.9573 18.7503 90.9573 18.4842 90.9573C17.8189 90.4916 17.6194 89.8929 17.6194 89.0946C17.6194 85.3027 17.6194 81.4443 17.6194 77.6525C17.6194 73.7275 19.4155 70.9335 23.0078 69.4035C26.9993 67.6738 31.0572 65.9442 35.1152 64.2146C36.7118 63.5493 37.5766 62.485 37.4436 60.6888C37.377 59.3583 37.4436 58.0278 37.377 56.6974C37.377 56.3647 37.1109 55.8991 36.8448 55.6995C32.2547 52.6394 29.5937 48.4484 28.995 42.9934C28.995 42.9269 28.9285 42.8603 28.8619 42.6608C28.3963 42.5943 27.9306 42.5942 27.4649 42.5277C25.0701 42.1951 23.2074 40.1329 23.2074 37.738C23.2074 35.3431 25.0035 33.2143 27.3984 32.8817C28.2632 32.7487 29.128 32.8152 29.9263 32.8152C31.0572 32.7487 31.5229 32.4161 31.6559 31.2851C31.922 29.489 32.7869 28.6242 34.583 28.3581C42.2998 27.2272 49.4844 24.6327 56.1368 20.4417C57.0017 19.9095 57.7999 19.976 58.1991 20.7078C58.6647 21.3731 58.3986 22.1048 57.5338 22.7035C57.0682 23.0362 56.536 23.3688 56.0703 23.7014C56.0703 23.7014 56.0703 23.7679 56.0038 23.8344C56.0703 23.901 56.2034 23.9675 56.3364 24.1005C58.6647 25.6306 59.8622 27.8259 59.8622 30.6864C59.8622 32.6156 60.1948 32.9482 62.1905 32.9482C62.8558 32.9482 63.521 32.9482 64.2528 32.9482C64.6519 27.9589 63.7871 23.2357 60.727 19.1112C56.2699 12.991 48.4865 10.197 41.2354 12.0597C33.9178 13.9223 28.3963 20.1091 27.3984 27.5598C27.3319 27.9589 27.3319 28.3581 27.2654 28.8238C27.1323 29.6886 26.5336 30.0877 25.7353 29.9547C25.0035 29.8881 24.6044 29.2894 24.6709 28.4911C24.8705 25.431 25.7353 22.504 27.1988 19.843C28.5293 17.3816 30.3255 15.3194 32.4542 13.5897C32.7203 13.3236 33.053 12.9245 33.053 12.5919C33.3856 5.93946 38.5745 1.08319 44.096 0.484476C44.1625 0.484476 44.229 0.417954 44.3621 0.35143C45.4264 0.151857 46.3578 0.151855 47.2891 0.151855ZM45.4265 55.5665C52.6776 55.9656 59.463 50.1115 60.0618 42.7938C60.2613 40.2659 59.9287 39.8668 63.1219 39.9333C63.521 39.9333 63.9867 39.9333 64.3193 39.8002C65.2506 39.5341 65.8494 38.5363 65.7828 37.6049C65.7163 36.6071 64.9845 35.7423 63.9867 35.6092C63.0553 35.4762 62.124 35.5427 61.1927 35.4762C59.3965 35.3431 57.8665 34.0792 57.4673 32.3495C57.3343 31.7508 57.4008 31.0856 57.3343 30.4869C57.2677 28.1585 55.9372 26.3624 53.875 25.7636C53.2098 25.5641 52.611 25.5641 51.9458 25.8967C46.6239 28.4911 41.0359 30.1542 35.1817 31.0191C34.7161 31.0856 34.45 31.2186 34.3834 31.7508C34.1173 34.0126 32.5208 35.4096 30.1924 35.4762C29.3941 35.4762 28.6624 35.4762 27.8641 35.5427C26.7332 35.6757 25.9349 36.6071 25.8684 37.6715C25.8684 38.7359 26.6666 39.7337 27.7976 39.8668C28.3963 39.9333 29.0615 39.9333 29.6602 39.9333C31.1238 39.9333 31.4564 40.2659 31.5229 41.7294C32.0551 49.4462 37.7097 55.1673 45.4265 55.5665ZM56.2033 66.8756C56.0038 66.7425 55.8042 66.676 55.6712 66.6095C52.8771 65.5451 51.5467 63.4828 51.6797 60.4227C51.7462 59.4249 51.6797 58.3605 51.6797 57.3626C45.9586 58.56 46.1582 58.6266 40.1045 57.3626C40.1045 58.56 40.1045 59.7575 40.1045 60.9549C40.1045 63.5494 38.9071 65.412 36.5122 66.4099C36.2461 66.5429 35.9135 66.676 35.5809 66.8756C38.774 69.0043 41.9007 71.1331 45.0938 73.1953C45.6925 73.5945 46.2913 73.528 46.8235 73.1288C47.4887 72.6631 48.2205 72.1975 48.8857 71.7318C51.2806 70.2018 53.6754 68.5387 56.2033 66.8756ZM36.1796 11.0618C39.3062 9.46523 42.4994 8.73347 45.8921 8.73347C49.2848 8.73347 52.5445 9.53176 55.6046 11.0618C55.8042 7.40299 51.081 3.14545 46.5573 2.87935C41.5015 2.54673 36.3792 6.53817 36.1796 11.0618ZM55.7377 85.3027C55.7377 86.8993 57.0682 88.2298 58.6647 88.2298C60.2613 88.2298 61.5918 86.8993 61.5918 85.3027C61.5918 83.7062 60.2613 82.3757 58.6647 82.3757C57.0016 82.3757 55.7377 83.7062 55.7377 85.3027Z" fill="black"/>
<path d="M91.1951 80.1139C90.7294 80.7127 90.2637 81.1783 89.3989 80.9122C88.6006 80.5796 88.5341 79.9144 88.5341 79.1826C88.5341 75.9229 88.5341 72.5967 88.5341 69.337C88.5341 68.1396 88.268 67.7405 87.1371 67.4078C86.1392 67.0752 85.2079 66.7426 84.077 66.41C84.077 68.5387 84.077 70.601 84.077 72.5967C84.077 72.7963 84.4761 73.0624 84.6757 73.1954C86.4053 74.1933 87.2036 76.056 86.6714 77.9852C86.2058 79.7813 84.4761 81.1118 82.6134 81.0453C80.6842 81.0453 79.0877 79.6483 78.622 77.7856C78.2229 75.9894 79.0211 74.1268 80.7508 73.262C81.283 72.9959 81.416 72.7298 81.416 72.1976C81.3495 70.5345 81.416 68.8048 81.416 67.1417C81.416 67.0752 81.3495 67.0752 81.283 66.9422C80.4847 67.5409 79.7529 68.0731 78.9546 68.6718C77.6241 69.6696 76.4932 69.6696 75.1627 68.6718C74.2314 68.0065 73.3001 67.3413 72.4353 66.6095C71.9031 66.1439 71.3709 66.0108 70.7056 66.3434C70.5061 66.41 70.24 66.543 70.1069 66.4765C69.6412 66.2104 69.0425 66.0108 68.8429 65.6117C68.5103 65.0795 68.7764 64.4808 69.3086 64.0816C69.4417 64.0151 69.5747 63.9486 69.7078 63.882C70.3065 63.6825 71.1713 63.6159 71.4374 63.1503C71.77 62.6181 71.5039 61.7533 71.5704 61.088C71.7035 60.0902 71.3043 59.3584 70.506 58.6932C68.4438 56.897 67.3794 54.5021 67.3129 51.7747C67.2464 50.1781 67.2464 48.648 67.3129 47.0514C67.3794 43.3926 70.1069 40.4656 73.7657 40.1995C75.961 40.0664 78.1563 40.0664 80.2851 40.1995C83.8109 40.399 86.4718 42.8604 86.871 46.3197C87.0706 48.4485 87.004 50.6438 86.8045 52.7725C86.6049 55.367 85.2744 57.4292 83.2787 59.0923C82.8795 59.4249 82.68 59.7576 82.7465 60.2897C82.813 61.2876 82.7465 62.219 82.7465 63.2833C84.2766 63.8155 85.7401 64.3477 87.2701 64.8134C89.1993 65.3456 90.5963 66.3434 91.1951 68.3392C91.1951 72.0645 91.1951 76.056 91.1951 80.1139ZM69.9073 49.1802C69.9073 49.9785 69.9073 50.7103 69.9073 51.5086C70.0404 55.2339 72.9009 58.161 76.7593 58.4271C80.2186 58.6932 83.6113 56.0987 84.077 52.5729C84.3431 50.5772 84.3431 48.4485 84.21 46.3862C84.077 44.3905 82.4139 42.7939 80.4182 42.6609C78.2229 42.5278 76.0276 42.5278 73.7657 42.6609C71.5704 42.7939 69.9739 44.59 69.9073 46.8519C69.9073 47.6502 69.9073 48.4484 69.9073 49.1802ZM74.2314 60.8885C74.1649 61.8198 74.0318 62.9507 73.9653 64.0151C73.9653 64.1481 74.0983 64.3477 74.1649 64.4142C75.0962 65.146 76.0941 65.8778 77.0254 66.6095C78.0233 65.8778 78.8881 65.2125 79.7529 64.5473C79.886 64.4142 80.0855 64.2147 80.0855 64.0816C80.019 62.9507 79.8859 61.8198 79.8194 60.8885C78.0233 60.8885 76.1606 60.8885 74.2314 60.8885ZM84.2765 76.8543C84.2765 76.056 83.6113 75.3242 82.813 75.3242C82.0147 75.3242 81.3495 75.9229 81.283 76.7212C81.2164 77.5195 81.8817 78.2513 82.7465 78.3178C83.4783 78.3178 84.21 77.6525 84.2765 76.8543Z" fill="#3030FC"/>
<path d="M39.7054 90.8909C39.905 90.7578 40.1711 90.6913 40.3706 90.5582C42.0337 89.8265 42.8985 88.496 42.8985 86.6333C42.8985 84.8372 42.8985 82.9745 42.8985 81.1783C42.832 78.5839 41.1689 76.9208 38.508 76.8543C37.1775 76.8543 35.847 76.8543 34.45 76.8543C34.45 74.3263 34.45 71.9315 34.45 69.4036C34.7826 69.6031 35.0487 69.7362 35.3148 69.9358C37.9092 71.6654 40.4371 73.395 43.0316 75.0581C45.1604 76.4551 46.6239 76.4551 48.7527 75.0581C51.3471 73.3285 53.875 71.5989 56.4695 69.9358C56.7356 69.8027 56.9351 69.6031 57.2677 69.4036C57.2677 72.9293 57.2677 76.3886 57.2677 79.8478C55.8042 80.3135 54.6068 81.1783 53.8085 82.5088C52.0789 85.5024 53.4759 89.3608 56.7356 90.5582C57.0682 90.6913 57.4008 90.7578 57.7334 90.8909C51.7463 90.8909 45.6926 90.8909 39.7054 90.8909Z" fill="white"/>
<path d="M59.6626 90.8909C59.9287 90.7579 60.1948 90.6914 60.4609 90.5583C62.6562 89.76 64.1197 87.7643 64.1863 85.3694C64.2528 83.1741 62.8558 80.9788 60.727 80.1805C60.0618 79.9144 59.8622 79.5818 59.9287 78.9166C59.9287 75.79 59.9287 72.6633 59.9287 69.5367C59.9287 69.2706 59.9287 68.938 59.9287 68.5388C60.2613 68.6053 60.4609 68.6719 60.6605 68.7384C63.0554 69.7363 65.4502 70.7341 67.7786 71.7985C70.24 72.8629 71.4374 74.7921 71.4374 77.453C71.4374 81.3114 71.4374 85.1699 71.4374 89.0283C71.4374 89.8265 71.637 90.4918 72.3687 90.8909C68.1777 90.8909 63.9202 90.8909 59.6626 90.8909Z" fill="white"/>
<path d="M27.8641 90.8906C28.4628 90.4914 28.9285 90.0258 28.7289 89.2275C28.5293 88.4957 27.9971 88.2961 27.2654 88.1631C26.4005 88.03 26.0014 87.4313 25.9349 86.633C25.9349 84.7704 25.8683 82.9077 25.9349 81.045C25.9349 80.0471 26.6001 79.515 27.598 79.515C31.2568 79.515 34.9822 79.515 38.641 79.515C39.7054 79.515 40.2376 80.0471 40.3041 81.1781C40.3041 82.9742 40.3041 84.7704 40.3041 86.5665C40.3041 87.4979 39.8384 88.0966 38.9736 88.1631C38.3084 88.2296 37.7762 88.4292 37.5101 89.0944C37.244 89.8927 37.7096 90.3584 38.2418 90.8241C34.7826 90.8906 31.3233 90.8906 27.8641 90.8906Z" fill="white"/>
<path d="M19.349 90.8908C20.0808 90.4917 20.2803 89.8264 20.2803 89.0281C20.2803 85.2363 20.2803 81.3779 20.2803 77.586C20.2803 74.792 21.5443 72.7962 24.1387 71.7319C26.4006 70.8005 28.6624 69.8027 30.9907 68.8048C31.2568 68.6717 31.4564 68.6052 31.789 68.4722C31.789 71.2662 31.789 73.9937 31.789 76.8542C30.4585 76.8542 29.1946 76.8542 27.8641 76.8542C25.0701 76.8542 23.3404 78.5838 23.3404 81.3779C23.3404 82.7749 23.407 84.2384 23.3404 85.6354C23.2074 88.2298 24.1387 90.026 26.6667 90.8908C24.2053 90.8908 21.7439 90.8908 19.349 90.8908Z" fill="white"/>
<path d="M11.8318 67.8069C11.8318 69.47 11.8318 71.0001 11.8318 72.6632C12.364 72.6632 12.8296 72.6632 13.3618 72.6632C14.8919 72.7297 15.9563 73.7941 16.0228 75.3241C16.0228 76.322 16.0228 77.3199 16.0228 78.3177C16.0228 79.4486 15.291 80.4465 14.2266 80.8456C13.2288 81.2448 12.364 80.9787 12.0313 80.1139C11.6987 79.3156 12.1644 78.6503 13.2953 78.2512C13.2953 77.3199 13.2953 76.3885 13.2953 75.3907C11.3661 75.3907 9.50343 75.3907 7.5077 75.3907C7.5077 76.322 7.5077 77.2533 7.5077 78.1847L7.57423 78.2512C8.57209 78.5838 9.03776 79.1825 8.77166 79.9808C8.57209 80.7791 7.70727 81.1117 6.77594 80.8456C5.5785 80.513 4.84674 79.5152 4.78021 78.1847C4.78021 77.3199 4.78021 76.3885 4.78021 75.5237C4.78021 73.7276 5.91112 72.5967 7.70727 72.5967C8.10641 72.5967 8.43905 72.5967 8.90472 72.5967C8.90472 70.3348 8.90472 68.1395 8.90472 65.8112C7.24161 66.4099 5.51198 66.8756 3.84888 67.6073C3.44973 67.8069 3.11711 68.6052 3.11711 69.1374C3.05058 72.4636 3.1171 75.7898 3.05058 79.116C3.05058 79.5817 2.91754 80.1804 2.58492 80.4465C2.31883 80.7126 1.58706 80.8456 1.25444 80.6461C0.855296 80.4465 0.522667 79.8478 0.456143 79.4486C0.323095 78.1847 0.389615 76.8542 0.389615 75.5237C0.389615 73.3284 0.389615 71.1331 0.389615 68.9378C0.389615 66.8091 1.454 65.3455 3.44973 64.6803C5.04631 64.1481 6.6429 63.6159 8.23947 63.0837C8.77167 62.9507 8.97124 62.6846 8.90472 62.1524V62.0858C9.10429 60.3562 8.83817 58.8927 7.30812 57.6287C5.44544 56.0321 4.71368 53.6373 4.71368 51.1759C4.71368 49.3132 4.71368 47.384 4.71368 45.5213C4.71368 42.3282 6.97551 39.9333 10.1687 39.8003C13.0957 39.7337 16.0228 39.7337 18.9498 39.8003C22.143 39.8668 24.4048 42.2617 24.4048 45.4548C24.4048 47.9162 24.4714 50.4441 24.2053 52.9055C23.9392 55.2339 22.6752 57.1631 20.8125 58.6266C20.2803 59.0257 20.0808 59.4914 20.1473 60.0901C20.2138 60.6223 20.2138 61.221 20.1473 61.7532C20.0142 62.618 20.4134 63.0172 21.2117 63.2167C21.5443 63.2833 21.8769 63.4163 22.2095 63.5494C22.8748 63.882 23.1409 64.4807 22.9413 65.1459C22.6752 65.8777 22.0765 66.2769 21.4112 65.9442C20.2138 65.3455 19.482 65.9442 18.6838 66.6095C18.0185 67.1417 17.3533 67.6739 16.6215 68.1395C15.158 69.2704 14.0936 69.2039 12.6301 68.1395C12.4305 68.2726 12.1644 68.073 11.8318 67.8069ZM11.8318 47.251C10.5013 48.2488 9.10428 49.2467 7.7738 50.3111C7.57422 50.4441 7.5077 50.7767 7.5077 50.9763C7.37466 53.9699 9.23732 56.7639 11.9648 57.8948C14.6923 59.0257 17.8855 58.294 19.8812 56.0987C21.1452 54.7017 21.8104 53.0386 21.7439 51.1094C18.1516 50.7767 14.8254 49.5128 11.8318 47.251ZM7.5077 46.9849C7.64075 46.9849 7.70727 46.9849 7.70727 46.9849C8.50556 46.3861 9.23732 45.854 10.0356 45.2552C11.1665 44.4569 12.2974 44.3904 13.4949 45.1887C13.8275 45.3883 14.1601 45.6544 14.4927 45.9205C16.688 47.3175 19.0829 48.1823 21.8769 48.4484C21.8769 47.4505 21.8769 46.5192 21.8769 45.5879C21.8104 43.9913 20.8125 42.7273 19.216 42.7273C16.2224 42.6608 13.2288 42.6608 10.2352 42.7273C8.70514 42.7938 7.64076 43.9913 7.57423 45.5879C7.50771 45.987 7.5077 46.4527 7.5077 46.9849ZM14.6923 66.6095C15.6902 65.8777 16.6215 65.2125 17.4863 64.4807C17.6194 64.3477 17.7524 64.1481 17.7524 64.015C17.6859 62.9507 17.5528 61.8863 17.4863 60.9549C15.5571 60.9549 13.6944 60.9549 11.7652 60.9549C11.6987 61.8863 11.5657 63.0172 11.4992 64.0816C11.4992 64.2146 11.6322 64.4807 11.7652 64.5472C12.7631 65.2125 13.6944 65.8777 14.6923 66.6095Z" fill="#3030FC"/>
<path d="M45.4265 55.5665C37.7762 55.1673 32.0551 49.4462 31.656 41.7294C31.5894 40.2659 31.2568 39.9333 29.7933 39.9333C29.1946 39.9333 28.5293 39.9333 27.9306 39.8668C26.7997 39.7337 26.0014 38.7359 26.0014 37.6715C26.0014 36.5406 26.8662 35.6757 27.9971 35.5427C28.7289 35.4762 29.5272 35.5427 30.3255 35.4762C32.6538 35.4096 34.1839 34.0126 34.5165 31.7508C34.583 31.2186 34.7826 31.0856 35.3148 31.0191C41.1689 30.2208 46.7569 28.4911 52.0789 25.8967C52.7441 25.5641 53.3428 25.5641 54.0081 25.7636C56.0703 26.3624 57.4008 28.225 57.4673 30.4869C57.4673 31.0856 57.4673 31.7508 57.6004 32.3495C57.9995 34.0792 59.5296 35.3431 61.3257 35.4762C62.2571 35.5427 63.1884 35.4762 64.1197 35.6092C65.1841 35.7423 65.9159 36.6071 65.9159 37.6049C65.9824 38.5363 65.3172 39.5341 64.4524 39.8002C64.0532 39.9333 63.6541 39.9333 63.2549 39.9333C60.0618 39.8668 60.3944 40.2659 60.1948 42.7938C59.3965 50.1115 52.6776 55.9656 45.4265 55.5665ZM45.8921 48.2488C47.5552 48.2488 49.2849 47.8497 50.7484 46.7187C51.4802 46.1865 51.6797 45.3883 51.214 44.723C50.7484 44.0578 50.0166 44.0578 49.2183 44.59C47.1561 45.9205 44.6947 45.987 42.699 44.59C41.8341 43.9913 41.1024 44.0578 40.6367 44.7895C40.171 45.4548 40.3706 46.1866 41.2354 46.7853C42.4994 47.8497 44.096 48.2488 45.8921 48.2488ZM37.4436 37.738C37.4436 37.9376 37.4436 38.1371 37.4436 38.3367C37.5101 39.268 38.0423 39.7337 38.8406 39.7337C39.5723 39.7337 40.038 39.2015 40.1045 38.3367C40.1045 37.9376 40.1045 37.6049 40.1045 37.2058C40.038 36.2745 39.5723 35.7423 38.8406 35.7423C38.0423 35.7423 37.5101 36.2745 37.4436 37.2723C37.4436 37.4054 37.4436 37.5384 37.4436 37.738ZM51.6797 37.738C51.6797 38.0041 51.6797 38.2037 51.6797 38.4698C51.7462 39.268 52.2119 39.7337 52.9437 39.8002C53.6754 39.8002 54.2076 39.3346 54.3407 38.5363C54.3407 38.3367 54.3407 38.0706 54.3407 37.8045C54.3407 36.4075 53.875 35.7423 52.9437 35.7423C52.0789 35.7423 51.6797 36.341 51.6797 37.738Z" fill="white"/>
<path d="M56.2034 66.8756C53.742 68.5387 51.2806 70.1352 48.8857 71.7983C48.2205 72.264 47.4887 72.7297 46.8235 73.1954C46.2247 73.5945 45.626 73.5945 45.0938 73.2619C41.9672 71.1996 38.8406 69.0709 35.5809 66.9421C35.98 66.7425 36.2461 66.6095 36.5122 66.4764C38.9071 65.412 40.1045 63.6159 40.1045 61.0214C40.1045 59.824 40.1045 58.6266 40.1045 57.4291C46.1582 58.6931 45.9586 58.6266 51.6797 57.4291C51.6797 58.4935 51.7462 59.4914 51.6797 60.4892C51.5467 63.4828 52.8772 65.5451 55.6712 66.676C55.8042 66.676 55.9373 66.809 56.2034 66.8756Z" fill="white"/>
<path d="M36.1796 11.0619C36.4457 6.53828 41.5015 2.54684 46.5574 2.87946C51.0145 3.14555 55.8042 7.40309 55.6047 11.0619C52.5445 9.53187 49.2849 8.73358 45.8921 8.73358C42.4994 8.73358 39.2397 9.46534 36.1796 11.0619Z" fill="white"/>
<path d="M69.9073 49.1801C69.9073 48.3818 69.9073 47.65 69.9073 46.8517C69.9738 44.5899 71.5704 42.7937 73.7657 42.6607C75.961 42.5277 78.1563 42.5277 80.4181 42.6607C82.4139 42.7937 84.077 44.3238 84.21 46.386C84.3431 48.4483 84.3431 50.5105 84.077 52.5728C83.6113 56.0986 80.2186 58.693 76.7593 58.4269C72.9674 58.1608 70.0404 55.2338 69.9073 51.5084C69.9073 50.7101 69.9073 49.9783 69.9073 49.1801Z" fill="white"/>
<path d="M74.2314 60.8885C76.1606 60.8885 78.0232 60.8885 79.8859 60.8885C79.9524 61.8198 80.0855 62.9507 80.152 64.0816C80.152 64.2147 79.9524 64.4143 79.8194 64.5473C78.9546 65.2126 78.0232 65.8778 77.0919 66.6096C76.1606 65.8778 75.1627 65.146 74.2314 64.4143C74.0983 64.3477 73.9653 64.1482 74.0318 64.0151C74.0318 62.9507 74.1648 61.8864 74.2314 60.8885Z" fill="white"/>
<path d="M84.2765 76.8542C84.2765 77.6524 83.5448 78.3842 82.68 78.3177C81.8817 78.2512 81.2164 77.5859 81.2164 76.7211C81.283 75.9228 81.8817 75.3241 82.7465 75.3241C83.6113 75.3241 84.2765 75.9893 84.2765 76.8542Z" fill="white"/>
<path d="M11.8318 47.2508C14.8919 49.5126 18.1516 50.7766 21.8769 51.1092C21.9434 53.1049 21.2782 54.7015 20.0142 56.0985C18.0185 58.2938 14.8254 59.0256 12.0979 57.8947C9.30385 56.7637 7.50769 53.9697 7.64074 50.9761C7.64074 50.7101 7.70728 50.444 7.90685 50.3109C9.10429 49.2465 10.4348 48.2487 11.8318 47.2508Z" fill="white"/>
<path d="M7.50769 46.9848C7.50769 46.4526 7.50769 45.9869 7.50769 45.5213C7.57421 43.9247 8.6386 42.7273 10.1687 42.6607C13.1622 42.5942 16.1558 42.5942 19.1494 42.6607C20.746 42.7273 21.7439 43.9247 21.8104 45.5213C21.8104 46.4526 21.8104 47.3839 21.8104 48.3818C19.0829 48.1822 16.688 47.2509 14.4262 45.8539C14.0936 45.6543 13.761 45.3882 13.4283 45.1221C12.2309 44.3238 11.1665 44.3238 9.96907 45.1886C9.17078 45.7874 8.43902 46.3196 7.64073 46.9183C7.70725 46.9848 7.64074 46.9848 7.50769 46.9848Z" fill="white"/>
<path d="M14.6923 66.6096C13.6944 65.8778 12.7631 65.2126 11.8983 64.4808C11.7652 64.3477 11.5656 64.1482 11.6322 64.0151C11.6987 62.9507 11.7652 61.8864 11.8983 60.8885C13.761 60.8885 15.6901 60.8885 17.6193 60.8885C17.6859 61.8198 17.8189 62.8842 17.8855 63.9486C17.8855 64.0817 17.7524 64.3477 17.6193 64.4143C16.6215 65.2126 15.6901 65.8778 14.6923 66.6096Z" fill="white"/>
<path d="M45.8921 48.2488C44.0959 48.2488 42.4994 47.7832 41.1689 46.7853C40.3706 46.1866 40.1045 45.4548 40.5702 44.7896C41.0358 44.1243 41.8341 44.0578 42.6324 44.59C44.6281 45.9205 47.1561 45.9205 49.1518 44.59C49.9501 44.0578 50.7484 44.1243 51.1475 44.723C51.6132 45.3883 51.4136 46.12 50.6818 46.7188C49.2848 47.8497 47.5552 48.3153 45.8921 48.2488Z" fill="black"/>
<path d="M37.4435 37.7379C37.4435 37.5383 37.4435 37.4053 37.4435 37.2057C37.5101 36.2744 38.0423 35.6757 38.8406 35.6757C39.5723 35.6757 40.1045 36.2744 40.1045 37.1392C40.1045 37.5383 40.1045 37.871 40.1045 38.2701C40.038 39.1349 39.6388 39.6671 38.8406 39.6671C38.0423 39.6671 37.5101 39.2014 37.4435 38.2701C37.4435 38.137 37.4435 37.9375 37.4435 37.7379Z" fill="black"/>
<path d="M51.6797 37.738C51.6797 36.341 52.0789 35.7422 52.9437 35.7422C53.875 35.7422 54.3407 36.4075 54.3407 37.8045C54.3407 38.0706 54.3407 38.2702 54.3407 38.5363C54.2742 39.4011 53.742 39.8667 52.9437 39.8002C52.2119 39.8002 51.7462 39.268 51.6797 38.4697C51.6797 38.2036 51.6797 37.9375 51.6797 37.738Z" fill="black"/>
</svg>
