<svg width="89" height="100" viewBox="0 0 89 100" fill="none" xmlns="http://www.w3.org/2000/svg">
<path d="M15.4006 69.6256C18.1946 67.896 20.9221 66.2994 23.583 64.6363C23.8491 64.4368 23.9822 63.9046 24.0487 63.5054C24.1152 59.7801 23.9822 56.0548 24.1817 52.396C24.5809 44.2801 30.701 37.1621 38.6173 35.366C39.0165 35.2995 39.3491 35.2329 39.8813 35.0999C33.6281 30.8424 30.5015 25.0548 31.1667 17.5377C31.6324 12.5484 33.8942 8.42396 37.8191 5.23083C45.5358 -1.02237 56.6452 -0.0245218 63.098 7.55916C66.6903 11.8167 68.0873 16.8059 67.2225 22.2609C66.3577 27.7823 63.3641 31.9733 58.7074 34.9668C60.304 35.5656 61.9006 36.0977 63.4971 36.6299C63.7632 36.6964 64.0293 36.6299 64.2954 36.5634C67.2225 35.6986 69.9499 35.9647 72.5443 37.6943C73.01 38.0269 73.2761 37.8939 73.7418 37.6278C79.5293 33.969 86.9799 37.1621 88.2439 43.881C88.9091 47.2737 87.8447 50.2007 85.4499 52.5956C82.0572 55.9883 78.6645 59.4475 75.2053 62.8402C74.54 63.5054 74.407 64.1707 74.6066 64.9689C75.3383 65.0355 76.0701 65.0355 76.8018 65.235C79.3297 65.9003 80.9263 67.5634 81.392 70.1578C81.7911 72.7522 80.8598 74.8144 78.731 76.2779C76.2696 77.941 73.7418 79.5376 71.2804 81.1342C67.0229 83.8616 62.7654 86.5226 58.5744 89.3165C55.2482 91.5118 51.7225 91.9775 47.9306 90.7135C42.6088 88.8509 37.2204 87.1878 31.8985 85.3917C31.2998 85.1921 30.8341 85.2586 30.3019 85.5912C29.2375 86.323 28.1066 86.9882 26.9092 87.6535C27.4414 88.4517 27.9071 89.1835 28.3727 89.9818C28.9049 90.9131 28.7719 91.5783 27.9071 92.177C24.4478 94.4389 20.9221 96.6341 17.3963 98.8959C16.465 99.4946 15.7998 99.2285 15.1346 98.1642C10.9436 91.5783 6.75259 85.059 2.56161 78.4732C2.22899 78.0076 1.89637 77.5419 1.63028 77.0097C1.16462 76.2114 1.29766 75.4797 2.02942 75.014C5.62169 72.6857 9.14744 70.4239 12.7397 68.1621C13.538 67.6964 14.1367 67.8295 14.7354 68.6277C14.935 68.8938 15.1346 69.2264 15.4006 69.6256ZM60.7032 38.6256C60.7032 38.4926 60.7032 38.4261 60.7032 38.293C59.1731 38.0934 57.6431 37.6943 56.113 37.6278C51.5229 37.5613 46.8663 37.5613 42.2096 37.6278C41.6774 37.6278 41.2118 37.6943 40.6796 37.7608C32.4307 39.0248 26.7762 45.6106 26.7096 53.926C26.7096 56.587 26.7096 59.3144 26.7096 61.9754C26.7096 62.2415 26.7096 62.5076 26.7762 62.8402C30.9671 62.175 31.2998 62.175 34.6259 63.3059C40.9457 65.4346 47.3319 67.5634 53.6517 69.6256C56.113 70.4239 58.3083 71.4217 59.2396 74.0827C59.6388 73.8831 59.9049 73.6835 60.171 73.5505C63.6302 71.3552 67.0894 69.0934 70.5486 66.8981C71.9456 66.0333 72.1452 64.1041 70.9478 62.9067C67.4885 59.4475 64.0958 56.0548 60.6366 52.5956C58.3748 50.3338 57.377 47.6063 57.7761 44.4132C58.1087 42.0849 59.1066 40.2222 60.7032 38.6256ZM49.2611 34.8338C57.7761 34.8338 64.6946 27.8488 64.7611 19.3338C64.7611 10.7523 57.7761 3.83384 49.1946 3.83384C40.6796 3.83384 33.7611 10.8188 33.7611 19.3338C33.7611 27.9153 40.7461 34.9003 49.2611 34.8338ZM16.8642 71.9539C19.7247 76.4775 22.5187 80.8681 25.3792 85.2586C26.8427 84.3938 28.2397 83.529 29.6367 82.6642C30.3684 82.1985 30.9671 82.132 31.7654 82.3981C37.4199 84.3273 43.0744 86.1234 48.7289 88.0526C51.656 89.0504 54.3169 88.7178 56.9113 87.0547C60.6366 84.5934 64.3619 82.265 68.0873 79.8702C71.0143 77.941 74.0079 76.0784 76.9349 74.1492C78.2654 73.2844 78.9306 72.1535 78.6645 70.5569C78.1988 68.029 75.5379 66.8981 73.2761 68.2951C68.8855 71.0891 64.495 73.9496 60.1044 76.8101C59.7718 77.0097 59.5057 77.4754 59.3727 77.808C58.5744 79.9367 57.1774 81.5333 54.9156 81.9324C53.9178 82.132 52.8534 82.0655 51.9221 81.7994C48.5294 80.8015 45.2032 79.6041 41.8105 78.4732C41.0787 78.2071 40.6131 77.808 40.6796 77.0097C40.7461 76.2779 41.1452 75.8788 41.8105 75.8123C42.1431 75.7458 42.5422 75.8788 42.9414 76.0118C46.068 77.0762 49.1946 78.1406 52.3877 79.1385C54.4499 79.8037 56.113 78.9389 56.7783 76.9432C57.377 75.0805 56.5122 73.2844 54.583 72.6191C47.1989 70.1578 39.7482 67.6964 32.3641 65.235C30.5015 64.6363 28.7053 64.7694 26.9757 65.7672C23.5165 67.8295 20.2569 69.8917 16.8642 71.9539ZM72.877 60.911C76.6688 57.1857 80.4606 53.6599 84.0529 49.9346C86.4477 47.4067 86.1151 43.2823 83.6538 40.8209C81.1259 38.293 77.201 38.16 74.4735 40.4218C73.2096 41.4861 72.9435 41.4861 71.6795 40.4218C70.0164 39.0913 68.1538 38.5591 66.025 38.9582C63.4306 39.4904 61.568 41.0205 60.7697 43.6149C59.9714 46.1428 60.5036 48.4711 62.3662 50.4003C64.6946 52.7951 67.0894 55.1235 69.4177 57.5183C70.6817 58.6492 71.8126 59.8466 72.877 60.911ZM4.49079 76.544C8.61525 83.0633 12.7397 89.4496 16.7976 95.9024C19.6582 94.0397 22.5187 92.2436 25.3126 90.4474C21.1882 83.9281 17.1303 77.5419 13.0058 71.0891C10.1453 72.9518 7.41782 74.6814 4.49079 76.544Z" fill="black" stroke="black" stroke-miterlimit="10"/>
<path d="M60.7032 38.626C59.1067 40.2226 58.1088 42.0853 57.8427 44.3471C57.4436 47.5402 58.4414 50.2677 60.7032 52.5295C64.1625 55.9887 67.5552 59.3814 71.0144 62.8406C72.2118 64.038 72.0122 65.9672 70.6152 66.832C67.156 69.0273 63.6968 71.2891 60.2376 73.4844C59.9715 73.6839 59.7054 73.817 59.3062 74.0165C58.3749 71.2891 56.1796 70.3577 53.7183 69.5595C47.332 67.4972 41.0123 65.3685 34.6925 63.2397C31.3664 62.1754 31.1003 62.1088 26.8428 62.7741C26.8428 62.508 26.7762 62.2419 26.7762 61.9093C26.7762 59.2483 26.7762 56.5209 26.7762 53.8599C26.8428 45.5445 32.4973 38.9587 40.7462 37.6947C41.2784 37.6282 41.744 37.5617 42.2762 37.5617C46.9329 37.5617 51.523 37.4951 56.1796 37.5617C57.7097 37.5617 59.2397 37.9608 60.7697 38.2269C60.7032 38.4265 60.7032 38.5595 60.7032 38.626Z" fill="white" stroke="black" stroke-miterlimit="10"/>
<path d="M49.2611 34.8343C40.7461 34.8343 33.7612 27.9159 33.7612 19.4009C33.7612 10.8858 40.6796 3.90088 49.1946 3.90088C57.7762 3.90088 64.7611 10.8193 64.7611 19.4009C64.6946 27.9159 57.7762 34.8343 49.2611 34.8343Z" fill="white" stroke="black" stroke-miterlimit="10"/>
<path d="M16.8642 71.9542C20.2569 69.892 23.5831 67.8298 26.9092 65.9006C28.5723 64.9027 30.435 64.7697 32.2976 65.3684C39.6818 67.7632 47.1324 70.2246 54.5165 72.7525C56.4457 73.4177 57.377 75.2139 56.7118 77.0765C56.0465 79.0722 54.3834 79.9371 52.3212 79.2718C49.1946 78.274 46.0015 77.2096 42.8749 76.1452C42.5423 76.0122 42.1431 75.8791 41.744 75.9456C41.0788 76.0122 40.6796 76.4778 40.6131 77.1431C40.5466 77.9413 41.0122 78.3405 41.744 78.6066C45.0702 79.7375 48.4629 80.8684 51.8556 81.9328C52.7869 82.1989 53.9178 82.2654 54.8491 82.0658C57.1774 81.6667 58.5079 80.0701 59.3062 77.9413C59.4392 77.5422 59.7053 77.1431 60.038 76.9435C64.4285 74.083 68.8191 71.289 73.2096 68.4285C75.4714 66.965 78.1989 68.0959 78.598 70.6903C78.8641 72.2203 78.1989 73.4177 76.8684 74.2826C73.9414 76.2117 70.9478 78.0744 68.0208 80.0036C64.2955 82.3984 60.5701 84.7267 56.8448 87.1881C54.2504 88.9177 51.5895 89.1838 48.6624 88.186C43.0079 86.2568 37.3534 84.4606 31.6989 82.5315C30.9007 82.2654 30.2354 82.3319 29.5702 82.7976C28.2397 83.6624 26.7762 84.5272 25.3127 85.392C22.5187 80.8684 19.7247 76.4778 16.8642 71.9542Z" fill="white" stroke="black" stroke-miterlimit="10"/>
<path d="M72.877 60.911C71.8126 59.8467 70.6817 58.6493 69.4843 57.5184C67.0894 55.1235 64.6946 52.7952 62.4328 50.4003C60.5701 48.4712 60.0379 46.1428 60.8362 43.6149C61.6345 41.087 63.4306 39.4905 66.0916 38.9583C68.1538 38.5592 70.083 39.0913 71.7461 40.4218C73.01 41.4862 73.2761 41.4862 74.5401 40.4218C77.2675 38.16 81.2589 38.2931 83.7203 40.821C86.1817 43.2823 86.5143 47.4068 84.1194 49.9347C80.4607 53.66 76.6688 57.1857 72.877 60.911ZM71.6796 47.0742C71.48 47.2072 71.48 47.2072 71.4135 47.2072C70.6152 47.2072 69.8169 47.2072 69.0186 47.2072C68.0873 47.2072 67.4886 47.7394 67.422 48.4712C67.422 49.2694 68.0208 49.8682 69.0186 49.8682C69.8834 49.8682 70.7482 49.8682 71.613 49.8682C71.613 50.7995 71.613 51.5978 71.613 52.396C71.613 53.5269 72.1452 54.1257 73.01 54.1257C73.8748 54.1257 74.3405 53.5269 74.3405 52.396C74.3405 51.5978 74.3405 50.7995 74.3405 49.9347C75.3383 49.9347 76.1366 49.9347 77.0014 49.9347C77.9993 49.9347 78.598 49.336 78.598 48.5377C78.598 47.7394 77.9993 47.2737 77.0014 47.2737C76.1366 47.2737 75.2718 47.2737 74.407 47.2737C74.407 46.3424 74.407 45.4776 74.407 44.6793C74.407 43.6149 73.8748 43.0827 73.01 43.0827C72.1452 43.0827 71.6795 43.6815 71.613 44.6793C71.6795 45.4776 71.6796 46.2759 71.6796 47.0742Z" fill="white" stroke="black" stroke-miterlimit="10"/>
<path d="M4.49078 76.5442C7.35129 74.6815 10.1453 72.9519 13.0058 71.0892C17.1302 77.542 21.1882 83.9283 25.3126 90.4476C22.4521 92.2437 19.6581 94.0398 16.7976 95.9025C12.7397 89.4497 8.68176 83.0635 4.49078 76.5442Z" fill="white" stroke="black" stroke-miterlimit="10"/>
<path d="M71.6795 47.0744C71.6795 46.2761 71.6795 45.4778 71.6795 44.613C71.6795 43.5487 72.2117 43.0165 73.0765 43.0165C73.9413 43.0165 74.407 43.5487 74.4735 44.613C74.4735 45.4113 74.4735 46.2761 74.4735 47.2075C75.4048 47.2075 76.2696 47.2075 77.0679 47.2075C77.9992 47.2075 78.598 47.7396 78.6645 48.4714C78.731 49.2697 78.0658 49.8684 77.0679 49.8684C76.2696 49.8684 75.4048 49.8684 74.407 49.8684C74.407 50.7332 74.407 51.5315 74.407 52.3298C74.407 53.4607 73.8748 54.0594 73.0765 54.0594C72.2117 54.0594 71.746 53.4607 71.6795 52.3298C71.6795 51.5315 71.6795 50.7332 71.6795 49.8019C70.7482 49.8019 69.8834 49.8019 69.0851 49.8019C68.0872 49.8019 67.4885 49.2032 67.4885 48.4049C67.4885 47.6066 68.0872 47.1409 69.0851 47.1409C69.8834 47.1409 70.6817 47.1409 71.4799 47.1409C71.4799 47.2075 71.4799 47.2075 71.6795 47.0744Z" fill="#3030FC" stroke="#3030FC" stroke-miterlimit="10"/>
</svg>
