<svg width="96" height="96" viewBox="0 0 96 96" fill="none" xmlns="http://www.w3.org/2000/svg">
<path d="M66.2845 64.6091C66.1499 67.1652 65.9481 69.654 65.8136 72.2101C65.4773 78.0623 65.2082 83.9817 64.8046 89.8338C64.5355 93.5335 62.1812 95.7533 58.7507 95.6187C55.791 95.4842 53.5712 93.3317 53.3694 90.372C53.3694 89.9011 53.3694 89.363 53.3694 88.8921C53.3694 72.2101 53.3694 55.5954 53.3694 38.9135C53.3694 38.1063 53.1003 37.1645 52.6295 36.4919C46.6428 27.8818 40.6561 19.339 34.6022 10.7963C32.5842 7.97108 33.1223 4.60778 35.7457 2.85886C38.2345 1.17721 41.3288 1.84988 43.3468 4.40598C46.5083 8.57648 49.6698 12.747 52.8313 16.9175C53.8403 18.2628 54.8492 19.6081 55.8582 20.8862C57.1363 22.5005 58.8179 23.4423 60.9705 23.4423C63.3248 23.5095 65.6791 23.5095 68.0334 23.4423C70.3204 23.4423 72.0693 22.366 73.4819 20.5498C77.5851 15.1013 81.6884 9.65274 85.8589 4.27145C87.4733 2.18621 89.7603 1.37901 91.9801 2.11894C95.5452 3.26246 96.8232 7.36569 94.6035 10.6617C92.3164 14.025 89.8948 17.3211 87.5405 20.6171C83.7736 25.9311 80.0067 31.2451 76.2398 36.5591C75.9708 36.9627 75.7017 37.4336 75.7017 37.9045C75.769 42.6131 75.7017 47.2544 76.038 51.9631C76.2398 54.4519 76.9798 56.8735 77.7197 59.2951C80.8139 68.9141 84.0427 78.4659 87.2042 88.0849C88.415 91.7173 86.5315 95.0133 82.8992 95.6187C80.4103 96.0223 77.9215 94.5425 76.9125 91.9191C75.029 87.1432 73.2129 82.3 71.3967 77.5242C69.9168 73.6227 68.437 69.7213 66.8899 65.8199C66.7553 65.4163 66.5535 65.0799 66.419 64.6763C66.3517 64.5418 66.3517 64.6091 66.2845 64.6091ZM56.3291 63.5328C56.3291 72.0083 56.3291 80.4839 56.3291 88.9594C56.3291 89.363 56.3291 89.7666 56.3291 90.1029C56.4636 91.65 57.5399 92.5245 59.0197 92.5245C60.7686 92.5245 61.6431 91.4482 61.7776 89.363C62.2485 80.7529 62.7866 72.1429 63.2575 63.4656C63.392 61.3803 63.5266 59.2951 63.6611 57.2098C63.7284 56.3354 63.9974 55.6627 64.9391 55.5282C65.8809 55.3936 66.3517 55.9318 66.6881 56.739C66.7553 56.9408 66.8226 57.0753 66.8899 57.2771C70.1186 65.6853 73.2801 74.0263 76.5089 82.4346C77.5851 85.1925 78.6614 88.0176 79.7377 90.7756C80.1413 91.9191 81.0157 92.5245 82.2265 92.5245C83.37 92.5245 84.2445 91.9191 84.4463 90.8428C84.6481 90.1702 84.5135 89.2957 84.3117 88.623C81.8229 81.022 79.2668 73.4209 76.778 65.8199C75.3654 61.5148 73.5492 57.2098 73.1456 52.6357C72.8093 48.5325 72.9438 44.4293 72.6747 40.326C72.4729 37.4336 73.3474 35.2138 75.029 32.8595C80.6794 25.1239 86.1279 17.3211 91.711 9.5182C91.9128 9.24914 92.0474 9.04734 92.2492 8.77828C93.0563 7.43296 92.8545 6.02037 91.7783 5.28044C90.6348 4.47325 89.2222 4.74232 88.2132 6.02037C84.11 11.4689 80.0067 16.8502 75.8362 22.2987C73.751 24.9894 71.0604 26.402 67.6298 26.402C65.6791 26.402 63.7284 26.3347 61.8449 26.402C58.078 26.4692 55.2528 24.9894 52.9658 22.0297C49.0644 16.8502 45.0957 11.6707 41.1942 6.49123C40.9252 6.1549 40.5888 5.7513 40.2525 5.48224C39.3108 4.74231 38.0327 4.74231 37.1583 5.48224C36.2838 6.22217 36.082 7.43295 36.6874 8.50921C36.8892 8.84554 37.091 9.18187 37.3601 9.45094C43.414 18.1283 49.5352 26.7383 55.5892 35.4156C56.06 36.0883 56.3291 37.03 56.3291 37.8372C56.3291 46.4472 56.3291 54.99 56.3291 63.5328Z" fill="black"/>
<path d="M43.7504 61.3802C44.423 61.3802 45.0284 61.3802 45.5665 61.3802C48.5935 61.5821 51.0824 63.8691 51.0824 66.8961C51.1496 73.8917 51.1496 80.8874 51.1496 87.9503C51.1496 88.892 50.6788 89.5647 49.6698 89.5647C48.6608 89.5647 48.1899 88.9593 48.1227 88.0176C48.1227 87.8158 48.1227 87.5467 48.1227 87.1431C47.1137 87.6813 46.7773 88.4212 46.7101 89.2956C46.5755 90.5064 47.0464 91.5154 48.1227 92.1208C48.5263 92.3899 49.0644 92.4572 49.5353 92.5244C50.5442 92.7262 51.1496 93.3316 51.0824 94.2061C50.9478 95.0805 50.2079 95.5514 49.1989 95.4841C46.5083 95.2823 44.2885 93.2643 43.7504 90.5737C43.2795 88.0176 44.6248 85.327 47.0464 84.2507C47.9881 83.8471 48.1899 83.3762 48.1227 82.4345C48.0554 80.1475 48.1227 77.8604 48.1227 75.5061C45.163 75.5061 42.2705 75.5061 39.5126 75.5061C39.109 77.6586 38.9745 79.7439 38.3691 81.6946C35.8802 90.2374 27.5393 96.0895 18.8619 95.4841C9.57923 94.8115 2.1127 88.0176 0.767376 79.0039C-0.443412 70.663 3.86162 62.4565 11.4627 58.7569C12.2026 58.4205 12.4717 58.017 12.4717 57.2098C12.4044 54.6537 12.4717 52.0975 12.4717 49.3396C11.8663 49.3396 11.3954 49.3396 10.9245 49.3396C9.4447 49.3396 8.77204 48.8688 8.77204 47.8598C8.77204 46.8508 9.44469 46.4472 10.9918 46.4472C11.3954 46.4472 11.8663 46.4472 12.4044 46.4472C12.4044 40.9987 12.4044 35.6174 12.4044 30.0343C11.5299 30.0343 10.6555 30.0343 9.78103 30.0343C8.03211 30.0343 6.28319 30.0343 4.53428 30.0343C3.59255 30.0343 2.98716 29.6307 2.85263 28.6217C2.78536 27.7472 3.39075 27.1419 4.46701 27.0746C4.60154 27.0746 4.80334 27.0746 4.93787 27.0746C7.69577 27.0746 10.521 27.0746 13.2789 27.0746C15.0278 27.0746 15.4314 27.4782 15.4314 29.1598C15.4314 34.4066 15.4314 39.7206 15.4314 44.9673C15.4314 45.3709 15.4314 45.7745 15.4314 46.4472C15.9695 46.4472 16.4404 46.4472 16.844 46.4472C22.8306 46.4472 28.75 46.4472 34.7367 46.4472C35.6784 46.4472 36.4184 46.7163 37.091 47.3889C38.9745 49.3396 40.9252 51.2231 42.8086 53.1738C43.2795 53.7119 43.6158 54.5191 43.6831 55.1918C43.8176 57.2098 43.7504 59.2277 43.7504 61.3802ZM19.8709 92.5917C28.8846 92.5917 36.2166 85.2597 36.2838 76.3133C36.2838 67.2997 28.9518 59.9004 19.9382 59.8331C10.9245 59.8331 3.52529 67.2324 3.52529 76.246C3.59255 85.2597 10.9246 92.5917 19.8709 92.5917ZM40.7234 61.3802C40.7234 59.4968 40.7907 57.8151 40.7234 56.1335C40.7234 55.6626 40.4543 55.0572 40.118 54.7209C38.6382 53.1738 37.1583 51.6267 35.6112 50.2141C35.2076 49.8105 34.4677 49.5414 33.9295 49.5414C28.2119 49.4742 22.4943 49.5414 16.7094 49.5414C16.3058 49.5414 15.9695 49.6087 15.5659 49.6087C15.5659 52.2321 15.5659 54.7882 15.5659 57.4116C15.835 57.4116 16.0368 57.4116 16.2386 57.3443C21.9562 56.3353 27.1357 57.5461 31.777 61.0439C32.0461 61.2457 32.3151 61.4475 32.5842 61.4475C35.2748 61.3803 37.8982 61.3802 40.7234 61.3802ZM39.0417 72.5464C40.5216 72.5464 42.0015 72.5464 43.4813 72.5464C45.0284 72.5464 46.5755 72.5464 48.1227 72.5464C48.1227 70.8648 48.1227 69.3849 48.1227 67.8378C48.1227 65.4162 47.0464 64.34 44.5575 64.34C41.7996 64.34 38.9745 64.34 36.2166 64.34C35.9475 64.34 35.6112 64.4072 35.3421 64.4072C36.082 65.7525 36.8892 67.0306 37.4946 68.3087C38.1 69.654 38.5036 71.0666 39.0417 72.5464Z" fill="#3030FC"/>
<path d="M74.8945 10.7288C74.8945 16.5137 70.2532 21.2223 64.5356 21.2223C58.8852 21.2223 54.1766 16.581 54.1093 10.9306C54.0421 5.14576 58.6834 0.437139 64.401 0.437139C70.1859 0.302607 74.8945 5.01123 74.8945 10.7288ZM57.1363 10.7961C57.1363 14.8993 60.4323 18.1954 64.4683 18.2626C68.5715 18.3299 71.9348 14.9666 72.0021 10.8634C72.0021 6.82741 68.7061 3.46411 64.6701 3.39684C60.4996 3.32958 57.1363 6.62561 57.1363 10.7961Z" fill="black"/>
<path d="M56.3291 63.5325C56.3291 54.9897 56.3291 46.3797 56.2619 37.8369C56.2619 37.0297 55.9928 36.088 55.5219 35.4153C49.468 26.738 43.414 18.128 37.2928 9.45066C37.091 9.11433 36.822 8.84526 36.6202 8.50893C36.0148 7.43268 36.2166 6.22189 37.091 5.48196C37.9655 4.74204 39.2435 4.67477 40.1853 5.48196C40.5216 5.75103 40.8579 6.15462 41.127 6.49095C45.0957 11.6704 48.9971 16.8499 52.8986 22.0294C55.1183 24.9891 58.0108 26.5362 61.7777 26.4017C63.7284 26.3344 65.6791 26.4017 67.5625 26.4017C70.9931 26.4017 73.6838 25.0564 75.769 22.2985C79.8722 16.8499 83.9754 11.4014 88.1459 6.02009C89.1549 4.74204 90.5675 4.47297 91.711 5.28017C92.7873 6.08736 92.9891 7.49994 92.1819 8.778C92.0474 9.04706 91.8456 9.31612 91.6438 9.51792C86.1279 17.3208 80.6794 25.1909 74.9618 32.8592C73.2801 35.1463 72.4057 37.4333 72.6075 40.3258C72.9438 44.429 72.742 48.5322 73.0784 52.6354C73.482 57.2095 75.2981 61.4473 76.7107 65.8196C79.1996 73.4206 81.7557 81.0217 84.2445 88.6228C84.4463 89.2954 84.5808 90.1699 84.379 90.8425C84.11 91.9188 83.2355 92.5242 82.1593 92.5242C80.9485 92.5242 80.1413 91.9188 79.6704 90.7753C78.5942 88.0174 77.5179 85.1922 76.4417 82.4343C73.2129 74.026 70.0514 65.6851 66.8226 57.2768C66.7553 57.075 66.6881 56.9405 66.6208 56.7387C66.3517 55.9315 65.8136 55.3933 64.8719 55.5279C63.9302 55.6624 63.6611 56.3351 63.5938 57.2095C63.4593 59.2948 63.3248 61.38 63.1902 63.4653C62.7194 72.0753 62.1812 80.6854 61.7104 89.3627C61.5758 91.4479 60.7014 92.5242 58.9525 92.5242C57.4054 92.5242 56.3964 91.5825 56.2619 90.1026C56.1946 89.699 56.2619 89.2954 56.2619 88.9591C56.3291 80.5508 56.3291 72.008 56.3291 63.5325Z" fill="white"/>
<path d="M19.8709 92.5918C10.9246 92.5918 3.5253 85.2598 3.5253 76.2462C3.5253 67.2325 10.9246 59.8333 19.9382 59.8333C28.9518 59.8333 36.2838 67.2325 36.2838 76.3134C36.2838 85.3271 28.8846 92.5918 19.8709 92.5918ZM28.0774 76.3134C28.0774 71.8066 24.3778 68.107 19.8709 68.107C15.4314 68.107 11.7317 71.7393 11.6645 76.1789C11.5972 80.6185 15.2968 84.4526 19.8037 84.4526C24.3105 84.5199 28.0774 80.753 28.0774 76.3134Z" fill="white"/>
<path d="M40.7234 61.38C37.8983 61.38 35.2076 61.38 32.5842 61.38C32.3152 61.38 31.9788 61.1782 31.777 60.9764C27.1357 57.4785 21.9562 56.2677 16.2386 57.2767C16.0368 57.2767 15.835 57.344 15.5659 57.344C15.5659 54.7206 15.5659 52.1645 15.5659 49.5411C15.9695 49.5411 16.3731 49.4739 16.7095 49.4739C22.4271 49.4739 28.1447 49.4739 33.9296 49.4739C34.535 49.4739 35.2076 49.8102 35.6112 50.1465C37.1583 51.6264 38.6382 53.1062 40.118 54.6534C40.4544 54.9897 40.6562 55.5951 40.7234 56.0659C40.7907 57.8149 40.7234 59.4965 40.7234 61.38Z" fill="white"/>
<path d="M39.0417 72.5463C38.5036 71.0664 38.1 69.6539 37.4946 68.3758C36.8892 67.0305 36.082 65.8197 35.3421 64.4744C35.6784 64.4071 35.9475 64.4071 36.2166 64.4071C38.9745 64.4071 41.7996 64.4071 44.5575 64.4071C46.9791 64.4071 48.1227 65.5506 48.1227 67.9049C48.1227 69.3848 48.1227 70.9319 48.1227 72.6136C46.5083 72.6136 44.9612 72.6136 43.4813 72.6136C42.0015 72.5463 40.5216 72.5463 39.0417 72.5463Z" fill="white"/>
<path d="M57.1363 10.7961C57.1363 6.6929 60.4996 3.3296 64.6028 3.39687C68.6388 3.46413 71.9348 6.76017 71.9348 10.8634C71.9348 14.9666 68.5715 18.3299 64.401 18.2627C60.3651 18.1954 57.069 14.8321 57.1363 10.7961Z" fill="white"/>
<path d="M28.0774 76.3134C28.0774 80.8202 24.3105 84.5199 19.8037 84.4526C15.2969 84.3853 11.5972 80.6184 11.6645 76.1789C11.7318 71.6721 15.4314 68.107 19.871 68.107C24.445 68.0397 28.1447 71.8066 28.0774 76.3134ZM19.871 81.4256C22.7634 81.4256 25.1177 79.0713 25.1177 76.1789C25.1177 73.3537 22.7634 70.9994 19.9382 70.9994C17.113 70.9994 14.6915 73.3537 14.6915 76.2462C14.6915 79.0713 17.0458 81.4256 19.871 81.4256Z" fill="#3030FC"/>
<path d="M19.8709 81.4253C17.0458 81.4253 14.6914 79.0709 14.6914 76.2458C14.6914 73.4206 17.113 70.999 19.9382 70.999C22.7634 70.999 25.1177 73.3533 25.1177 76.1785C25.1177 79.0709 22.7634 81.4925 19.8709 81.4253Z" fill="white"/>
</svg>
