<svg width="68" height="91" viewBox="0 0 68 91" fill="none" xmlns="http://www.w3.org/2000/svg">
<path d="M18.3146 6.24121C18.3146 4.88055 18.3146 3.61707 18.3146 2.35359C18.3146 0.920033 18.8006 0.434082 20.2098 0.434082C29.6616 0.434082 39.1134 0.434082 48.5652 0.434082C49.9258 0.434082 50.4118 0.944332 50.4118 2.305C50.4118 3.56848 50.4118 4.85625 50.4118 6.24121C50.7762 6.24121 51.0921 6.24121 51.408 6.24121C56.2432 6.24121 61.0784 6.24121 65.8894 6.24121C67.4444 6.24121 67.9061 6.70287 67.9061 8.23362C67.9061 35.0339 67.9061 61.8342 67.9061 88.6345C67.9061 90.1895 67.4444 90.6512 65.9137 90.6512C44.8719 90.6512 23.8059 90.6512 2.76412 90.6512C1.28197 90.6512 0.820312 90.1652 0.820312 88.6831C0.820312 61.8585 0.820312 35.0339 0.820312 8.20932C0.820312 6.72717 1.28197 6.24121 2.76412 6.24121C7.91522 6.24121 13.042 6.24121 18.3146 6.24121ZM64.9175 87.6869C64.9175 61.4697 64.9175 35.3255 64.9175 9.18123C60.0579 9.18123 55.2713 9.18123 50.4361 9.18123C50.4361 9.39991 50.4118 9.56999 50.4118 9.74008C50.3632 11.7568 50.0716 12.0483 48.0792 12.0483C38.9676 12.0483 29.856 12.0483 20.7444 12.0483C20.4285 12.0483 20.1369 12.0726 19.8211 12.0483C18.922 11.9998 18.3875 11.4652 18.3389 10.5419C18.3146 10.1045 18.3389 9.66718 18.3389 9.20553C13.4065 9.20553 8.59556 9.20553 3.78463 9.20553C3.78463 35.3984 3.78463 61.5183 3.78463 87.6869C24.1703 87.6869 44.5074 87.6869 64.9175 87.6869ZM21.3032 3.3498C21.3032 5.31791 21.3032 7.21312 21.3032 9.05974C30.0747 9.05974 38.7732 9.05974 47.4232 9.05974C47.4232 7.11593 47.4232 5.24501 47.4232 3.3498C38.7003 3.3498 30.0261 3.3498 21.3032 3.3498Z" fill="black"/>
<path d="M64.9174 87.6869C44.5074 87.6869 24.1703 87.6869 3.76031 87.6869C3.76031 61.5184 3.76031 35.3984 3.76031 9.20557C8.57125 9.20557 13.3822 9.20557 18.3146 9.20557C18.3146 9.64293 18.2903 10.0803 18.3146 10.5419C18.3632 11.4653 18.8977 11.9998 19.7968 12.0484C20.0883 12.0727 20.4042 12.0484 20.7201 12.0484C29.8317 12.0484 38.9433 12.0484 48.0549 12.0484C50.0473 12.0484 50.3632 11.7568 50.3875 9.74012C50.3875 9.57004 50.4118 9.39995 50.4118 9.18127C55.247 9.18127 60.0336 9.18127 64.8932 9.18127C64.9174 35.3255 64.9174 61.4698 64.9174 87.6869ZM35.8089 29.5184C35.7846 21.4273 29.2485 14.9398 21.0845 14.9641C13.1149 14.9884 6.62743 21.5731 6.65173 29.6156C6.67603 37.5366 13.2364 44.0727 21.1817 44.0727C29.2728 44.0727 35.8332 37.5366 35.8089 29.5184ZM21.5948 47.4986C21.1088 48.0818 20.6229 48.5434 20.2341 49.078C19.7967 49.6854 19.2865 49.9284 18.4847 49.9284C15.1559 49.8798 11.8028 49.9041 8.47405 49.9041C7.16198 49.9041 6.65173 50.4144 6.65173 51.7021C6.65173 55.3468 6.65173 58.9671 6.65173 62.6118C6.65173 63.9481 7.16198 64.4584 8.54694 64.4584C12.1673 64.4584 15.7633 64.4584 19.3837 64.4584C20.7444 64.4584 21.2303 63.9481 21.2303 62.5875C21.2303 59.4288 21.206 56.2944 21.2546 53.1357C21.2546 52.6983 21.4733 52.2124 21.7163 51.8479C22.348 50.9975 23.0526 50.2443 23.7816 49.3939C23.0526 48.7621 22.3723 48.1547 21.5948 47.4986ZM21.5948 66.4265C21.1088 66.9853 20.6229 67.4713 20.2341 68.0058C19.7967 68.6376 19.2622 68.8563 18.4847 68.832C15.1559 68.7834 11.8028 68.8077 8.47405 68.8077C7.16198 68.8077 6.65173 69.3179 6.65173 70.63C6.65173 74.2746 6.65173 77.895 6.65173 81.5396C6.65173 82.8517 7.16198 83.3619 8.44975 83.3619C12.0944 83.3619 15.739 83.3619 19.3837 83.3619C20.7444 83.3619 21.2303 82.8517 21.2303 81.491C21.2303 78.3323 21.206 75.1979 21.2546 72.0392C21.2546 71.6019 21.4733 71.1159 21.7163 70.7515C22.348 69.9011 23.0769 69.1235 23.7816 68.2731C23.004 67.6171 22.348 67.0582 21.5948 66.4265ZM24.1946 52.8441C24.1946 53.8403 24.1946 54.7393 24.1946 55.6626C36.8294 55.6626 49.4156 55.6626 62.0017 55.6626C62.0017 54.6907 62.0017 53.7674 62.0017 52.8441C49.3913 52.8441 36.8294 52.8441 24.1946 52.8441ZM24.1946 61.4698C36.8537 61.4698 49.4399 61.4698 62.0017 61.4698C62.0017 60.4979 62.0017 59.5746 62.0017 58.6756C49.367 58.6756 36.8051 58.6756 24.1946 58.6756C24.1946 59.6232 24.1946 60.4979 24.1946 61.4698ZM62.026 71.772C49.367 71.772 36.7808 71.772 24.2189 71.772C24.2189 72.7439 24.2189 73.6672 24.2189 74.5662C36.8537 74.5662 49.4156 74.5662 62.026 74.5662C62.026 73.6429 62.026 72.7439 62.026 71.772ZM24.1946 80.3976C36.8537 80.3976 49.4399 80.3976 62.0017 80.3976C62.0017 79.4257 62.0017 78.5024 62.0017 77.6034C49.367 77.6034 36.8051 77.6034 24.1946 77.6034C24.1946 78.5267 24.1946 79.4257 24.1946 80.3976ZM62.026 20.8441C54.2265 20.8441 46.4998 20.8441 38.7732 20.8441C38.7732 21.816 38.7732 22.7151 38.7732 23.6384C46.5484 23.6384 54.2751 23.6384 62.026 23.6384C62.026 22.6908 62.026 21.816 62.026 20.8441ZM62.0503 26.6756C54.2265 26.6756 46.4998 26.6756 38.7975 26.6756C38.7975 27.6475 38.7975 28.5465 38.7975 29.4698C46.5727 29.4698 54.2994 29.4698 62.0503 29.4698C62.0503 28.5222 62.0503 27.6232 62.0503 26.6756ZM62.026 32.4827C54.2265 32.4827 46.4998 32.4827 38.7975 32.4827C38.7975 33.4546 38.7975 34.3779 38.7975 35.2769C46.5727 35.2769 54.2751 35.2769 62.026 35.2769C62.026 34.3536 62.026 33.4546 62.026 32.4827ZM62.0017 41.1327C62.0017 40.1365 62.0017 39.2131 62.0017 38.3384C54.2022 38.3384 46.4755 38.3384 38.7975 38.3384C38.7975 39.3103 38.7975 40.2093 38.7975 41.1327C46.5484 41.1327 54.2508 41.1327 62.0017 41.1327Z" fill="white"/>
<path d="M21.3032 3.34985C30.0261 3.34985 38.7003 3.34985 47.4232 3.34985C47.4232 5.24507 47.4232 7.11599 47.4232 9.0598C38.7489 9.0598 30.0504 9.0598 21.3032 9.0598C21.3032 7.21318 21.3032 5.31796 21.3032 3.34985Z" fill="white"/>
<path d="M35.8089 29.5183C35.8332 37.5366 29.2728 44.0726 21.1817 44.0726C13.2364 44.0726 6.65174 37.5366 6.65174 29.6155C6.62744 21.573 13.1149 14.9884 21.0845 14.9641C29.2485 14.9398 35.8089 21.4272 35.8089 29.5183ZM32.8932 29.5183C32.8932 23.0795 27.6449 17.8555 21.1574 17.8798C14.8157 17.8798 9.56745 23.1281 9.54316 29.4697C9.54316 35.9086 14.7429 41.1569 21.1331 41.1569C27.6449 41.1569 32.8932 35.9815 32.8932 29.5183Z" fill="#010101"/>
<path d="M21.5948 47.4987C22.3723 48.179 23.0526 48.7621 23.7816 49.3939C23.0526 50.2443 22.348 50.9975 21.7163 51.8479C21.449 52.2124 21.2546 52.6983 21.2546 53.1357C21.206 56.2944 21.2303 59.4288 21.2303 62.5875C21.2303 63.9481 20.7201 64.4584 19.3837 64.4584C15.7633 64.4584 12.1673 64.4584 8.54695 64.4584C7.16198 64.4584 6.65173 63.9724 6.65173 62.6118C6.65173 58.9671 6.65173 55.3468 6.65173 51.7021C6.65173 50.3901 7.16198 49.9041 8.47406 49.9041C11.8028 49.9041 15.1559 49.8798 18.4847 49.9284C19.2865 49.9527 19.7967 49.7097 20.2341 49.078C20.6229 48.5435 21.1088 48.0575 21.5948 47.4987ZM12.1673 54.5693C12.7018 55.2739 13.1878 55.9056 13.7223 56.6103C14.8886 55.2496 15.8848 54.1076 16.9539 52.8441C14.3784 52.8441 11.9972 52.8441 9.59175 52.8441C9.59175 55.7599 9.59175 58.6027 9.59175 61.4698C12.5075 61.4698 15.3746 61.4698 18.2174 61.4698C18.2174 59.6232 18.2174 57.8251 18.2174 55.857C17.124 57.1205 16.1521 58.2868 15.1559 59.4045C14.4999 60.1577 13.698 60.3521 13.0906 59.7933C12.0215 58.8213 11.0739 57.728 10.1506 56.7803C10.8066 56.1 11.4141 55.4197 12.1673 54.5693Z" fill="#010101"/>
<path d="M21.5948 66.4265C22.348 67.0825 23.004 67.6414 23.7816 68.2974C23.0769 69.1235 22.348 69.9254 21.7163 70.7758C21.449 71.1403 21.2546 71.6262 21.2546 72.0636C21.206 75.2223 21.2303 78.3567 21.2303 81.5153C21.2303 82.876 20.7201 83.3863 19.3837 83.3863C15.739 83.3863 12.0944 83.3863 8.44976 83.3863C7.16198 83.3863 6.65173 82.876 6.65173 81.5639C6.65173 77.9193 6.65173 74.2989 6.65173 70.6543C6.65173 69.3422 7.16198 68.8563 8.47406 68.832C11.8028 68.832 15.1559 68.8077 18.4847 68.8563C19.2622 68.8563 19.7967 68.6376 20.2341 68.0302C20.6229 67.447 21.1088 66.9854 21.5948 66.4265ZM16.9539 71.7963C14.3784 71.7963 11.9972 71.7963 9.61605 71.7963C9.61605 74.712 9.61605 77.5305 9.61605 80.3976C12.5318 80.3976 15.3989 80.3976 18.266 80.3976C18.266 78.551 18.266 76.753 18.266 74.8092C17.9744 75.1251 17.78 75.3437 17.5857 75.5624C16.7838 76.51 15.982 77.4576 15.1559 78.3809C14.4999 79.1099 13.7223 79.2557 13.0663 78.6725C12.0215 77.7249 11.0739 76.6558 10.0777 75.6353C10.7337 74.9793 11.3655 74.3475 12.143 73.5457C12.6532 74.2018 13.1635 74.8578 13.7223 75.5624C14.8886 74.2018 15.8848 73.0355 16.9539 71.7963Z" fill="#010101"/>
<path d="M24.1946 52.8441C36.8051 52.8441 49.3669 52.8441 62.0017 52.8441C62.0017 53.7674 62.0017 54.6907 62.0017 55.6626C49.4155 55.6626 36.8294 55.6626 24.1946 55.6626C24.1946 54.7393 24.1946 53.8403 24.1946 52.8441Z" fill="#3030FC"/>
<path d="M24.1946 61.4696C24.1946 60.4977 24.1946 59.5987 24.1946 58.6754C36.8051 58.6754 49.3669 58.6754 62.0017 58.6754C62.0017 59.5744 62.0017 60.4977 62.0017 61.4696C49.4398 61.4696 36.8537 61.4696 24.1946 61.4696Z" fill="black"/>
<path d="M62.0261 71.772C62.0261 72.7439 62.0261 73.6429 62.0261 74.5662C49.4156 74.5662 36.8537 74.5662 24.2189 74.5662C24.2189 73.6672 24.2189 72.7439 24.2189 71.772C36.7808 71.772 49.367 71.772 62.0261 71.772Z" fill="#3030FC"/>
<path d="M24.1946 80.3976C24.1946 79.4257 24.1946 78.5267 24.1946 77.6034C36.8051 77.6034 49.3669 77.6034 62.0017 77.6034C62.0017 78.5024 62.0017 79.4257 62.0017 80.3976C49.4398 80.3976 36.8537 80.3976 24.1946 80.3976Z" fill="#3030FC"/>
<path d="M62.026 20.844C62.026 21.7916 62.026 22.6906 62.026 23.6382C54.2751 23.6382 46.5484 23.6382 38.7732 23.6382C38.7732 22.6906 38.7732 21.8159 38.7732 20.844C46.4998 20.844 54.2265 20.844 62.026 20.844Z" fill="#3030FC"/>
<path d="M62.0503 26.6755C62.0503 27.6231 62.0503 28.5222 62.0503 29.4698C54.2994 29.4698 46.5728 29.4698 38.7975 29.4698C38.7975 28.5465 38.7975 27.6474 38.7975 26.6755C46.4999 26.6755 54.2265 26.6755 62.0503 26.6755Z" fill="#3030FC"/>
<path d="M62.0261 32.4827C62.0261 33.4546 62.0261 34.3536 62.0261 35.2769C54.2751 35.2769 46.5728 35.2769 38.7975 35.2769C38.7975 34.3779 38.7975 33.4546 38.7975 32.4827C46.5242 32.4827 54.2265 32.4827 62.0261 32.4827Z" fill="#3030FC"/>
<path d="M62.0018 41.1326C54.2508 41.1326 46.5485 41.1326 38.7975 41.1326C38.7975 40.2093 38.7975 39.3103 38.7975 38.3384C46.4999 38.3384 54.2265 38.3384 62.0018 38.3384C62.0018 39.2131 62.0018 40.1121 62.0018 41.1326Z" fill="#3030FC"/>
<path d="M32.8932 29.5184C32.8932 35.9573 27.6449 41.157 21.1574 41.157C14.7671 41.1327 9.56744 35.9087 9.56744 29.4698C9.56744 23.1281 14.8157 17.8798 21.1817 17.8798C27.6692 17.8555 32.8932 23.0795 32.8932 29.5184ZM16.8567 25.1448C15.9091 25.1448 15.1073 25.1448 14.2812 25.1448C13.0177 25.1448 12.4832 25.6551 12.4832 26.8943C12.4832 28.6437 12.4589 30.4174 12.4832 32.1669C12.4832 33.3574 13.0177 33.8677 14.2326 33.8677C15.1073 33.8677 15.9577 33.8677 16.8567 33.8677C16.8567 34.8639 16.8567 35.7143 16.8567 36.5404C16.881 37.6824 17.4156 38.217 18.5333 38.217C20.3313 38.2413 22.105 38.2413 23.903 38.217C25.045 38.217 25.5796 37.6824 25.6039 36.5404C25.6282 35.6657 25.6039 34.791 25.6039 33.8434C26.5515 33.8434 27.3776 33.8434 28.228 33.8434C29.4186 33.8191 29.9775 33.3088 29.9775 32.1426C30.0018 30.3445 30.0018 28.5708 29.9775 26.7728C29.9775 25.6551 29.4186 25.1205 28.2766 25.1205C27.4019 25.0962 26.5272 25.1205 25.6039 25.1205C25.6039 24.1243 25.6282 23.2739 25.6039 22.3992C25.5796 21.3301 25.045 20.7713 23.9759 20.7713C22.1536 20.747 20.3313 20.747 18.509 20.7713C17.4399 20.7713 16.881 21.3301 16.881 22.3992C16.8567 23.2982 16.8567 24.1729 16.8567 25.1448Z" fill="white"/>
<path d="M12.1673 54.5691C11.3898 55.4195 10.7823 56.0756 10.1749 56.7559C11.0982 57.7035 12.0458 58.7969 13.1149 59.7688C13.7466 60.352 14.5241 60.1333 15.1802 59.3801C16.1764 58.2381 17.1483 57.0961 18.2417 55.8326C18.2417 57.8007 18.2417 59.5987 18.2417 61.4454C15.3989 61.4454 12.5317 61.4454 9.61603 61.4454C9.61603 58.5782 9.61603 55.7354 9.61603 52.8197C12.0215 52.8197 14.4027 52.8197 16.9782 52.8197C15.8848 54.0832 14.9129 55.2495 13.7466 56.5858C13.2121 55.9298 12.7018 55.2738 12.1673 54.5691Z" fill="white"/>
<path d="M16.9539 71.7963C15.8848 73.0354 14.8886 74.2017 13.7223 75.5624C13.1635 74.8578 12.6775 74.2017 12.143 73.5457C11.3655 74.3232 10.7337 74.9793 10.0777 75.6353C11.0739 76.6558 12.0215 77.7249 13.0663 78.6725C13.698 79.2556 14.4998 79.1098 15.1559 78.3809C15.982 77.4576 16.7838 76.4857 17.5856 75.5624C17.78 75.3437 17.9744 75.125 18.266 74.8092C18.266 76.753 18.266 78.551 18.266 80.3976C15.3989 80.3976 12.5317 80.3976 9.61603 80.3976C9.61603 77.5305 9.61603 74.712 9.61603 71.7963C11.9972 71.7963 14.4027 71.7963 16.9539 71.7963Z" fill="white"/>
<path d="M16.8568 25.1447C16.8568 24.1485 16.8325 23.2738 16.8568 22.3991C16.8811 21.33 17.4156 20.7712 18.4847 20.7712C20.307 20.7469 22.1293 20.7469 23.9517 20.7712C25.0208 20.7712 25.5553 21.33 25.5796 22.3991C25.6039 23.2738 25.5796 24.1485 25.5796 25.1204C26.5029 25.1204 27.3776 25.1204 28.2523 25.1204C29.3943 25.1447 29.9532 25.655 29.9532 26.7727C29.9775 28.5707 29.9775 30.3444 29.9532 32.1424C29.9532 33.3087 29.3943 33.8433 28.2038 33.8433C27.3533 33.8433 26.5272 33.8433 25.5796 33.8433C25.5796 34.7909 25.6039 35.6656 25.5796 36.5403C25.5553 37.658 25.0208 38.1925 23.8788 38.2168C22.0807 38.2411 20.307 38.2411 18.509 38.2168C17.367 38.2168 16.8568 37.658 16.8325 36.5403C16.8082 35.6899 16.8325 34.8395 16.8325 33.8676C15.9334 33.8676 15.0587 33.8676 14.2083 33.8676C13.0177 33.8433 12.4832 33.333 12.4589 32.1667C12.4346 30.4173 12.4589 28.6436 12.4589 26.8942C12.4589 25.655 12.9934 25.169 14.2569 25.1447C15.1073 25.1447 15.9092 25.1447 16.8568 25.1447ZM22.6882 23.7598C21.6677 23.7598 20.7444 23.7598 19.7725 23.7598C19.7725 24.6588 19.7725 25.5092 19.7725 26.3596C19.7482 27.5259 19.2136 28.0604 18.023 28.0604C17.1483 28.0604 16.2979 28.0604 15.4475 28.0604C15.4475 29.1052 15.4475 29.98 15.4475 30.9762C16.3222 30.9762 17.1726 30.9762 18.023 30.9762C19.2622 31.0005 19.7725 31.5107 19.7725 32.7499C19.7725 33.576 19.7725 34.4264 19.7725 35.2768C20.793 35.2768 21.7163 35.2768 22.6882 35.2768C22.6882 34.3778 22.6882 33.5274 22.6882 32.677C22.7125 31.4864 23.2227 30.9762 24.4376 30.9762C25.3123 30.9762 26.1628 30.9762 27.0132 30.9762C27.0132 29.9314 27.0132 29.0566 27.0132 28.0604C26.0899 28.0604 25.2151 28.0847 24.3647 28.0604C23.247 28.0361 22.7125 27.5016 22.6882 26.3596C22.6882 25.5335 22.6882 24.6831 22.6882 23.7598Z" fill="#010101"/>
<path d="M22.6882 23.7598C22.6882 24.6831 22.6882 25.5335 22.6882 26.3596C22.7125 27.5016 23.2227 28.0362 24.3647 28.0604C25.2394 28.0847 26.1141 28.0604 27.0131 28.0604C27.0131 29.0324 27.0131 29.9314 27.0131 30.9762C26.1627 30.9762 25.288 30.9762 24.4376 30.9762C23.247 31.0005 22.7125 31.5107 22.6882 32.677C22.6639 33.5274 22.6882 34.3535 22.6882 35.2768C21.7163 35.2768 20.793 35.2768 19.7725 35.2768C19.7725 34.4264 19.7725 33.6003 19.7725 32.7499C19.7482 31.4864 19.2622 30.9762 18.023 30.9762C17.1726 30.9762 16.3465 30.9762 15.4475 30.9762C15.4475 30.0043 15.4475 29.1052 15.4475 28.0604C16.2979 28.0604 17.1726 28.0604 18.023 28.0604C19.2136 28.0362 19.7482 27.5259 19.7725 26.3596C19.7968 25.5092 19.7725 24.6831 19.7725 23.7598C20.7444 23.7598 21.6677 23.7598 22.6882 23.7598Z" fill="white"/>
</svg>
